<?xml version="1.0" encoding="UTF-8" standalone="no"?>
<!-- Created with Inkscape (http://www.inkscape.org/) -->

<svg
   xmlns:dc="http://purl.org/dc/elements/1.1/"
   xmlns:cc="http://creativecommons.org/ns#"
   xmlns:rdf="http://www.w3.org/1999/02/22-rdf-syntax-ns#"
   xmlns:svg="http://www.w3.org/2000/svg"
   xmlns="http://www.w3.org/2000/svg"
   xmlns:sodipodi="http://sodipodi.sourceforge.net/DTD/sodipodi-0.dtd"
   xmlns:inkscape="http://www.inkscape.org/namespaces/inkscape"
   width="145"
   height="145"
   id="svg2"
   version="1.1"
   inkscape:version="0.48.3.1 r9886"
   sodipodi:docname="camera2.svg">
  <defs
     id="defs4" />
  <sodipodi:namedview
     id="base"
     pagecolor="#ffffff"
     bordercolor="#666666"
     borderopacity="1.0"
     inkscape:pageopacity="0.0"
     inkscape:pageshadow="2"
     inkscape:zoom="3.959798"
     inkscape:cx="85.053774"
     inkscape:cy="73.878198"
     inkscape:document-units="px"
     inkscape:current-layer="layer1"
     showgrid="false"
     inkscape:window-width="1215"
     inkscape:window-height="1000"
     inkscape:window-x="65"
     inkscape:window-y="24"
     inkscape:window-maximized="1" />
  <metadata
     id="metadata7">
    <rdf:RDF>
      <cc:Work
         rdf:about="">
        <dc:format>image/svg+xml</dc:format>
        <dc:type
           rdf:resource="http://purl.org/dc/dcmitype/StillImage" />
        <dc:title />
      </cc:Work>
    </rdf:RDF>
  </metadata>
  <g
     inkscape:label="Layer 1"
     inkscape:groupmode="layer"
     id="layer1"
     transform="translate(0,-907.36218)">
    <path
       style="opacity:0.75000000000000000;fill:#ffffff;fill-opacity:0.47488588;stroke:none"
       d="M 71.6875 0.59375 L 1 71.3125 L 71.6875 142 L 142.40625 71.3125 L 71.6875 0.59375 z M 58.84375 47.78125 L 98.5 47.78125 L 98.5 51.84375 L 108.0625 51.84375 L 108.0625 95.21875 L 36.40625 95.21875 L 36.40625 51.84375 L 58.84375 51.84375 L 58.84375 47.78125 z M 78.46875 52 C 67.219846 52 58.09375 61.09485 58.09375 72.34375 C 58.09375 83.59265 67.219846 92.71875 78.46875 92.71875 C 89.717652 92.71875 98.8125 83.59265 98.8125 72.34375 C 98.8125 61.09485 89.717652 52 78.46875 52 z M 43.1875 54.59375 L 43.1875 59.65625 L 48.75 59.65625 L 48.75 54.59375 L 43.1875 54.59375 z M 78.3125 56.96875 C 86.756527 56.96875 93.59375 63.80597 93.59375 72.25 C 93.59375 80.69405 86.756527 87.53125 78.3125 87.53125 C 69.868473 87.53125 63 80.69405 63 72.25 C 63 63.80597 69.868473 56.96875 78.3125 56.96875 z "
       transform="translate(0,907.36218)"
       id="rect2985" />
    <path
       inkscape:connector-curvature="0"
       style="opacity:0.75;fill:#518687;fill-opacity:0.47488589;stroke:none"
       d="m 71.687501,907.95596 -70.6875,70.71875 70.6875,70.68749 70.718749,-70.68749 -70.718749,-70.71875 z m -12.84375,47.1875 39.65625,0 0,4.0625 9.562499,0 0,43.37504 -71.656249,0 0,-43.37504 22.4375,0 0,-4.0625 z m 19.625,4.21875 c -11.248904,0 -20.375,9.09485 -20.375,20.34375 0,11.2489 9.126096,20.37504 20.375,20.37504 11.248902,0 20.34375,-9.12614 20.34375,-20.37504 0,-11.2489 -9.094848,-20.34375 -20.34375,-20.34375 z m -35.28125,2.59375 0,5.0625 5.5625,0 0,-5.0625 -5.5625,0 z m 35.125,2.375 c 8.444027,0 15.28125,6.83722 15.28125,15.28125 0,8.44405 -6.837223,15.28125 -15.28125,15.28125 -8.444027,0 -15.3125,-6.8372 -15.3125,-15.28125 0,-8.44403 6.868473,-15.28125 15.3125,-15.28125 z"
       id="rect2985-9" />
  </g>
</svg>
