<?xml version="1.0" encoding="UTF-8" standalone="no"?>
<!-- Created with Inkscape (http://www.inkscape.org/) -->

<svg
   xmlns:dc="http://purl.org/dc/elements/1.1/"
   xmlns:cc="http://creativecommons.org/ns#"
   xmlns:rdf="http://www.w3.org/1999/02/22-rdf-syntax-ns#"
   xmlns:svg="http://www.w3.org/2000/svg"
   xmlns="http://www.w3.org/2000/svg"
   xmlns:sodipodi="http://sodipodi.sourceforge.net/DTD/sodipodi-0.dtd"
   xmlns:inkscape="http://www.inkscape.org/namespaces/inkscape"
   width="145"
   height="145"
   id="svg2"
   version="1.1"
   inkscape:version="0.48.4 r9939"
   sodipodi:docname="camera.svg">
  <defs
     id="defs4" />
  <sodipodi:namedview
     id="base"
     pagecolor="#ffffff"
     bordercolor="#666666"
     borderopacity="1.0"
     inkscape:pageopacity="0.0"
     inkscape:pageshadow="2"
     inkscape:zoom="3.959798"
     inkscape:cx="45.657825"
     inkscape:cy="73.878198"
     inkscape:document-units="px"
     inkscape:current-layer="layer1"
     showgrid="false"
     inkscape:window-width="1440"
     inkscape:window-height="838"
     inkscape:window-x="-8"
     inkscape:window-y="-8"
     inkscape:window-maximized="1" />
  <metadata
     id="metadata7">
    <rdf:RDF>
      <cc:Work
         rdf:about="">
        <dc:format>image/svg+xml</dc:format>
        <dc:type
           rdf:resource="http://purl.org/dc/dcmitype/StillImage" />
        <dc:title />
      </cc:Work>
    </rdf:RDF>
  </metadata>
  <g
     inkscape:label="Layer 1"
     inkscape:groupmode="layer"
     id="layer1"
     transform="translate(0,-907.36218)">
    <path
       style="opacity:0.75000000000000000;fill:#ffffff;fill-opacity:0.47488588;stroke:none"
       d="M 71.6875 0.59375 L 1 71.3125 L 71.6875 142 L 142.40625 71.3125 L 71.6875 0.59375 z M 58.84375 47.78125 L 98.5 47.78125 L 98.5 51.84375 L 108.0625 51.84375 L 108.0625 95.21875 L 36.40625 95.21875 L 36.40625 51.84375 L 58.84375 51.84375 L 58.84375 47.78125 z M 78.46875 52 C 67.219846 52 58.09375 61.09485 58.09375 72.34375 C 58.09375 83.59265 67.219846 92.71875 78.46875 92.71875 C 89.717652 92.71875 98.8125 83.59265 98.8125 72.34375 C 98.8125 61.09485 89.717652 52 78.46875 52 z M 43.1875 54.59375 L 43.1875 59.65625 L 48.75 59.65625 L 48.75 54.59375 L 43.1875 54.59375 z M 78.3125 56.96875 C 86.756527 56.96875 93.59375 63.80597 93.59375 72.25 C 93.59375 80.69405 86.756527 87.53125 78.3125 87.53125 C 69.868473 87.53125 63 80.69405 63 72.25 C 63 63.80597 69.868473 56.96875 78.3125 56.96875 z "
       transform="translate(0,907.36218)"
       id="rect2985" />
    <path
       style="opacity:0.75;fill:#4d4d4d;fill-opacity:1;stroke:none"
       d="m 47.164943,933.93019 0,7.91214 -43.6992811,0 0,84.47717 139.5577381,0 0,-84.47717 -18.62394,0 0,-7.91214 -77.234517,0 z m 38.221655,8.21654 c 21.908362,0 39.621492,17.71307 39.621492,39.62148 0,21.90829 -17.71313,39.68229 -39.621492,39.68229 -21.908369,0 -39.682356,-17.774 -39.682356,-39.68229 0,-21.90841 17.773987,-39.62148 39.682356,-39.62148 z m -68.713773,5.0515 10.833527,0 0,9.85976 -10.833527,0 0,-9.85976 z m 68.40946,4.62554 c -16.445589,0 -29.822629,13.3161 -29.822629,29.76194 0,16.4455 13.37704,29.76159 29.822629,29.76159 16.445585,0 29.761765,-13.31609 29.761765,-29.76159 0,-16.44584 -13.31618,-29.76194 -29.761765,-29.76194 z"
       id="path3875"
       inkscape:connector-curvature="0" />
  </g>
</svg>
