<?xml version="1.0" encoding="UTF-8" standalone="no"?>
<!-- Created with Inkscape (http://www.inkscape.org/) -->

<svg
   xmlns:dc="http://purl.org/dc/elements/1.1/"
   xmlns:cc="http://creativecommons.org/ns#"
   xmlns:rdf="http://www.w3.org/1999/02/22-rdf-syntax-ns#"
   xmlns:svg="http://www.w3.org/2000/svg"
   xmlns="http://www.w3.org/2000/svg"
   xmlns:sodipodi="http://sodipodi.sourceforge.net/DTD/sodipodi-0.dtd"
   xmlns:inkscape="http://www.inkscape.org/namespaces/inkscape"
   width="145"
   height="145"
   id="svg2"
   version="1.1"
   inkscape:version="0.48.4 r9939"
   sodipodi:docname="earth.svg">
  <defs
     id="defs4" />
  <sodipodi:namedview
     id="base"
     pagecolor="#ffffff"
     bordercolor="#666666"
     borderopacity="1.0"
     inkscape:pageopacity="0.0"
     inkscape:pageshadow="2"
     inkscape:zoom="3.959798"
     inkscape:cx="34.579775"
     inkscape:cy="79.491395"
     inkscape:document-units="px"
     inkscape:current-layer="layer1"
     showgrid="false"
     inkscape:window-width="1440"
     inkscape:window-height="838"
     inkscape:window-x="-8"
     inkscape:window-y="-8"
     inkscape:window-maximized="1" />
  <metadata
     id="metadata7">
    <rdf:RDF>
      <cc:Work
         rdf:about="">
        <dc:format>image/svg+xml</dc:format>
        <dc:type
           rdf:resource="http://purl.org/dc/dcmitype/StillImage" />
        <dc:title />
      </cc:Work>
    </rdf:RDF>
  </metadata>
  <g
     inkscape:label="Layer 1"
     inkscape:groupmode="layer"
     id="layer1"
     transform="translate(0,-907.36218)">
    <path
       id="path5926"
       transform="translate(0,907.36218)"
       d="M 72.46875 1.59375 L 1.75 72.3125 L 72.46875 143.03125 L 143.15625 72.3125 L 72.46875 1.59375 z M 66.8125 31.53125 C 66.8125 31.53125 60.887162 33.38754 60.71875 34.1875 C 60.550338 34.98745 55.875 34.625 55.875 34.625 L 59.40625 32.25 L 66.8125 31.53125 z M 71.0625 31.59375 C 75.330588 31.592577 81.531251 32.380346 84.3125 34.875 C 85.073881 35.55793 86.322401 35.5433 86.96875 36.3125 C 87.168612 36.55034 87.460086 36.93347 87.28125 37.1875 C 86.917603 37.70403 85.971242 37.01009 85.375 37.21875 C 84.675562 37.46353 84.252535 38.22318 83.59375 38.5625 C 83.045205 38.84503 82.153536 38.59137 81.84375 39.125 C 81.583904 39.5726 82.1373 40.10988 82.1875 40.625 C 82.24333 41.19787 82.44691 41.89786 82.125 42.375 C 81.808591 42.84399 81.110887 43.1703 80.5625 43.03125 C 80.078084 42.90841 80.126058 42.01413 79.65625 41.84375 C 79.211176 41.68234 79.218368 42.24045 78.25 42.15625 C 77.281631 42.07205 77.210053 41.44814 76.625 41.21875 C 76.342947 41.10813 75.968172 41.24146 75.75 41.03125 C 75.561195 40.84934 75.695831 40.45409 75.53125 40.25 C 75.342097 40.01543 74.550339 39.97006 74.71875 39.84375 C 74.887165 39.71744 75.160967 39.19277 74.9375 39.03125 C 74.666184 38.83514 74.418196 39.67625 74.09375 39.59375 C 73.722501 39.49935 73.5566 38.94472 73.53125 38.5625 C 73.515598 38.326482 73.83623 37.832814 73.90625 37.6875 C 73.899447 37.693255 73.885526 37.676975 73.875 37.6875 C 73.664485 37.89802 73.299704 37.77836 73.125 37.59375 C 72.951102 37.40998 72.936775 37.04218 73.09375 36.84375 C 73.341413 36.5307 73.618456 36.7092 74.25 36.625 C 74.881541 36.54079 74.39671 36.25392 74.3125 35.875 C 74.228293 35.49607 74.38978 35.55688 73.96875 35.09375 C 73.547719 34.63061 73.810809 34.74176 72.96875 34.53125 C 72.12669 34.32073 72.285177 34.85591 71.90625 34.6875 C 71.527323 34.51909 72.039485 34.40887 72.25 34.15625 C 72.460515 33.90363 70.720059 32.97137 70.59375 32.71875 C 70.467441 32.46613 67.692736 32.59375 67.1875 32.59375 C 65.592566 32.064007 67.742876 31.594663 71.0625 31.59375 z M 57.25 32.9375 C 56.295873 33.4287 57.301581 33.91505 54.34375 34.40625 L 52.96875 34.53125 L 57.25 32.9375 z M 54.6875 34.96875 C 55.40163 34.940423 55.973026 35.21655 56.65625 35.25 C 55.882244 35.52928 55.367315 35.98085 53.96875 35.84375 L 53.9375 35.125 C 54.218286 35.03007 54.449457 34.978192 54.6875 34.96875 z M 52.25 35.28125 C 51.772833 35.97665 50.320917 36.62957 49.84375 36.8125 C 50.088082 36.36455 49.423786 35.73782 51.1875 35.59375 L 52.25 35.28125 z M 59.4375 35.46875 C 59.53108 35.468914 59.61941 35.478949 59.65625 35.5 C 59.950971 35.66841 59.17204 36.08607 59.34375 36.3125 C 59.556432 36.59296 60.153632 36.21875 60.40625 36.21875 C 60.658868 36.21875 61.53294 35.65494 62.375 35.78125 C 63.21706 35.90756 62.620344 36.30244 62.84375 36.4375 C 63.973299 37.12034 65.981293 37.03125 66.78125 37.03125 C 67.581207 37.03125 66.30296 37.57767 66.21875 38.125 C 66.134544 38.67234 69.921411 38.94312 70.46875 39.40625 C 71.016089 39.86938 69.168412 40.01647 69 40.4375 C 68.831588 40.85853 67.821061 39.16526 67.09375 39.28125 C 66.818652 39.32512 66.773015 39.56943 66.5625 39.90625 C 66.351985 40.24308 67.565499 40.5655 68.28125 41.28125 C 68.997001 41.997 68.28125 42.50262 68.28125 42.25 C 68.28125 41.99738 66.043412 41.35199 65.875 41.5625 C 65.706588 41.77302 67.646413 42.24071 67.34375 42.8125 C 66.867522 43.71218 65.333 42.45239 64.40625 42.03125 C 63.899501 41.80098 63.747001 40.75692 63.03125 41.09375 C 62.315499 41.43057 60.539943 42.00631 60.4375 41.15625 C 60.361732 40.52754 61.512543 40.67665 62.3125 40.71875 C 63.112457 40.76085 62.71875 40.34375 62.71875 40.34375 C 62.71875 40.34375 62.932264 39.61114 63.4375 38.9375 C 63.942736 38.26385 62.25954 38.11676 62.34375 37.90625 C 62.427956 37.69573 60.934828 36.9905 60.15625 37.0625 C 59.729622 37.10196 59.476771 37.60944 59.0625 37.71875 C 58.302101 37.91939 57.502772 37.59485 56.71875 37.65625 C 56.205623 37.69645 55.70165 37.9137 55.1875 37.9375 C 55.046607 37.944 54.888527 37.99785 54.78125 37.90625 C 54.571532 37.72724 54.899324 37.43058 54.5625 37.09375 C 54.225676 36.75693 56.4375 35.875 56.4375 35.875 C 56.4375 35.875 56.3033 36.26802 56.3125 36.46875 C 56.323294 36.70376 56.53125 36.77732 56.53125 37.15625 C 56.53125 37.53517 57.069426 37.34768 57.40625 36.96875 C 57.743074 36.58983 57.220059 36.88024 57.09375 36.375 C 56.98323 35.932924 58.782437 35.4676 59.4375 35.46875 z M 54.25 36.34375 C 53.806631 37.02313 53.367419 37.68215 52.15625 37.59375 L 52.0625 37.28125 C 52.619531 36.1951 53.488812 36.51119 54.25 36.34375 z M 51.0625 37.0625 L 51.28125 37.34375 C 51.24229 37.66591 51.484833 37.95117 50.9375 38.375 C 50.552164 38.53701 50.168202 38.68336 49.5625 38.625 C 49.249022 38.621 48.866422 38.83349 48.65625 38.3125 L 48.84375 37.71875 C 49.635962 37.59098 50.382132 37.41395 51.0625 37.0625 z M 47.9375 37.1875 C 47.641223 37.55395 47.371388 37.90219 46.96875 38.375 C 46.800667 38.52465 45.079335 38.93807 44.125 39.21875 L 44.96875 38.65625 L 47.9375 37.1875 z M 56.90625 37.90625 C 57.455909 37.849612 58.417109 38.016906 58.65625 38.375 C 58.895339 38.73302 58.21875 39.59375 58.21875 39.59375 C 57.712654 39.54612 56.564689 39.85343 55.28125 40.25 C 55.409209 40.25 56.953492 38.61183 56.59375 38.25 C 56.411587 38.066783 56.576454 37.940233 56.90625 37.90625 z M 55.0625 38.75 C 55.192754 38.742107 54.5 39.15167 54.5 39.59375 C 54.5 40.18319 55.533868 40.18488 55.28125 40.4375 C 55.028636 40.69012 54.9375 41.08852 54.9375 41.59375 C 54.9375 42.099 54.775252 41.93488 53.34375 42.1875 C 51.912248 42.44011 50.127618 45.40794 49.875 46.25 C 49.622382 47.09206 51.155322 46.32112 52.25 47.5 C 53.344678 48.67889 56.875 48.6875 56.875 48.6875 C 56.875 48.6875 57.039866 50.77078 58.21875 51.78125 C 59.39763 52.79172 59.131926 50.96706 59.46875 50.125 C 59.792943 49.314517 58.825603 48.962043 58.75 48.9375 C 58.81267 48.954923 59.045798 48.93467 59.90625 48.5 C 61.23976 47.82635 61.312143 46.83945 60.75 46.25 C 60.30741 45.78592 59.89147 45.23353 60.3125 44.8125 C 60.733526 44.39147 60.502618 44.72923 60.25 43.71875 C 59.997382 42.70829 60.058954 42.36022 61.40625 42.78125 C 62.753546 43.20228 63.84713 42.61715 65.53125 43.375 C 67.21537 44.13285 65.305574 44.46352 64.96875 44.96875 C 64.631926 45.47399 66.052028 45.65625 67.0625 45.65625 C 68.072968 45.65625 68.15625 44.21875 68.15625 44.21875 C 70.016534 43.88052 70.070253 45.22968 70.5 46.0625 C 71.019495 47.06924 69.84375 46.90625 69.84375 46.90625 C 70.479205 48.10538 71.738407 48.05314 72.78125 48.4375 L 71.34375 49.1875 C 71.34375 49.1875 72.357602 49.0842 73.03125 49 C 73.704898 48.91579 74.3125 49.6875 74.3125 49.6875 L 74.21875 50.78125 L 72.625 51.03125 L 70.84375 52.0625 C 70.84375 52.0625 69.581754 51.29248 66.71875 52.21875 C 64.464134 52.948188 64.373589 54.652053 64.46875 54.8125 C 64.487386 54.778237 64.520724 54.699335 64.53125 54.5625 C 64.615456 53.46782 67.65625 52.8125 67.65625 52.8125 C 67.65625 52.8125 68.831588 52.80988 69 53.0625 C 69.168412 53.31512 68.5 53.65625 68.5 53.65625 C 68.5 53.65625 67.14671 52.97305 67.0625 53.5625 C 66.978294 54.15194 68 53.71875 68 53.71875 C 68 53.71875 68.497382 54.3359 68.75 55.09375 C 69.002618 55.85161 69.758459 55.19973 70.25 55.34375 C 70.45514 55.40386 70.84375 55.59375 70.84375 55.59375 C 70.846997 55.693065 70.847358 55.832106 70.78125 55.90625 C 70.35079 56.38909 69.728373 55.948 68.90625 56.4375 C 68.756752 56.86152 68.690553 57.34415 68 57.28125 C 67.930971 57.31083 67.446541 56.87858 67.65625 56.5 C 67.785279 56.26706 68.83602 56.31572 68.90625 55.84375 C 68.92962 55.6867 68.718951 55.5271 68.5625 55.5 C 67.981048 55.39929 66.96875 56.25 66.96875 56.25 C 66.96875 56.25 65.532178 55.48429 64.4375 57 C 63.342822 58.51571 65.063744 58.09758 64.78125 58.53125 C 64.625012 58.77106 63.9375 58.6875 63.9375 58.6875 C 63.9375 58.6875 60.315118 59.97044 60.0625 60.8125 C 59.809882 61.65456 61.31595 62.996 60.65625 63.75 C 59.495567 65.0766 56.276014 65.85667 56.78125 67.625 C 57.286486 69.39332 56.795102 68.11883 57.46875 69.71875 C 58.142398 71.31866 57.377618 71.8342 57.125 71.75 C 56.872382 71.6658 56.70228 70.57036 56.28125 69.8125 C 55.860224 69.05465 55.78125 67.96875 55.78125 67.96875 C 55.78125 67.96875 53.760472 67.69966 52.75 67.53125 C 51.739528 67.36284 51.721368 67.55203 51.46875 68.5625 C 51.216132 69.57297 50.375 68.5625 50.375 68.5625 C 50.375 68.5625 47.35684 66.8739 46.09375 71 C 44.83066 75.12609 47.78125 76.375 47.78125 76.375 C 47.78125 76.375 49.433291 76.79742 50.0625 76.375 C 50.616431 76.00312 50.266432 74.91458 50.8125 74.53125 C 51.364337 74.14387 53.217319 73.87622 52.84375 74.4375 C 51.57856 76.33839 50.799606 77.25056 51.5625 78.40625 C 52.2149 79.39456 54.273062 77.89628 55.09375 78.75 C 55.795108 79.47959 54.86817 80.85737 55.28125 81.78125 C 55.55669 82.3973 56.71875 83.21875 56.71875 83.21875 C 56.71875 83.21875 57.765758 82.56982 58.3125 82.6875 C 59.012091 82.83809 59.90625 84.125 59.90625 84.125 L 59.3125 84.21875 C 59.3125 84.21875 58.831527 83.2065 58.375 83.1875 C 57.878847 83.16679 57.772284 84.14475 57.28125 84.21875 C 56.573635 84.32545 55.921606 83.70337 55.34375 83.28125 C 54.814621 82.89473 54.456274 82.31406 54 81.84375 C 53.419553 81.24545 52.978607 80.49873 52.25 80.09375 C 51.494226 79.67366 50.480131 79.90984 49.71875 79.5 C 49.071885 79.1518 48.826192 78.18785 48.125 77.96875 C 47.772618 77.85863 47.39402 78.22475 47.03125 78.15625 C 45.053875 77.7827 43.059131 76.7047 41.8125 75.125 C 41.267884 74.43488 41.391349 73.39575 41.03125 72.59375 C 40.22081 70.78875 39.609195 68.58968 37.9375 67.53125 C 37.722752 67.39525 37.17439 67.21523 37.15625 67.46875 C 37.046332 69.00526 39.785147 73.09375 39.03125 73.09375 C 38.048846 70.90439 37.718298 74.37712 36.0625 66.53125 C 35.113408 65.89539 34.225404 65.09065 33.71875 62.90625 C 33.689853 61.34487 33.235322 60.33823 34.46875 57.09375 C 35.084561 57.17625 35.15161 56.71617 35.21875 56.25 C 34.886341 55.69462 34.565819 55.10705 34.125 55.09375 L 33.71875 55 C 33.71852 54.24237 33.59894 52.87119 32.96875 52.09375 C 32.909467 52.02064 32.71875 51.96875 32.71875 51.96875 L 31.9375 52.46875 C 33.94128 49.53369 35.546357 46.37138 38.59375 44.0625 L 39.78125 43.125 L 42.46875 42.625 L 46.4375 41.1875 L 48.53125 40.84375 C 48.997087 41.309585 50.729328 40.19039 52.03125 39.21875 C 51.406738 39.793806 53.030026 38.7395 53.5 39.34375 C 54.089442 40.10161 53.499072 39.32728 54.59375 38.90625 C 54.867418 38.800992 55.019082 38.752631 55.0625 38.75 z M 87.0625 38.90625 C 87.811702 38.912519 89.068041 39.38597 89.84375 39.5 C 90.576903 39.60778 92.312731 40.66431 91.59375 40.84375 C 90.638954 41.08205 89.679884 41.08999 88.84375 40.6875 C 88.299198 40.42536 88.934868 40.32748 86.5 39.09375 C 86.599795 38.95773 86.812766 38.90416 87.0625 38.90625 z M 45.8125 39.28125 C 45.8125 39.28125 47.133235 39.96314 47.34375 39.5 C 47.554265 39.03687 48.474629 39.35182 48.59375 39.75 C 48.684767 40.05424 47.90625 40.18488 47.90625 40.4375 C 47.90625 40.69012 46.435552 40.46522 45.75 40.6875 C 44.847508 40.98012 43.575971 41.68357 43.28125 42.0625 C 42.986529 42.44142 41.59375 42.1875 41.59375 42.1875 C 41.59375 42.1875 42.297339 41.01778 41.75 41.3125 C 41.202661 41.60722 40.0625 42.5 40.0625 42.5 L 42.71875 40.09375 C 42.71875 40.09375 44.100676 39.84637 44.4375 39.59375 C 44.774324 39.34113 45.8125 39.28125 45.8125 39.28125 z M 57.6875 40.625 C 57.923094 40.645858 58.11875 40.788114 58.25 40.96875 C 58.442588 41.2338 58.09375 41.9375 58.09375 41.9375 C 58.028425 42.31312 57.13585 41.35891 57.09375 41.90625 C 57.051647 42.45358 54.9375 42.4375 54.9375 42.4375 C 54.9375 42.4375 55.278809 41.13127 55.8125 40.8125 C 56.173961 40.5966 56.630617 41.14932 57.09375 40.8125 C 57.209533 40.728293 57.323499 40.681339 57.4375 40.65625 C 57.523001 40.637434 57.608969 40.618047 57.6875 40.625 z M 99.90625 45.21875 C 100.07992 45.197698 100.25 45.21875 100.25 45.21875 C 100.25 45.21875 103.56119 49.65102 103.6875 50.15625 C 103.81381 50.66149 103.21744 50.32466 103.34375 50.15625 C 103.47006 49.98784 101.875 48.04472 101.875 47.75 C 101.875 47.45528 101.25393 47.88455 100.875 47.96875 C 100.49607 48.05295 99.48915 45.80557 99.53125 45.46875 C 99.552302 45.30034 99.732576 45.239802 99.90625 45.21875 z M 96.75 45.625 C 96.849995 45.619737 97.007581 45.62435 97.28125 45.6875 C 97.828593 45.81381 97.24869 46.01647 97.375 46.4375 C 97.501308 46.85853 97.600677 46.35067 97.9375 46.6875 C 98.274326 47.02432 97.875 47.28125 97.875 47.28125 C 97.875 47.28125 99.682267 49.54772 100.1875 49.96875 C 100.69273 50.38978 100.28125 50.75 100.28125 50.75 C 100.28125 50.75 100.244 50.93881 98.8125 50.8125 C 97.380997 50.68619 98.30296 50.90064 98.21875 50.4375 C 98.134545 49.97437 98.308573 50.46051 98.6875 50.25 C 99.066426 50.03948 98.14671 49.94405 98.0625 49.3125 C 97.978294 48.68095 98.059882 49.08814 98.3125 48.625 C 98.565119 48.16187 97.972677 48.26609 97.59375 47.71875 C 97.214824 47.17141 97.680575 47.46444 97.34375 46.875 C 97.006927 46.28556 96.855912 46.7921 96.6875 46.75 C 96.51909 46.7079 96.625 45.65625 96.625 45.65625 C 96.625 45.65625 96.650005 45.630263 96.75 45.625 z M 96.09375 47.25 C 96.183219 47.234211 96.371072 47.280595 96.75 47.34375 C 97.507852 47.47006 97.366765 47.92272 97.15625 48.34375 C 96.945731 48.76478 97.304265 48.80727 97.09375 49.3125 C 96.883235 49.81774 96.276943 49.45097 95.6875 49.15625 C 95.098059 48.86153 95.561192 48.80558 95.6875 48.46875 C 95.81381 48.13193 95.40625 47.71875 95.40625 47.71875 C 95.40625 47.71875 95.9579 47.72137 96 47.46875 C 96.021051 47.34244 96.004281 47.265789 96.09375 47.25 z M 101.96875 48.75 C 102.22137 48.79211 102.5 50.12238 102.5 50.375 C 102.5 50.62762 103.81157 51.36022 104.90625 51.78125 C 106.00093 52.20228 109.63585 62.61284 109.59375 62.78125 C 109.55165 62.94966 108.36676 59.82205 108.15625 59.90625 C 107.94573 59.99045 108.64801 61.93881 108.4375 61.8125 C 108.22699 61.68619 107.70228 59.87724 107.28125 58.65625 C 106.86022 57.43526 106.79865 58.39502 106.125 57.46875 C 105.45136 56.54249 105.79734 56.32859 105.25 55.78125 C 104.70266 55.23392 105.05295 55.79902 104.96875 56.09375 C 104.88455 56.38847 107.44143 59.63455 107.0625 59.71875 C 106.68357 59.80296 104.52432 56.16841 104.1875 56 C 103.85067 55.83159 103.94012 56.24738 103.6875 56.5 C 103.43488 56.75261 103.31511 56.44012 103.0625 56.1875 C 102.80988 55.93488 102.47005 56.00824 102.34375 56.21875 C 102.21744 56.42927 102.5 56.96875 102.5 56.96875 C 102.5 56.96875 101.76347 57.35892 101.46875 57.90625 C 101.17403 58.45359 101.41449 57.97306 101.625 58.5625 C 101.83552 59.15194 101.23484 59.36022 100.6875 59.78125 C 100.14016 60.20228 100.23353 59.58158 99.8125 59.75 C 99.39147 59.91841 99.59375 60.1875 99.59375 60.1875 C 99.59375 60.1875 99.497002 60.16542 98.78125 59.28125 C 98.065499 58.39709 98.065118 59.15063 97.8125 58.6875 C 97.559879 58.22437 97.549029 58.11938 97.84375 57.65625 C 98.138472 57.19311 97.09375 56.2015 97.09375 55.03125 C 97.09375 54.84272 99.425718 54.86415 100.5625 55.375 C 101.62469 55.85234 99.769086 53.57467 99.9375 53.40625 C 100.10591 53.23784 99.07597 52.38024 98.78125 51.875 C 98.486529 51.36976 99.117146 51.88455 99.875 51.96875 C 100.63285 52.05296 99.343382 51.58935 99.46875 51.40625 C 99.672602 51.10854 99.815495 51.61415 100.53125 51.65625 C 101.247 51.69835 100.65363 51.25131 100.90625 51.125 C 101.15887 50.99869 101.46875 50.6875 101.46875 50.6875 L 101.53125 50.3125 C 101.53125 50.3125 102.2908 50.49177 102.375 50.28125 C 102.4592 50.07074 101.96875 49.4375 101.96875 49.4375 C 101.96875 49.4375 101.71613 48.7079 101.96875 48.75 z M 74.65625 50.9375 C 74.69879 50.947835 74.716926 51.009689 74.6875 51.15625 C 74.508707 52.04678 74.984674 53.54657 75.59375 52.9375 C 75.59375 52.9375 76.650634 52.89709 76.1875 53.78125 C 75.724367 54.66541 76.0625 54.125 76.0625 54.125 C 76.0625 54.125 77.245693 54.20395 76.65625 54.625 C 76.066808 55.04601 75.875 54.3125 75.875 54.3125 C 75.875 54.3125 75.494383 54.75 75.03125 54.75 C 74.568117 54.75 75.3125 54.125 75.3125 54.125 C 75.3125 54.125 72.604604 54.44143 72.5625 54.0625 C 72.525662 53.730928 74.358473 50.865153 74.65625 50.9375 z M 71.625 54.5625 C 71.674727 54.551906 71.736634 54.5524 71.78125 54.5625 C 72.039509 54.62099 72.293882 55.00751 72.1875 55.25 C 72.003932 55.66843 70.84375 55.5 70.84375 55.5 L 70.84375 55.15625 C 70.84375 55.15625 71.276911 54.636658 71.625 54.5625 z M 104.40625 57.0625 L 104.625 57.6875 L 104.375 57.59375 L 104.40625 57.0625 z M 104.53125 58.15625 L 104.90625 58.15625 L 105.09375 59.25 L 104.65625 59.28125 L 104.53125 58.15625 z M 106.8125 59.875 L 107.1875 60.25 L 106.90625 60.96875 L 106.21875 60.34375 L 107.03125 60.4375 L 106.8125 59.875 z M 99.59375 60.25 C 99.59375 60.25 99.325038 60.71875 100.125 60.71875 C 100.92495 60.71875 101.53556 60.60592 102.125 60.4375 C 102.71444 60.26909 105.45659 60.14016 105.625 60.6875 C 105.79341 61.23484 106.17927 61.59113 105.96875 61.84375 C 105.75824 62.09636 105.17142 61.7326 105.71875 62.40625 C 106.26609 63.07989 107.53125 63.58028 107.53125 63.875 C 107.53125 64.16972 107.19181 63.90925 107.78125 64.625 C 108.37069 65.34076 108.52995 65.97399 108.65625 65.46875 C 108.78256 64.96352 108.26778 64.48222 108.5625 64.1875 C 108.85722 63.89278 109.16579 64.17272 109.25 64.59375 C 109.3342 65.01478 110.4375 66.15625 110.4375 66.15625 C 112.83645 85.63469 104.90173 96.33495 103.8125 97.53125 C 103.8125 97.53125 104.58158 96.33775 104.75 94.90625 C 104.91841 93.47475 103.86583 93.20842 104.75 91.1875 C 105.63416 89.16655 106.14277 88.90156 106.4375 87.34375 C 106.73222 85.78594 105.70789 84.50654 105.75 83.875 C 105.7921 83.24345 106.55557 81.71706 106.21875 80.875 C 105.88193 80.03294 105.9562 79.42272 105.15625 79.84375 C 104.35629 80.26478 105.53741 78.53686 103.9375 79 C 102.33759 79.46313 102.80819 80.50262 102.21875 80.25 C 101.6293 79.99738 101.92496 80.00131 101.125 79.875 C 100.32504 79.74869 99.47006 79.99738 99.34375 80.25 C 99.217441 80.50262 96.658868 79.00093 96.40625 77.90625 C 96.153632 76.81157 94.762161 75.55296 94.59375 75.46875 C 94.425338 75.38455 94.21875 73.9375 94.21875 73.9375 C 94.21875 73.9375 95.225294 70.52001 94.59375 69.59375 C 93.962205 68.66748 97.65625 64.46875 97.65625 64.46875 C 97.65625 64.46875 98.167101 63.83121 98.125 63.03125 C 98.0829 62.23129 98.254309 62.18712 98.84375 61.21875 C 99.433193 60.25038 99.59375 60.25 99.59375 60.25 z M 55.96875 72.90625 C 56.491419 72.878046 57.612538 73.21087 58.3125 73.46875 C 59.112457 73.76348 61.5 75.16448 61.5 75.375 C 61.5 75.58551 59.73353 75.5421 59.3125 75.5 C 58.89147 75.45789 59.349367 75.36677 59.8125 75.15625 C 60.275633 74.94574 59.195052 74.47805 58.78125 74.28125 C 58.174749 73.99282 57.707516 74.15887 56.78125 73.90625 C 55.854984 73.65364 56.45921 73.65887 56.375 73.40625 C 56.290794 73.15363 54.65625 73.9375 54.65625 73.9375 C 54.487838 73.76909 55.402323 73.10592 55.78125 72.9375 C 55.828616 72.916449 55.894083 72.910279 55.96875 72.90625 z M 63.8125 75.46875 C 64.017157 75.468463 64.20976 75.48366 64.375 75.53125 C 64.846823 75.66714 65.719036 75.83059 65.625 76.3125 C 65.53795 76.75864 64.689737 76.30058 64.28125 76.5 C 64.004643 76.63501 63.927319 77.06719 63.625 77.125 C 63.136084 77.2185 62.513471 76.59375 62.21875 76.59375 C 62.386403 76.56662 62.89043 76.49238 62.9375 76.3125 C 62.991922 76.104543 62.539492 75.682188 62.3125 75.5 C 62.501964 75.626307 63.198528 75.469611 63.8125 75.46875 z M 66.84375 76.28125 C 67.097017 76.238611 67.382358 76.33521 67.5625 76.5 C 67.65798 76.58733 67.74089 76.7771 67.65625 76.875 C 67.407703 77.16241 66.729868 77.11505 66.5 76.8125 C 66.413419 76.69854 66.477419 76.4584 66.59375 76.375 C 66.659896 76.327593 66.759328 76.295463 66.84375 76.28125 z M 58.8125 76.46875 C 58.8125 76.46875 59.401138 76.4874 59.6875 76.5625 C 59.954894 76.63266 60.47328 76.60088 60.4375 76.875 C 60.391514 77.22733 59.744267 77.17203 59.40625 77.0625 C 59.141917 76.97684 58.8125 76.46875 58.8125 76.46875 z M 59.53125 84.34375 C 59.662822 84.333226 59.79145 84.383235 59.8125 84.59375 C 59.854603 85.01478 59.858911 85.59937 60.40625 86.0625 C 60.953585 86.52563 60.39671 86.01047 60.3125 85 C 60.228294 83.98952 60.364528 84.89933 61.375 84.5625 C 62.385472 84.22568 62.123691 84.55857 62.25 84.9375 C 62.376309 85.31642 64.036867 84.90233 64.5 85.28125 C 64.963133 85.66018 66.134925 85.06943 67.1875 85.40625 C 68.240075 85.74308 66.992527 86.45528 68.71875 86.75 C 70.444973 87.04472 68.956969 88.59637 70.09375 88.34375 C 71.230531 88.09113 73.539485 89.19705 73.75 89.28125 C 73.960516 89.36546 74.37631 89.27601 74.25 89.78125 C 74.123692 90.28648 74.429646 90.42964 75.1875 91.1875 C 75.945355 91.94535 75.245311 91.46913 73.6875 92.4375 C 72.129689 93.40584 73.621074 92.6823 74 93.1875 C 74.378928 93.6925 75.225677 93.34115 75.5625 93.59375 C 75.899325 93.84645 76.267778 92.85723 76.5625 92.5625 C 76.857221 92.26778 78.4375 93.1875 78.4375 93.1875 L 78.71875 93.9375 C 78.71875 93.9375 79.444425 93.36145 79.78125 93.65625 C 80.118073 93.95105 81.892779 93.58975 82.1875 93.96875 C 82.482222 94.34765 83.28125 94.9375 83.28125 94.9375 C 83.28089 94.9384 83.608583 94.7688 84.40625 95.125 C 85.527074 95.6255 84.4375 96.8125 84.4375 96.8125 C 84.131617 96.3298 81.770087 99.28555 81.59375 101.53125 C 81.50956 102.60345 80.194412 104.7409 79.21875 105.0625 C 78.253747 105.3805 76.490863 105.114 75.3125 106.1875 C 74.731058 106.7172 75.09375 107.625 75.09375 107.625 C 75.09375 107.625 73.071213 110.4076 71.53125 110.9375 C 70.758699 111.2033 69.09375 110.75 69.09375 110.75 C 69.09375 110.75 70.001407 111.7576 69.75 112.25 C 69.071623 113.5787 66.446501 112.1495 65.375 113.1875 C 64.866464 113.6802 65.382404 114.7562 64.875 115.25 C 64.113511 115.9906 62.737613 116.29825 61.75 115.90625 C 61.243436 115.70525 60.576316 115.0374 60.84375 114.5625 C 61.721448 113.0041 60.75103 111.82825 60.625 111.90625 C 59.869627 112.37105 61.484446 110.1497 61.625 109.1875 C 61.944122 107.0028 62.343698 104.4623 61.21875 102.5625 C 60.524424 101.3899 58.719288 101.3329 57.75 100.375 C 56.48741 99.1274 55.755334 97.42935 54.84375 95.90625 C 54.58893 95.48055 54.10357 95.1207 54.125 94.625 C 54.149038 94.0689 55.376067 93.67865 55.0625 93.21875 C 54.876411 92.94585 54.327177 93.6713 54.09375 93.4375 C 53.768891 93.1123 54.172298 92.50637 54.375 92.09375 C 54.87574 91.07445 56.391211 90.5862 56.59375 89.46875 C 56.729118 88.7219 55.701051 88.09455 55.8125 87.34375 C 55.899465 86.75789 56.439114 86.30724 56.875 85.90625 C 57.565859 85.2707 59.28125 84.4375 59.28125 84.4375 C 59.28125 84.4375 59.399678 84.354274 59.53125 84.34375 z "
       style="opacity:0.75000000000000000;fill:#ffffff;fill-opacity:0.47488588;stroke:none" />
    <g
       id="g3977"
       transform="matrix(0.27961982,0,0,0.27961982,45.544666,567.79134)"
       style="fill:#e3f2c6;fill-opacity:1;stroke:none">
      <path
         sodipodi:nodetypes="ccacccccccsssssssssaaaccacaaasaacscsscsssssscascaasccacaaccascscscssccccscccscsssssssscsscssssssssscccccc"
         transform="translate(0,907.36218)"
         inkscape:connector-curvature="0"
         id="path3911"
         d="m -138.89598,437.94424 4.54569,-3.03046 c 0,0 1.15964,0.31894 1.51523,0.75761 3.77994,4.66318 4.54431,12.88083 4.54569,17.42514 l 2.52538,0.50507 c 2.64408,0.0799 4.57217,3.73983 6.56599,7.07107 -0.40268,2.79613 -0.85199,5.54564 -4.54569,5.05076 -7.39823,19.46076 -4.71901,25.48492 -4.54568,34.85027 3.03896,13.10222 8.44938,17.90433 14.14213,21.71828 9.93165,47.06034 11.78511,26.26397 17.677672,39.39595 4.521952,0 -11.770982,-24.62398 -11.111682,-33.84012 0.10878,-1.52067 3.25761,-0.31046 4.54569,0.50508 10.026998,6.34854 13.826717,19.47802 18.687822,30.30458 2.159907,4.8105 1.27902,11.01284 4.545687,15.15229 7.477421,9.47522 19.454227,15.94219 31.314729,18.18274 2.175928,0.41105 4.452364,-1.67061 6.565991,-1.01015 4.205819,1.31422 5.716484,7.00284 9.59645,9.09137 4.566841,2.45826 10.619075,1.0158 15.152288,3.53554 4.37026,2.42916 7.125023,7.01792 10.6066015,10.6066 2.7367808,2.82097 4.9074527,6.26788 8.0812203,8.58629 3.4660414,2.53192 7.3724093,6.19582 11.6167542,5.55584 2.945276,-0.4441 3.590014,-6.18512 6.565992,-6.06091 2.738296,0.11429 5.555839,6.06091 5.555839,6.06091 l 3.535534,-0.50507 c 0,0 -5.400232,-7.68308 -9.59645,-8.5863 -3.279416,-0.70588 -9.5964488,3.03046 -9.5964488,3.03046 0,0 -6.9341809,-4.8912 -8.5862967,-8.5863 C -1.4675435,608.1692 4.2068186,599.90419 0,595.52804 c -4.9225739,-5.12072 -17.300039,3.90765 -21.213203,-2.02031 -4.575918,-6.93195 -0.01245,-12.33685 7.576144,-23.73858 2.240704,-3.36662 -8.811858,-1.8185 -12.121831,0.50507 -3.275373,2.29928 -1.223153,8.88109 -4.545686,11.11168 -3.77406,2.53372 -13.63706,0 -13.63706,0 0,0 -17.677669,-7.57614 -10.101525,-32.32488 7.576144,-24.74874 25.75889,-14.64721 25.75889,-14.64721 0,0 5.050762,6.06091 6.565991,0 1.515229,-6.06092 1.515229,-7.07107 7.576144,-6.06092 6.0609156,1.01015 18.1827462,2.52538 18.1827462,2.52538 0,0 0.5050763,6.56599 3.0304576,11.11168 2.5253814,4.54569 3.5355342,11.11168 5.0507632,11.61675 1.515228,0.50508 6.060915,-2.52538 2.020305,-12.12183 -4.040611,-9.59644 -1.010153,-2.0203 -4.040611,-12.6269 -3.0304572,-10.6066 16.271611,-15.27645 23.233509,-23.23351 3.956951,-4.52257 -5.050763,-12.62691 -3.535534,-17.67767 1.515229,-5.05076 23.233509,-12.62691 23.233509,-12.62691 0,0 4.11363,0.42847 5.050762,-1.01015 1.69443,-2.60117 -8.586296,0 -2.020305,-9.09137 6.565992,-9.09138 15.152288,-4.54569 15.152288,-4.54569 0,0 6.108842,-5.14979 9.59645,-4.54569 0.938409,0.16255 2.160481,1.0783 2.020305,2.02031 -0.421256,2.83093 -6.802213,2.64345 -7.576144,4.04061 -1.257852,2.27077 1.606263,4.72314 2.020305,4.54569 4.142012,0.37747 4.659134,-2.50746 5.555839,-5.05077 4.93118,-2.93605 8.656001,-0.13453 11.237947,-3.03045 0.566471,-0.63536 0.378807,-2.52539 0.378807,-2.52539 0,0 6.980157,0.99456 8.081217,-1.51522 0.63809,-1.45448 -0.97632,-3.68976 -2.52538,-4.04061 -2.140902,-0.4849 -5.555837,3.53553 -5.555837,3.53553 l 0,2.52538 c 0,0 -2.30508,-1.15471 -3.535534,-1.51523 -2.948312,-0.86385 -7.576144,3.03046 -9.091373,-1.51523 -1.515229,-4.54568 -4.545686,-8.08122 -4.545686,-8.08122 0,0 -6.060916,2.52538 -5.555839,-1.01015 0.505076,-3.53553 8.586296,0.50508 8.586296,0.50508 0,0 4.040611,-2.02031 3.030458,-3.53554 -1.010153,-1.51523 -8.08122,-1.51523 -8.08122,-1.51523 0,0 -18.182746,4.04061 -18.687822,10.60661 -0.505077,6.56599 -4.040611,-8.5863 13.131983,-14.14214 17.172593,-5.55584 24.748737,-1.01015 24.748737,-1.01015 l 10.606597,-6.06092 9.59645,-1.51523 0.50508,-6.56599 c 0,0 -3.53553,-4.54569 -7.57614,-4.04061 -4.04061,0.50508 -10.101529,1.01015 -10.101529,1.01015 l 8.586299,-4.54568 c -6.255081,-2.30541 -13.866145,-1.89886 -17.677672,-9.09138 0,0 7.156595,0.98779 4.04061,-5.05076 -2.577667,-4.99533 -2.983956,-13.14044 -14.142136,-11.11168 0,0 -0.505076,8.5863 -6.565991,8.5863 -6.060916,0 -14.647212,-1.01015 -12.626907,-4.04061 2.020305,-3.03046 13.637059,-5.05076 3.535534,-9.59645 -10.101526,-4.54569 -16.667517,-1.01015 -24.748738,-3.53553 -8.08122,-2.52538 -8.586296,-0.50508 -7.071067,5.55584 1.515228,6.06091 3.030457,4.04061 0.505076,6.56599 -2.525381,2.52538 -0.129311,5.80268 2.525381,8.58629 3.371794,3.53554 2.947768,9.59645 -5.050762,13.63706 -6.881438,3.47629 -7.071068,2.52538 -7.071068,2.52538 0,0 6.565991,2.02031 4.545686,7.07107 -2.020305,5.05077 -0.505076,16.16244 -7.576144,10.10153 -7.071068,-6.06092 -8.08122,-18.68782 -8.08122,-18.68782 0,0 -21.213204,0 -27.779195,-7.07107 -6.565992,-7.07107 -15.657365,-2.52538 -14.142136,-7.57615 1.515229,-5.05076 12.121831,-22.72843 20.708127,-24.24366 8.5862969,-1.51523 9.5964495,-0.50507 9.5964495,-3.53553 0,-3.03046 0.50507623,-5.55584 2.020305,-7.07107 1.5152289,-1.51523 -4.5456864,-1.51523 -4.5456864,-5.05076 0,-3.53554 7.0710678,-6.56599 0.5050763,-4.04061 -6.5659916,2.52538 -3.0304577,7.07107 -6.5659916,2.52538 -3.5355338,-4.54569 -19.0331818,7.6718 -3.5355338,-5.05076 15.5328316,-12.75145 -20.675693,19.7304 -26.263966,14.14213 l -12.626907,2.02031 -23.738585,8.58629 -16.162441,3.03046 -7.071067,5.55584 c -18.278581,13.84894 -27.882151,32.90288 -39.901031,50.50763 z"
         style="fill:#e3f2c6;fill-opacity:1;stroke:none" />
      <path
         sodipodi:nodetypes="scscscscss"
         inkscape:connector-curvature="0"
         id="path3913"
         d="m 117.43023,1337.4777 c -1.07242,5.3415 1.90254,14.2599 5.55584,10.6066 0,0 6.31345,-0.2525 3.53553,5.0508 -2.77792,5.3033 -0.75761,2.0203 -0.75761,2.0203 0,0 7.07107,0.5051 3.53553,3.0305 -3.53553,2.5253 -4.79822,-1.7678 -4.79822,-1.7678 0,0 -2.27284,2.5254 -5.05076,2.5254 -2.77792,0 1.76776,-3.7881 1.76776,-3.7881 0,0 -16.16244,2.0203 -16.41498,-0.2525 -0.25253,-2.2729 14.03889,-24.4579 12.62691,-17.4252 z"
         style="fill:#e3f2c6;fill-opacity:1;stroke:none" />
      <path
         sodipodi:nodetypes="csssssssassasasassssasaaaaaasc"
         transform="translate(0,907.36218)"
         inkscape:connector-curvature="0"
         id="path3921"
         d="m 72.478445,318.74624 c 3.030458,0 19.697975,-0.75762 20.455589,0.75761 0.757615,1.51523 11.111676,7.07107 9.848986,8.5863 -1.26269,1.51523 -4.293147,2.27284 -2.0203,3.28299 2.27284,1.01016 1.26269,-2.27284 6.31345,-1.01015 5.05076,1.26269 3.53553,0.50508 6.06092,3.283 2.52538,2.77792 1.51522,2.52538 2.0203,4.79822 0.50508,2.27285 3.53553,4.04061 -0.25254,4.54569 -3.78807,0.50508 -5.58556,-0.61507 -7.07107,1.26269 -0.94155,1.19017 -0.79054,3.44343 0.25254,4.54569 1.04789,1.10734 3.283,1.76776 4.54569,0.50507 1.26269,-1.26269 -2.14549,3.41575 -2.02031,5.3033 0.15204,2.29262 1.05621,5.4947 3.283,6.06092 1.94606,0.49484 3.42338,-4.45929 5.05076,-3.283 1.34038,0.96884 -0.25254,4.04061 -1.26269,4.79823 -1.01015,0.75761 3.66367,1.11844 4.79823,2.52538 0.98717,1.22416 0.1302,3.45457 1.26269,4.54569 1.30862,1.26082 3.61152,0.59935 5.3033,1.26269 3.50921,1.37595 4.04061,5.05076 9.84899,5.55583 5.80837,0.50508 5.66415,-2.7359 8.33375,-1.76776 2.81796,1.02194 2.65026,6.33429 5.55584,7.07107 3.28928,0.83407 7.44606,-1.22757 9.34391,-4.04061 1.93085,-2.86195 0.58738,-6.91796 0.25254,-10.35407 -0.30109,-3.08975 -3.57888,-6.4066 -2.0203,-9.09137 1.85813,-3.20077 7.31637,-1.58833 10.6066,-3.283 3.95146,-2.03524 6.4113,-6.61299 10.6066,-8.08122 3.57632,-1.2516 9.18303,2.84569 11.36422,-0.25254 1.07268,-1.52367 -0.56901,-3.8767 -1.76777,-5.3033 -3.87687,-4.61373 -11.34306,-4.49003 -15.9099,-8.58629 C 145.6042,305.78203 50.611983,311.48349 72.478445,318.74624 z"
         style="fill:#e3f2c6;fill-opacity:1;stroke:none" />
      <path
         sodipodi:nodetypes="csssc"
         transform="translate(0,907.36218)"
         inkscape:connector-curvature="0"
         id="path3925"
         d="m 188.39345,357.63711 c 2.39432,-3.26346 13.7468,1.61341 19.95051,2.52538 4.39753,0.64646 14.91912,7.0049 10.6066,8.08122 -5.72697,1.42934 -11.65229,1.40404 -16.66751,-1.01015 -3.26628,-1.5723 0.71499,-2.19642 -13.8896,-9.59645 z"
         style="fill:#e3f2c6;fill-opacity:1;stroke:none" />
      <path
         sodipodi:nodetypes="sssasssssssssassassssacssaaaasscss"
         transform="translate(0,907.36218)"
         inkscape:connector-curvature="0"
         id="path3927"
         d="m 32.072343,370.01148 c 0.614463,5.09874 11.111678,1.76777 15.404827,-0.25254 4.293148,-2.0203 5.294224,4.17462 8.333758,5.55584 5.558746,2.526 14.821206,10.19461 17.67767,4.79823 1.815408,-3.42964 -9.848988,-6.31346 -8.838835,-7.57615 1.010153,-1.26269 14.394674,2.52538 14.394674,4.04061 0,1.51523 4.293148,-1.51523 0,-5.80838 -4.293149,-4.29314 -11.616755,-6.06091 -10.354064,-8.08122 1.262691,-2.0203 1.632934,-3.52493 3.282996,-3.78807 4.362488,-0.69571 10.354064,9.34391 11.364216,6.81853 1.010153,-2.52538 12.121831,-3.28299 8.838835,-6.06091 -3.282996,-2.77792 -26.011428,-4.54569 -25.506352,-7.82869 0.505076,-3.28299 8.08122,-6.56599 3.282996,-6.56599 -4.798225,0 -16.710897,0.56014 -23.486047,-3.53553 -1.340009,-0.81005 2.272843,-3.03046 -2.777919,-3.78807 -5.050763,-0.75762 -10.354064,2.52538 -11.869293,2.52538 -1.515229,0 -5.037767,2.18728 -6.313453,0.50507 -1.029935,-1.35814 3.535534,-3.78807 1.767767,-4.79822 -1.767767,-1.01015 -16.162441,2.27284 -15.404827,5.3033 0.757615,3.03046 4.040611,1.26269 2.020306,3.53553 -2.020306,2.27285 -5.3033014,3.283 -5.3033014,1.01016 0,-2.27285 -1.1979494,-2.63099 -1.2626906,-4.04061 -0.055297,-1.204 0.7576144,-3.53554 0.7576144,-3.53554 0,0 -13.3845213,5.3033 -11.3642162,7.32361 2.0203051,2.0203 0.00478,3.72448 1.2626907,4.79822 0.6434555,0.54924 1.68029131,0.2916 2.52538137,0.25254 3.08392243,-0.14255 6.01358643,-1.52667 9.09137293,-1.76777 4.7026448,-0.36838 9.5811828,1.70852 14.1421358,0.50508 2.484842,-0.65564 4.007031,-3.8039 6.565991,-4.04061 4.669994,-0.43199 13.63706,3.78807 13.131983,5.05076 -0.505076,1.26269 9.59645,2.27285 6.565992,6.31346 -3.030458,4.04061 -4.293148,8.33376 -4.293148,8.33376 0,0 2.272843,2.52538 -2.525382,2.27284 -4.798224,-0.25254 -11.566139,-1.24568 -11.111678,2.52538 z"
         style="fill:#e3f2c6;fill-opacity:1;stroke:none" />
      <path
         sodipodi:nodetypes="cscsassscscc"
         transform="translate(0,907.36218)"
         inkscape:connector-curvature="0"
         id="path3929"
         d="m -90.156115,378.0927 c 0,0 6.81853,-5.3033 10.101526,-7.07107 3.282995,-1.76776 -1.010153,5.3033 -1.010153,5.3033 0,0 8.333759,1.51523 10.101526,-0.75761 1.767767,-2.27284 9.486509,-6.57859 14.89975,-8.33376 4.112012,-1.33326 12.879445,0 12.879445,-1.51523 0,-1.51523 4.58654,-2.21576 4.04061,-4.04061 -0.7145,-2.38832 -6.060915,-4.29315 -7.323606,-1.51523 -1.262691,2.77792 -9.343911,-1.26269 -9.343911,-1.26269 0,0 -6.060915,0.25254 -8.081221,1.76777 -2.020305,1.51523 -10.354063,3.03046 -10.354063,3.03046 z"
         style="fill:#e3f2c6;fill-opacity:1;stroke:none" />
      <path
         sodipodi:nodetypes="scssass"
         transform="translate(0,907.36218)"
         inkscape:connector-curvature="0"
         id="path3931"
         d="m 4.2931483,367.99117 c -3.2011332,1.91202 -5.3033008,9.84899 -5.3033008,9.84899 0,0 12.6269065,0 12.8794445,-3.28299 0.252539,-3.283 5.669088,2.50554 6.060916,0.25253 0,0 2.165315,-4.21854 1.010152,-5.80837 -1.399557,-1.92618 -4.293148,-3.03046 -7.071068,-1.01016 -2.7779191,2.02031 -5.4080633,-1.29498 -7.5761437,0 z"
         style="fill:#e3f2c6;fill-opacity:1;stroke:none" />
      <path
         transform="translate(0,907.36218)"
         inkscape:connector-curvature="0"
         id="path3933"
         d="m 70.205602,312.43278 c 0,0 -35.607877,11.11168 -36.61803,15.90991 -1.010152,4.79822 -29.0418855,2.52538 -29.0418855,2.52538 L 25.75889,316.72593 z"
         style="fill:#e3f2c6;fill-opacity:1;stroke:none" />
      <path
         sodipodi:nodetypes="cccc"
         transform="translate(0,907.36218)"
         inkscape:connector-curvature="0"
         id="path3935"
         d="m 12.879445,320.76654 -25.75889,9.59645 8.3337585,-0.75761 C 13.195689,326.6591 7.1564917,323.71282 12.879445,320.76654 z"
         style="fill:#e3f2c6;fill-opacity:1;stroke:none" />
      <path
         sodipodi:nodetypes="cccc"
         transform="translate(0,907.36218)"
         inkscape:connector-curvature="0"
         id="path3937"
         d="m -23.486047,336.67645 c -10.578936,0.86416 -6.615692,4.63676 -8.08122,7.3236 2.862099,-1.09726 11.532575,-4.92029 14.394674,-9.09137 z"
         style="fill:#e3f2c6;fill-opacity:1;stroke:none" />
      <path
         sodipodi:nodetypes="cccc"
         transform="translate(0,907.36218)"
         inkscape:connector-curvature="0"
         id="path3939"
         d="m -7.0710678,333.89853 0.2525381,4.29314 c 8.3887343,0.82233 11.5198731,-1.86041 16.1624408,-3.53553 -5.4640629,-0.26773 -9.67823141,-3.03525 -16.4149789,-0.75761 z"
         style="fill:#e3f2c6;fill-opacity:1;stroke:none" />
      <path
         sodipodi:nodetypes="cccc"
         transform="translate(0,907.36218)"
         inkscape:connector-curvature="0"
         id="path3941"
         d="m -18.182746,346.77797 0.505076,2.02031 c 7.264716,0.53036 9.9675312,-3.50117 12.6269073,-7.57615 -4.5656815,1.00435 -9.7908553,-0.95901 -13.1319833,5.55584 z"
         style="fill:#e3f2c6;fill-opacity:1;stroke:none" />
      <path
         sodipodi:nodetypes="ccccccc"
         transform="translate(0,907.36218)"
         inkscape:connector-curvature="0"
         id="path3943"
         d="m -22.98097,347.28305 c -0.233708,1.93236 1.262655,3.5187 -2.020306,6.06091 -2.311284,0.97171 -4.700696,1.8653 -8.333758,1.51523 -1.880275,-0.0267 -4.042668,1.35716 -5.303301,-1.76777 l 1.010153,-3.53553 c 4.751766,-0.76635 9.303605,-1.93256 13.384521,-4.04061 z"
         style="fill:#e3f2c6;fill-opacity:1;stroke:none" />
      <path
         sodipodi:nodetypes="sccss"
         transform="translate(0,907.36218)"
         inkscape:connector-curvature="0"
         id="path3945"
         d="m 8.8388348,352.58635 c 2.1577692,2.17026 -7.061168,12.12183 -7.8286823,12.12183 7.6981973,-2.37866 14.6420545,-4.32628 17.6776695,-4.04061 0,0 3.959465,-5.17617 2.525381,-7.32361 -2.295028,-3.43664 -15.2880508,-3.68816 -12.3743682,-0.75761 z"
         style="fill:#e3f2c6;fill-opacity:1;stroke:none" />
      <path
         sodipodi:nodetypes="ccccc"
         transform="translate(0,907.36218)"
         inkscape:connector-curvature="0"
         id="path3947"
         d="m -42.931483,346.27289 -17.930208,8.83884 -5.050763,3.283 c 5.724198,-1.68359 16.164411,-4.15318 17.172594,-5.05077 2.41506,-2.83596 4.031278,-4.87307 5.808377,-7.07107 z"
         style="fill:#e3f2c6;fill-opacity:1;stroke:none" />
      <path
         sodipodi:nodetypes="cssasssssc"
         transform="translate(0,907.36218)"
         inkscape:connector-curvature="0"
         id="path3949"
         d="m -2.7779195,566.73869 c 0,0 9.8489873,-4.79823 10.3540636,-3.283 0.5050763,1.51523 -3.0304576,1.51523 2.5253809,3.03046 5.555839,1.51523 8.231438,0.54271 11.869293,2.27284 2.482025,1.18043 9.091373,4.04061 6.313453,5.3033 -2.777919,1.26269 -5.555839,1.76777 -3.030457,2.02031 2.525381,0.25254 13.131983,0.50508 13.131983,-0.75762 0,-1.26269 -14.394674,-9.59644 -19.192899,-11.36421 -4.798224,-1.76777 -12.8794446,-4.29315 -15.1522878,-3.283 -2.2728432,1.01016 -7.8286822,5.05077 -6.8185297,6.06092 z"
         style="fill:#e3f2c6;fill-opacity:1;stroke:none" />
      <path
         sodipodi:nodetypes="saaassas"
         transform="translate(0,907.36218)"
         inkscape:connector-curvature="0"
         id="path3951"
         d="m 43.184021,576.0826 c 1.515229,1.01015 8.409862,-0.88924 12.374369,0.25254 2.830044,0.81505 8.140186,1.65512 7.576144,4.54568 -0.522166,2.67595 -5.631072,0.0668 -8.08122,1.26269 -1.659119,0.8098 -2.227266,3.44133 -4.04061,3.78808 -2.932566,0.56077 -6.565992,-3.283 -8.333759,-3.283 -1.767767,0 3.901347,-0.27057 4.293148,-1.76777 0.515889,-1.97138 -7.220822,-7.08671 -3.788072,-4.79822 z"
         style="fill:#e3f2c6;fill-opacity:1;stroke:none" />
      <path
         sodipodi:nodetypes="sssss"
         transform="translate(0,907.36218)"
         inkscape:connector-curvature="0"
         id="path3953"
         d="m 68.942911,581.3859 c -0.697762,0.50009 -1.024423,1.84183 -0.505076,2.52538 1.378774,1.8147 5.327719,2.22893 6.81853,0.50508 0.50767,-0.58703 0.06757,-1.74901 -0.505077,-2.27285 -1.440674,-1.31788 -4.221359,-1.89503 -5.808377,-0.75761 z"
         style="fill:#e3f2c6;fill-opacity:1;stroke:none" />
      <path
         sodipodi:nodetypes="csssc"
         transform="translate(0,907.36218)"
         inkscape:connector-curvature="0"
         id="path3955"
         d="m 22.223356,581.89098 c 0,0 1.950035,3.02175 3.535534,3.53553 2.027459,0.657 6.037624,1.10318 6.313453,-1.01015 0.214599,-1.6442 -2.941829,-1.5995 -4.545686,-2.02031 -1.71763,-0.45066 -5.303301,-0.50507 -5.303301,-0.50507 z"
         style="fill:#e3f2c6;fill-opacity:1;stroke:none" />
      <path
         sodipodi:nodetypes="caaaaaaasaaassaasacacssscscssccssssssssssssssssc"
         transform="translate(0,907.36218)"
         inkscape:connector-curvature="0"
         id="path3957"
         d="m 25.001276,629.62068 c 0,0 -10.250832,5.02674 -14.394674,8.83884 -2.6144913,2.40518 -5.7918282,5.07227 -6.3134537,8.5863 -0.6684818,4.50335 5.35764,8.39973 4.5456865,12.87944 -1.2148505,6.70257 -10.1284951,9.54351 -13.1319831,15.65737 -1.2158257,2.47492 -3.7163058,6.13016 -1.767767,8.08122 1.4001167,1.40193 4.692196,-2.89973 5.80837716,-1.2627 1.88080634,2.75846 -5.41165626,4.99823 -5.55583896,8.33376 -0.1285299,2.97342 2.7647144,5.27495 4.2931483,7.82869 5.4677743,9.13569 9.8519861,19.2854 17.4251318,26.76904 5.81389,5.74518 16.543489,6.0989 20.708127,13.13198 6.747554,11.395 4.439507,26.54461 2.525381,39.64849 -0.843058,5.77148 -10.591717,19.20317 -6.060915,16.41498 0.755943,-0.4652 6.527216,6.56201 1.262691,15.9099 -1.604098,2.8483 2.517416,6.87543 5.555839,8.08122 5.923804,2.35084 14.120333,0.40416 18.687822,-4.04061 3.043465,-2.96169 -0.01962,-9.41949 3.030457,-12.37437 6.426977,-6.22637 22.194991,2.41392 26.263967,-5.55584 1.507966,-2.9536 -4.040611,-9.09137 -4.040611,-9.09137 0,0 10.013375,2.85724 14.647212,1.26269 9.236857,-3.17849 21.465737,-19.95051 21.465737,-19.95051 0,0 -2.22485,-5.40908 1.2627,-8.5863 7.06794,-6.43902 17.69785,-4.91076 23.48604,-6.81853 5.85212,-1.92884 13.63716,-14.78208 14.14214,-21.2132 1.05769,-13.47017 15.33787,-31.17914 17.17259,-28.28427 0,0 6.4703,-7.09942 -0.25254,-10.10153 -4.78449,-2.13653 -6.82069,-1.00512 -6.81853,-1.01015 0,0 -4.79822,-3.53554 -6.56599,-5.80838 -1.76777,-2.27284 -12.37437,-0.25254 -14.39467,-2.0203 -2.02031,-1.76777 -6.31346,1.76776 -6.31346,1.76776 l -1.76776,-4.54568 c 0,0 -9.34391,-5.55584 -11.11168,-3.78808 -1.76777,1.76777 -4.04061,7.82869 -6.06092,6.31346 -2.0203,-1.51523 -7.07106,0.50507 -9.34391,-2.52538 -2.27284,-3.03046 -11.36421,1.26269 -2.0203,-4.54569 9.34391,-5.80838 13.63706,-2.77792 9.09137,-7.32361 -4.54569,-4.54568 -6.31345,-5.55583 -5.55584,-8.58629 0.75762,-3.03046 -1.76776,-2.52538 -3.03046,-3.03046 -1.26269,-0.50508 -15.152284,-7.07107 -21.970813,-5.55584 -6.81853,1.51523 2.020305,-7.82868 -8.333759,-9.59645 -10.354063,-1.76777 -2.777919,-6.06091 -9.091373,-8.08122 -6.313453,-2.0203 -13.384521,1.51523 -16.162441,-0.75761 -2.777919,-2.27285 -12.626906,0.25254 -13.384521,-2.02031 -0.757614,-2.27284 0.757615,-4.29315 -5.303301,-2.27284 -6.060915,2.0203 -6.818529,-3.283 -6.313453,2.77792 0.505076,6.06091 3.788072,9.09137 0.505076,6.31345 -3.282996,-2.77792 -3.282996,-6.31345 -3.535534,-8.83883 -0.252538,-2.52538 -3.282995,-1.01016 -3.282995,-1.01016 z"
         style="fill:#e3f2c6;fill-opacity:1;stroke:none" />
      <path
         sodipodi:nodetypes="csssssssssssscscsscsssssssssscc"
         transform="translate(0,907.36218)"
         inkscape:connector-curvature="0"
         id="path3959"
         d="m 292.18662,708.16004 c 0,0 4.54569,-7.07106 5.55584,-15.65736 1.01016,-8.5863 -5.3033,-10.10153 0,-22.22336 5.3033,-12.12183 8.33376,-13.88959 10.10153,-23.2335 1.76777,-9.34392 -4.29315,-16.92006 -4.04061,-20.70813 0.25254,-3.78807 4.79822,-12.87945 2.77792,-17.93021 -2.02031,-5.05076 -1.51523,-8.83883 -6.31346,-6.31345 -4.79822,2.52538 2.27285,-7.82868 -7.3236,-5.05077 -9.59645,2.77792 -6.81853,9.09138 -10.35407,7.57615 -3.53553,-1.51523 -1.76776,-1.51523 -6.56599,-2.27284 -4.79822,-0.75762 -9.84898,0.75761 -10.6066,2.27284 -0.75761,1.51523 -16.16244,-7.57615 -17.67767,-14.14214 -1.51523,-6.56599 -9.84899,-14.14213 -10.85914,-14.64721 -1.01015,-0.50508 -2.27284,-9.09137 -2.27284,-9.09137 0,0 6.06091,-20.45559 2.27284,-26.01143 -3.78807,-5.55584 18.43529,-30.80965 18.43529,-30.80965 0,0 3.03045,-3.78807 2.77792,-8.5863 -0.25254,-4.79822 0.75761,-5.05076 4.29314,-10.85914 3.53554,-5.80838 4.54569,-5.80838 4.54569,-5.80838 0,0 -1.76777,2.77792 3.03046,2.77792 4.79822,0 8.58629,-0.75761 12.12183,-1.76776 3.53553,-1.01016 19.95051,-1.76777 20.96066,1.51523 1.01016,3.28299 3.283,5.55583 2.02031,7.07106 -1.26269,1.51523 -4.79823,-0.75761 -1.51523,3.283 3.283,4.04061 10.85914,7.07107 10.85914,8.83883 0,1.76777 -2.02031,0.25254 1.51523,4.54569 3.53553,4.29315 4.54569,8.08122 5.3033,5.05076 0.75761,-3.03045 -2.27284,-6.06091 -0.50508,-7.82868 1.76777,-1.76777 3.53554,0 4.04061,2.52538 0.50508,2.52538 7.07107,9.34391 7.07107,9.34391 14.38916,116.83368 -33.11517,180.96519 -39.64849,188.14091 z"
         style="fill:#e3f2c6;fill-opacity:1;stroke:none" />
      <path
         transform="translate(0,907.36218)"
         inkscape:connector-curvature="0"
         id="path3961"
         d="m 241.679,409.40743 c 0,0 2.52538,2.52538 1.76776,4.54569 -0.75761,2.0203 -3.53553,2.27284 0,4.04061 3.53554,1.76776 7.07107,4.04061 8.33376,1.01015 1.26269,-3.03046 -0.75761,-3.283 0.50508,-5.80838 1.26269,-2.52538 2.0203,-5.3033 -2.52538,-6.06091 -4.54569,-0.75762 -4.29315,-0.75762 -4.54569,0.75761 -0.25254,1.51523 -3.53553,1.51523 -3.53553,1.51523 z"
         style="fill:#e3f2c6;fill-opacity:1;stroke:none" />
      <path
         transform="translate(0,907.36218)"
         inkscape:connector-curvature="0"
         id="path3963"
         d="m 249.0026,397.03306 c 0,0 -0.50507,6.31345 0.50508,6.56599 1.01015,0.25254 1.76777,-2.77792 3.78807,0.75762 2.02031,3.53553 -0.75761,1.76776 1.51523,5.05076 2.27284,3.28299 5.80838,2.77792 4.29315,5.55584 -1.51523,2.77792 -2.02031,0.25254 -1.51523,4.04061 0.50508,3.78807 6.06091,4.29315 3.78807,5.55584 -2.27284,1.26269 -3.28299,-1.51523 -2.77792,1.26269 0.50508,2.77792 -5.05076,1.51523 3.53554,2.27284 8.58629,0.75762 8.83883,-0.50508 8.83883,-0.50508 0,0 2.52538,-2.0203 -0.50508,-4.54568 -3.03045,-2.52538 -13.88959,-16.16244 -13.88959,-16.16244 0,0 2.27284,-1.51523 0.25253,-3.53554 -2.0203,-2.0203 -2.52538,1.01016 -3.28299,-1.51523 -0.75762,-2.52538 2.77792,-3.78807 -0.50508,-4.54568 -3.28299,-0.75762 -4.04061,-0.25254 -4.04061,-0.25254 z"
         style="fill:#e3f2c6;fill-opacity:1;stroke:none" />
      <path
         transform="translate(0,907.36218)"
         inkscape:connector-curvature="0"
         id="path3965"
         d="m 270.72088,394.50768 c 0,0 -4.04061,-0.50508 -4.29315,1.51523 -0.25253,2.0203 5.80838,15.40482 8.08122,14.89975 2.27285,-0.50508 6.06092,-3.03046 6.06092,-1.26269 0,1.76776 9.59645,13.38452 8.83883,14.39467 -0.75761,1.01015 2.77792,3.03046 2.02031,0 -0.75761,-3.03046 -20.70813,-29.54696 -20.70813,-29.54696 z"
         style="fill:#e3f2c6;fill-opacity:1;stroke:none" />
      <path
         sodipodi:nodetypes="sssscsssscssssssssssssssscsccssssssss"
         transform="translate(0,907.36218)"
         inkscape:connector-curvature="0"
         id="path3967"
         d="m 251.78052,453.34906 c 0,7.01927 6.31346,12.87945 4.54569,15.65737 -1.76777,2.77792 -1.76777,3.53553 -0.25254,6.31345 1.51523,2.77792 1.51523,-1.76776 5.80838,3.53554 4.29315,5.3033 5.05076,5.3033 5.05076,5.3033 0,0 -1.26269,-1.51523 1.26269,-2.52538 2.52538,-1.01016 2.02031,2.77792 5.3033,0.25253 3.283,-2.52538 6.81853,-3.78807 5.55584,-7.3236 -1.26269,-3.53554 -2.77792,-0.75762 -1.01015,-4.04061 1.76777,-3.283 6.31345,-5.55584 6.31345,-5.55584 0,0 -1.76777,-3.283 -1.01015,-4.54569 0.75761,-1.26269 2.77792,-1.76776 4.29315,-0.25254 1.51523,1.51523 2.27284,3.53554 3.78807,2.02031 1.51523,-1.51523 1.01015,-4.04061 3.03046,-3.03046 2.0203,1.01015 14.89975,22.72843 17.17259,22.22336 2.27284,-0.50508 -13.13198,-19.95051 -12.62691,-21.71828 0.50508,-1.76777 -1.51523,-5.05076 1.76777,-1.76777 3.283,3.283 1.26269,4.54569 5.3033,10.10153 4.04061,5.55584 4.29315,-0.25254 6.81853,7.07106 2.52538,7.32361 5.80838,18.18275 7.07107,18.94036 1.26269,0.75762 -3.03046,-10.85914 -1.76777,-11.36421 1.26269,-0.50508 8.33376,18.18274 8.5863,17.17259 0.25254,-1.01015 -21.46574,-63.38707 -28.03173,-65.91245 -6.566,-2.52538 -14.39468,-7.07107 -14.39468,-8.5863 0,-1.51523 -1.76777,-9.34391 -3.28299,-9.59645 -1.51523,-0.25254 0,4.04061 0,4.04061 0,0 3.03045,3.78807 2.52538,5.05077 -0.50508,1.26269 -5.05077,0.25253 -5.05077,0.25253 l -0.50507,2.27285 c 0,0 -1.76777,1.76776 -3.283,2.52538 -1.51523,0.75761 2.02031,3.53553 -2.27284,3.28299 -4.29315,-0.25253 -5.09072,-3.30096 -6.31345,-1.51522 -0.75197,1.09822 6.81853,3.78807 2.27284,3.28299 -4.54569,-0.50508 -8.33376,-3.53553 -6.56599,-0.50508 1.76776,3.03046 8.08122,8.08122 7.07107,9.09138 -1.01016,1.01015 10.15917,14.7324 3.78807,11.86929 -6.81853,-3.06418 -20.96067,-3.15116 -20.96067,-2.02031 z"
         style="fill:#e3f2c6;fill-opacity:1;stroke:none" />
      <path
         transform="translate(0,907.36218)"
         inkscape:connector-curvature="0"
         id="path3969"
         d="m 296.47977,472.03689 0.75762,6.81853 2.52538,-0.25254 -1.01015,-6.56599 z"
         style="fill:#e3f2c6;fill-opacity:1;stroke:none" />
      <path
         transform="translate(0,907.36218)"
         inkscape:connector-curvature="0"
         id="path3971"
         d="m 295.72216,465.4709 -0.25254,3.28299 1.51523,0.50508 z"
         style="fill:#e3f2c6;fill-opacity:1;stroke:none" />
      <path
         transform="translate(0,907.36218)"
         inkscape:connector-curvature="0"
         id="path3973"
         d="m 310.11683,482.39095 1.26269,3.283 -4.79822,-0.50508 4.04061,3.78807 1.76776,-4.29315 z"
         style="fill:#e3f2c6;fill-opacity:1;stroke:none" />
    </g>
  </g>
</svg>
