<?xml version="1.0" encoding="UTF-8" standalone="no"?>
<!-- Created with Inkscape (http://www.inkscape.org/) -->

<svg
   xmlns:dc="http://purl.org/dc/elements/1.1/"
   xmlns:cc="http://creativecommons.org/ns#"
   xmlns:rdf="http://www.w3.org/1999/02/22-rdf-syntax-ns#"
   xmlns:svg="http://www.w3.org/2000/svg"
   xmlns="http://www.w3.org/2000/svg"
   xmlns:sodipodi="http://sodipodi.sourceforge.net/DTD/sodipodi-0.dtd"
   xmlns:inkscape="http://www.inkscape.org/namespaces/inkscape"
   width="145"
   height="145"
   id="svg2"
   version="1.1"
   inkscape:version="0.48.3.1 r9886"
   sodipodi:docname="earth2.svg">
  <defs
     id="defs4" />
  <sodipodi:namedview
     id="base"
     pagecolor="#ffffff"
     bordercolor="#666666"
     borderopacity="1.0"
     inkscape:pageopacity="0.0"
     inkscape:pageshadow="2"
     inkscape:zoom="5.6"
     inkscape:cx="41.985993"
     inkscape:cy="54.688729"
     inkscape:document-units="px"
     inkscape:current-layer="layer1"
     showgrid="false"
     inkscape:window-width="1215"
     inkscape:window-height="1000"
     inkscape:window-x="65"
     inkscape:window-y="24"
     inkscape:window-maximized="1" />
  <metadata
     id="metadata7">
    <rdf:RDF>
      <cc:Work
         rdf:about="">
        <dc:format>image/svg+xml</dc:format>
        <dc:type
           rdf:resource="http://purl.org/dc/dcmitype/StillImage" />
        <dc:title />
      </cc:Work>
    </rdf:RDF>
  </metadata>
  <g
     inkscape:label="Layer 1"
     inkscape:groupmode="layer"
     id="layer1"
     transform="translate(0,-907.36218)">
    <path
       id="path5926"
       transform="translate(0,907.36218)"
       d="M 72.46875 1.59375 L 1.75 72.3125 L 72.46875 143.03125 L 143.15625 72.3125 L 72.46875 1.59375 z M 66.8125 31.53125 C 66.8125 31.53125 60.887162 33.38754 60.71875 34.1875 C 60.550338 34.98745 55.875 34.625 55.875 34.625 L 59.40625 32.25 L 66.8125 31.53125 z M 71.0625 31.59375 C 75.330588 31.592577 81.531251 32.380346 84.3125 34.875 C 85.073881 35.55793 86.322401 35.5433 86.96875 36.3125 C 87.168612 36.55034 87.460086 36.93347 87.28125 37.1875 C 86.917603 37.70403 85.971242 37.01009 85.375 37.21875 C 84.675562 37.46353 84.252535 38.22318 83.59375 38.5625 C 83.045205 38.84503 82.153536 38.59137 81.84375 39.125 C 81.583904 39.5726 82.1373 40.10988 82.1875 40.625 C 82.24333 41.19787 82.44691 41.89786 82.125 42.375 C 81.808591 42.84399 81.110887 43.1703 80.5625 43.03125 C 80.078084 42.90841 80.126058 42.01413 79.65625 41.84375 C 79.211176 41.68234 79.218368 42.24045 78.25 42.15625 C 77.281631 42.07205 77.210053 41.44814 76.625 41.21875 C 76.342947 41.10813 75.968172 41.24146 75.75 41.03125 C 75.561195 40.84934 75.695831 40.45409 75.53125 40.25 C 75.342097 40.01543 74.550339 39.97006 74.71875 39.84375 C 74.887165 39.71744 75.160967 39.19277 74.9375 39.03125 C 74.666184 38.83514 74.418196 39.67625 74.09375 39.59375 C 73.722501 39.49935 73.5566 38.94472 73.53125 38.5625 C 73.515598 38.326482 73.83623 37.832814 73.90625 37.6875 C 73.899447 37.693255 73.885526 37.676975 73.875 37.6875 C 73.664485 37.89802 73.299704 37.77836 73.125 37.59375 C 72.951102 37.40998 72.936775 37.04218 73.09375 36.84375 C 73.341413 36.5307 73.618456 36.7092 74.25 36.625 C 74.881541 36.54079 74.39671 36.25392 74.3125 35.875 C 74.228293 35.49607 74.38978 35.55688 73.96875 35.09375 C 73.547719 34.63061 73.810809 34.74176 72.96875 34.53125 C 72.12669 34.32073 72.285177 34.85591 71.90625 34.6875 C 71.527323 34.51909 72.039485 34.40887 72.25 34.15625 C 72.460515 33.90363 70.720059 32.97137 70.59375 32.71875 C 70.467441 32.46613 67.692736 32.59375 67.1875 32.59375 C 65.592566 32.064007 67.742876 31.594663 71.0625 31.59375 z M 57.25 32.9375 C 56.295873 33.4287 57.301581 33.91505 54.34375 34.40625 L 52.96875 34.53125 L 57.25 32.9375 z M 54.6875 34.96875 C 55.40163 34.940423 55.973026 35.21655 56.65625 35.25 C 55.882244 35.52928 55.367315 35.98085 53.96875 35.84375 L 53.9375 35.125 C 54.218286 35.03007 54.449457 34.978192 54.6875 34.96875 z M 52.25 35.28125 C 51.772833 35.97665 50.320917 36.62957 49.84375 36.8125 C 50.088082 36.36455 49.423786 35.73782 51.1875 35.59375 L 52.25 35.28125 z M 59.4375 35.46875 C 59.53108 35.468914 59.61941 35.478949 59.65625 35.5 C 59.950971 35.66841 59.17204 36.08607 59.34375 36.3125 C 59.556432 36.59296 60.153632 36.21875 60.40625 36.21875 C 60.658868 36.21875 61.53294 35.65494 62.375 35.78125 C 63.21706 35.90756 62.620344 36.30244 62.84375 36.4375 C 63.973299 37.12034 65.981293 37.03125 66.78125 37.03125 C 67.581207 37.03125 66.30296 37.57767 66.21875 38.125 C 66.134544 38.67234 69.921411 38.94312 70.46875 39.40625 C 71.016089 39.86938 69.168412 40.01647 69 40.4375 C 68.831588 40.85853 67.821061 39.16526 67.09375 39.28125 C 66.818652 39.32512 66.773015 39.56943 66.5625 39.90625 C 66.351985 40.24308 67.565499 40.5655 68.28125 41.28125 C 68.997001 41.997 68.28125 42.50262 68.28125 42.25 C 68.28125 41.99738 66.043412 41.35199 65.875 41.5625 C 65.706588 41.77302 67.646413 42.24071 67.34375 42.8125 C 66.867522 43.71218 65.333 42.45239 64.40625 42.03125 C 63.899501 41.80098 63.747001 40.75692 63.03125 41.09375 C 62.315499 41.43057 60.539943 42.00631 60.4375 41.15625 C 60.361732 40.52754 61.512543 40.67665 62.3125 40.71875 C 63.112457 40.76085 62.71875 40.34375 62.71875 40.34375 C 62.71875 40.34375 62.932264 39.61114 63.4375 38.9375 C 63.942736 38.26385 62.25954 38.11676 62.34375 37.90625 C 62.427956 37.69573 60.934828 36.9905 60.15625 37.0625 C 59.729622 37.10196 59.476771 37.60944 59.0625 37.71875 C 58.302101 37.91939 57.502772 37.59485 56.71875 37.65625 C 56.205623 37.69645 55.70165 37.9137 55.1875 37.9375 C 55.046607 37.944 54.888527 37.99785 54.78125 37.90625 C 54.571532 37.72724 54.899324 37.43058 54.5625 37.09375 C 54.225676 36.75693 56.4375 35.875 56.4375 35.875 C 56.4375 35.875 56.3033 36.26802 56.3125 36.46875 C 56.323294 36.70376 56.53125 36.77732 56.53125 37.15625 C 56.53125 37.53517 57.069426 37.34768 57.40625 36.96875 C 57.743074 36.58983 57.220059 36.88024 57.09375 36.375 C 56.98323 35.932924 58.782437 35.4676 59.4375 35.46875 z M 54.25 36.34375 C 53.806631 37.02313 53.367419 37.68215 52.15625 37.59375 L 52.0625 37.28125 C 52.619531 36.1951 53.488812 36.51119 54.25 36.34375 z M 51.0625 37.0625 L 51.28125 37.34375 C 51.24229 37.66591 51.484833 37.95117 50.9375 38.375 C 50.552164 38.53701 50.168202 38.68336 49.5625 38.625 C 49.249022 38.621 48.866422 38.83349 48.65625 38.3125 L 48.84375 37.71875 C 49.635962 37.59098 50.382132 37.41395 51.0625 37.0625 z M 47.9375 37.1875 C 47.641223 37.55395 47.371388 37.90219 46.96875 38.375 C 46.800667 38.52465 45.079335 38.93807 44.125 39.21875 L 44.96875 38.65625 L 47.9375 37.1875 z M 56.90625 37.90625 C 57.455909 37.849612 58.417109 38.016906 58.65625 38.375 C 58.895339 38.73302 58.21875 39.59375 58.21875 39.59375 C 57.712654 39.54612 56.564689 39.85343 55.28125 40.25 C 55.409209 40.25 56.953492 38.61183 56.59375 38.25 C 56.411587 38.066783 56.576454 37.940233 56.90625 37.90625 z M 55.0625 38.75 C 55.192754 38.742107 54.5 39.15167 54.5 39.59375 C 54.5 40.18319 55.533868 40.18488 55.28125 40.4375 C 55.028636 40.69012 54.9375 41.08852 54.9375 41.59375 C 54.9375 42.099 54.775252 41.93488 53.34375 42.1875 C 51.912248 42.44011 50.127618 45.40794 49.875 46.25 C 49.622382 47.09206 51.155322 46.32112 52.25 47.5 C 53.344678 48.67889 56.875 48.6875 56.875 48.6875 C 56.875 48.6875 57.039866 50.77078 58.21875 51.78125 C 59.39763 52.79172 59.131926 50.96706 59.46875 50.125 C 59.792943 49.314517 58.825603 48.962043 58.75 48.9375 C 58.81267 48.954923 59.045798 48.93467 59.90625 48.5 C 61.23976 47.82635 61.312143 46.83945 60.75 46.25 C 60.30741 45.78592 59.89147 45.23353 60.3125 44.8125 C 60.733526 44.39147 60.502618 44.72923 60.25 43.71875 C 59.997382 42.70829 60.058954 42.36022 61.40625 42.78125 C 62.753546 43.20228 63.84713 42.61715 65.53125 43.375 C 67.21537 44.13285 65.305574 44.46352 64.96875 44.96875 C 64.631926 45.47399 66.052028 45.65625 67.0625 45.65625 C 68.072968 45.65625 68.15625 44.21875 68.15625 44.21875 C 70.016534 43.88052 70.070253 45.22968 70.5 46.0625 C 71.019495 47.06924 69.84375 46.90625 69.84375 46.90625 C 70.479205 48.10538 71.738407 48.05314 72.78125 48.4375 L 71.34375 49.1875 C 71.34375 49.1875 72.357602 49.0842 73.03125 49 C 73.704898 48.91579 74.3125 49.6875 74.3125 49.6875 L 74.21875 50.78125 L 72.625 51.03125 L 70.84375 52.0625 C 70.84375 52.0625 69.581754 51.29248 66.71875 52.21875 C 64.464134 52.948188 64.373589 54.652053 64.46875 54.8125 C 64.487386 54.778237 64.520724 54.699335 64.53125 54.5625 C 64.615456 53.46782 67.65625 52.8125 67.65625 52.8125 C 67.65625 52.8125 68.831588 52.80988 69 53.0625 C 69.168412 53.31512 68.5 53.65625 68.5 53.65625 C 68.5 53.65625 67.14671 52.97305 67.0625 53.5625 C 66.978294 54.15194 68 53.71875 68 53.71875 C 68 53.71875 68.497382 54.3359 68.75 55.09375 C 69.002618 55.85161 69.758459 55.19973 70.25 55.34375 C 70.45514 55.40386 70.84375 55.59375 70.84375 55.59375 C 70.846997 55.693065 70.847358 55.832106 70.78125 55.90625 C 70.35079 56.38909 69.728373 55.948 68.90625 56.4375 C 68.756752 56.86152 68.690553 57.34415 68 57.28125 C 67.930971 57.31083 67.446541 56.87858 67.65625 56.5 C 67.785279 56.26706 68.83602 56.31572 68.90625 55.84375 C 68.92962 55.6867 68.718951 55.5271 68.5625 55.5 C 67.981048 55.39929 66.96875 56.25 66.96875 56.25 C 66.96875 56.25 65.532178 55.48429 64.4375 57 C 63.342822 58.51571 65.063744 58.09758 64.78125 58.53125 C 64.625012 58.77106 63.9375 58.6875 63.9375 58.6875 C 63.9375 58.6875 60.315118 59.97044 60.0625 60.8125 C 59.809882 61.65456 61.31595 62.996 60.65625 63.75 C 59.495567 65.0766 56.276014 65.85667 56.78125 67.625 C 57.286486 69.39332 56.795102 68.11883 57.46875 69.71875 C 58.142398 71.31866 57.377618 71.8342 57.125 71.75 C 56.872382 71.6658 56.70228 70.57036 56.28125 69.8125 C 55.860224 69.05465 55.78125 67.96875 55.78125 67.96875 C 55.78125 67.96875 53.760472 67.69966 52.75 67.53125 C 51.739528 67.36284 51.721368 67.55203 51.46875 68.5625 C 51.216132 69.57297 50.375 68.5625 50.375 68.5625 C 50.375 68.5625 47.35684 66.8739 46.09375 71 C 44.83066 75.12609 47.78125 76.375 47.78125 76.375 C 47.78125 76.375 49.433291 76.79742 50.0625 76.375 C 50.616431 76.00312 50.266432 74.91458 50.8125 74.53125 C 51.364337 74.14387 53.217319 73.87622 52.84375 74.4375 C 51.57856 76.33839 50.799606 77.25056 51.5625 78.40625 C 52.2149 79.39456 54.273062 77.89628 55.09375 78.75 C 55.795108 79.47959 54.86817 80.85737 55.28125 81.78125 C 55.55669 82.3973 56.71875 83.21875 56.71875 83.21875 C 56.71875 83.21875 57.765758 82.56982 58.3125 82.6875 C 59.012091 82.83809 59.90625 84.125 59.90625 84.125 L 59.3125 84.21875 C 59.3125 84.21875 58.831527 83.2065 58.375 83.1875 C 57.878847 83.16679 57.772284 84.14475 57.28125 84.21875 C 56.573635 84.32545 55.921606 83.70337 55.34375 83.28125 C 54.814621 82.89473 54.456274 82.31406 54 81.84375 C 53.419553 81.24545 52.978607 80.49873 52.25 80.09375 C 51.494226 79.67366 50.480131 79.90984 49.71875 79.5 C 49.071885 79.1518 48.826192 78.18785 48.125 77.96875 C 47.772618 77.85863 47.39402 78.22475 47.03125 78.15625 C 45.053875 77.7827 43.059131 76.7047 41.8125 75.125 C 41.267884 74.43488 41.391349 73.39575 41.03125 72.59375 C 40.22081 70.78875 39.609195 68.58968 37.9375 67.53125 C 37.722752 67.39525 37.17439 67.21523 37.15625 67.46875 C 37.046332 69.00526 39.785147 73.09375 39.03125 73.09375 C 38.048846 70.90439 37.718298 74.37712 36.0625 66.53125 C 35.113408 65.89539 34.225404 65.09065 33.71875 62.90625 C 33.689853 61.34487 33.235322 60.33823 34.46875 57.09375 C 35.084561 57.17625 35.15161 56.71617 35.21875 56.25 C 34.886341 55.69462 34.565819 55.10705 34.125 55.09375 L 33.71875 55 C 33.71852 54.24237 33.59894 52.87119 32.96875 52.09375 C 32.909467 52.02064 32.71875 51.96875 32.71875 51.96875 L 31.9375 52.46875 C 33.94128 49.53369 35.546357 46.37138 38.59375 44.0625 L 39.78125 43.125 L 42.46875 42.625 L 46.4375 41.1875 L 48.53125 40.84375 C 48.997087 41.309585 50.729328 40.19039 52.03125 39.21875 C 51.406738 39.793806 53.030026 38.7395 53.5 39.34375 C 54.089442 40.10161 53.499072 39.32728 54.59375 38.90625 C 54.867418 38.800992 55.019082 38.752631 55.0625 38.75 z M 87.0625 38.90625 C 87.811702 38.912519 89.068041 39.38597 89.84375 39.5 C 90.576903 39.60778 92.312731 40.66431 91.59375 40.84375 C 90.638954 41.08205 89.679884 41.08999 88.84375 40.6875 C 88.299198 40.42536 88.934868 40.32748 86.5 39.09375 C 86.599795 38.95773 86.812766 38.90416 87.0625 38.90625 z M 45.8125 39.28125 C 45.8125 39.28125 47.133235 39.96314 47.34375 39.5 C 47.554265 39.03687 48.474629 39.35182 48.59375 39.75 C 48.684767 40.05424 47.90625 40.18488 47.90625 40.4375 C 47.90625 40.69012 46.435552 40.46522 45.75 40.6875 C 44.847508 40.98012 43.575971 41.68357 43.28125 42.0625 C 42.986529 42.44142 41.59375 42.1875 41.59375 42.1875 C 41.59375 42.1875 42.297339 41.01778 41.75 41.3125 C 41.202661 41.60722 40.0625 42.5 40.0625 42.5 L 42.71875 40.09375 C 42.71875 40.09375 44.100676 39.84637 44.4375 39.59375 C 44.774324 39.34113 45.8125 39.28125 45.8125 39.28125 z M 57.6875 40.625 C 57.923094 40.645858 58.11875 40.788114 58.25 40.96875 C 58.442588 41.2338 58.09375 41.9375 58.09375 41.9375 C 58.028425 42.31312 57.13585 41.35891 57.09375 41.90625 C 57.051647 42.45358 54.9375 42.4375 54.9375 42.4375 C 54.9375 42.4375 55.278809 41.13127 55.8125 40.8125 C 56.173961 40.5966 56.630617 41.14932 57.09375 40.8125 C 57.209533 40.728293 57.323499 40.681339 57.4375 40.65625 C 57.523001 40.637434 57.608969 40.618047 57.6875 40.625 z M 99.90625 45.21875 C 100.07992 45.197698 100.25 45.21875 100.25 45.21875 C 100.25 45.21875 103.56119 49.65102 103.6875 50.15625 C 103.81381 50.66149 103.21744 50.32466 103.34375 50.15625 C 103.47006 49.98784 101.875 48.04472 101.875 47.75 C 101.875 47.45528 101.25393 47.88455 100.875 47.96875 C 100.49607 48.05295 99.48915 45.80557 99.53125 45.46875 C 99.552302 45.30034 99.732576 45.239802 99.90625 45.21875 z M 96.75 45.625 C 96.849995 45.619737 97.007581 45.62435 97.28125 45.6875 C 97.828593 45.81381 97.24869 46.01647 97.375 46.4375 C 97.501308 46.85853 97.600677 46.35067 97.9375 46.6875 C 98.274326 47.02432 97.875 47.28125 97.875 47.28125 C 97.875 47.28125 99.682267 49.54772 100.1875 49.96875 C 100.69273 50.38978 100.28125 50.75 100.28125 50.75 C 100.28125 50.75 100.244 50.93881 98.8125 50.8125 C 97.380997 50.68619 98.30296 50.90064 98.21875 50.4375 C 98.134545 49.97437 98.308573 50.46051 98.6875 50.25 C 99.066426 50.03948 98.14671 49.94405 98.0625 49.3125 C 97.978294 48.68095 98.059882 49.08814 98.3125 48.625 C 98.565119 48.16187 97.972677 48.26609 97.59375 47.71875 C 97.214824 47.17141 97.680575 47.46444 97.34375 46.875 C 97.006927 46.28556 96.855912 46.7921 96.6875 46.75 C 96.51909 46.7079 96.625 45.65625 96.625 45.65625 C 96.625 45.65625 96.650005 45.630263 96.75 45.625 z M 96.09375 47.25 C 96.183219 47.234211 96.371072 47.280595 96.75 47.34375 C 97.507852 47.47006 97.366765 47.92272 97.15625 48.34375 C 96.945731 48.76478 97.304265 48.80727 97.09375 49.3125 C 96.883235 49.81774 96.276943 49.45097 95.6875 49.15625 C 95.098059 48.86153 95.561192 48.80558 95.6875 48.46875 C 95.81381 48.13193 95.40625 47.71875 95.40625 47.71875 C 95.40625 47.71875 95.9579 47.72137 96 47.46875 C 96.021051 47.34244 96.004281 47.265789 96.09375 47.25 z M 101.96875 48.75 C 102.22137 48.79211 102.5 50.12238 102.5 50.375 C 102.5 50.62762 103.81157 51.36022 104.90625 51.78125 C 106.00093 52.20228 109.63585 62.61284 109.59375 62.78125 C 109.55165 62.94966 108.36676 59.82205 108.15625 59.90625 C 107.94573 59.99045 108.64801 61.93881 108.4375 61.8125 C 108.22699 61.68619 107.70228 59.87724 107.28125 58.65625 C 106.86022 57.43526 106.79865 58.39502 106.125 57.46875 C 105.45136 56.54249 105.79734 56.32859 105.25 55.78125 C 104.70266 55.23392 105.05295 55.79902 104.96875 56.09375 C 104.88455 56.38847 107.44143 59.63455 107.0625 59.71875 C 106.68357 59.80296 104.52432 56.16841 104.1875 56 C 103.85067 55.83159 103.94012 56.24738 103.6875 56.5 C 103.43488 56.75261 103.31511 56.44012 103.0625 56.1875 C 102.80988 55.93488 102.47005 56.00824 102.34375 56.21875 C 102.21744 56.42927 102.5 56.96875 102.5 56.96875 C 102.5 56.96875 101.76347 57.35892 101.46875 57.90625 C 101.17403 58.45359 101.41449 57.97306 101.625 58.5625 C 101.83552 59.15194 101.23484 59.36022 100.6875 59.78125 C 100.14016 60.20228 100.23353 59.58158 99.8125 59.75 C 99.39147 59.91841 99.59375 60.1875 99.59375 60.1875 C 99.59375 60.1875 99.497002 60.16542 98.78125 59.28125 C 98.065499 58.39709 98.065118 59.15063 97.8125 58.6875 C 97.559879 58.22437 97.549029 58.11938 97.84375 57.65625 C 98.138472 57.19311 97.09375 56.2015 97.09375 55.03125 C 97.09375 54.84272 99.425718 54.86415 100.5625 55.375 C 101.62469 55.85234 99.769086 53.57467 99.9375 53.40625 C 100.10591 53.23784 99.07597 52.38024 98.78125 51.875 C 98.486529 51.36976 99.117146 51.88455 99.875 51.96875 C 100.63285 52.05296 99.343382 51.58935 99.46875 51.40625 C 99.672602 51.10854 99.815495 51.61415 100.53125 51.65625 C 101.247 51.69835 100.65363 51.25131 100.90625 51.125 C 101.15887 50.99869 101.46875 50.6875 101.46875 50.6875 L 101.53125 50.3125 C 101.53125 50.3125 102.2908 50.49177 102.375 50.28125 C 102.4592 50.07074 101.96875 49.4375 101.96875 49.4375 C 101.96875 49.4375 101.71613 48.7079 101.96875 48.75 z M 74.65625 50.9375 C 74.69879 50.947835 74.716926 51.009689 74.6875 51.15625 C 74.508707 52.04678 74.984674 53.54657 75.59375 52.9375 C 75.59375 52.9375 76.650634 52.89709 76.1875 53.78125 C 75.724367 54.66541 76.0625 54.125 76.0625 54.125 C 76.0625 54.125 77.245693 54.20395 76.65625 54.625 C 76.066808 55.04601 75.875 54.3125 75.875 54.3125 C 75.875 54.3125 75.494383 54.75 75.03125 54.75 C 74.568117 54.75 75.3125 54.125 75.3125 54.125 C 75.3125 54.125 72.604604 54.44143 72.5625 54.0625 C 72.525662 53.730928 74.358473 50.865153 74.65625 50.9375 z M 71.625 54.5625 C 71.674727 54.551906 71.736634 54.5524 71.78125 54.5625 C 72.039509 54.62099 72.293882 55.00751 72.1875 55.25 C 72.003932 55.66843 70.84375 55.5 70.84375 55.5 L 70.84375 55.15625 C 70.84375 55.15625 71.276911 54.636658 71.625 54.5625 z M 104.40625 57.0625 L 104.625 57.6875 L 104.375 57.59375 L 104.40625 57.0625 z M 104.53125 58.15625 L 104.90625 58.15625 L 105.09375 59.25 L 104.65625 59.28125 L 104.53125 58.15625 z M 106.8125 59.875 L 107.1875 60.25 L 106.90625 60.96875 L 106.21875 60.34375 L 107.03125 60.4375 L 106.8125 59.875 z M 99.59375 60.25 C 99.59375 60.25 99.325038 60.71875 100.125 60.71875 C 100.92495 60.71875 101.53556 60.60592 102.125 60.4375 C 102.71444 60.26909 105.45659 60.14016 105.625 60.6875 C 105.79341 61.23484 106.17927 61.59113 105.96875 61.84375 C 105.75824 62.09636 105.17142 61.7326 105.71875 62.40625 C 106.26609 63.07989 107.53125 63.58028 107.53125 63.875 C 107.53125 64.16972 107.19181 63.90925 107.78125 64.625 C 108.37069 65.34076 108.52995 65.97399 108.65625 65.46875 C 108.78256 64.96352 108.26778 64.48222 108.5625 64.1875 C 108.85722 63.89278 109.16579 64.17272 109.25 64.59375 C 109.3342 65.01478 110.4375 66.15625 110.4375 66.15625 C 112.83645 85.63469 104.90173 96.33495 103.8125 97.53125 C 103.8125 97.53125 104.58158 96.33775 104.75 94.90625 C 104.91841 93.47475 103.86583 93.20842 104.75 91.1875 C 105.63416 89.16655 106.14277 88.90156 106.4375 87.34375 C 106.73222 85.78594 105.70789 84.50654 105.75 83.875 C 105.7921 83.24345 106.55557 81.71706 106.21875 80.875 C 105.88193 80.03294 105.9562 79.42272 105.15625 79.84375 C 104.35629 80.26478 105.53741 78.53686 103.9375 79 C 102.33759 79.46313 102.80819 80.50262 102.21875 80.25 C 101.6293 79.99738 101.92496 80.00131 101.125 79.875 C 100.32504 79.74869 99.47006 79.99738 99.34375 80.25 C 99.217441 80.50262 96.658868 79.00093 96.40625 77.90625 C 96.153632 76.81157 94.762161 75.55296 94.59375 75.46875 C 94.425338 75.38455 94.21875 73.9375 94.21875 73.9375 C 94.21875 73.9375 95.225294 70.52001 94.59375 69.59375 C 93.962205 68.66748 97.65625 64.46875 97.65625 64.46875 C 97.65625 64.46875 98.167101 63.83121 98.125 63.03125 C 98.0829 62.23129 98.254309 62.18712 98.84375 61.21875 C 99.433193 60.25038 99.59375 60.25 99.59375 60.25 z M 55.96875 72.90625 C 56.491419 72.878046 57.612538 73.21087 58.3125 73.46875 C 59.112457 73.76348 61.5 75.16448 61.5 75.375 C 61.5 75.58551 59.73353 75.5421 59.3125 75.5 C 58.89147 75.45789 59.349367 75.36677 59.8125 75.15625 C 60.275633 74.94574 59.195052 74.47805 58.78125 74.28125 C 58.174749 73.99282 57.707516 74.15887 56.78125 73.90625 C 55.854984 73.65364 56.45921 73.65887 56.375 73.40625 C 56.290794 73.15363 54.65625 73.9375 54.65625 73.9375 C 54.487838 73.76909 55.402323 73.10592 55.78125 72.9375 C 55.828616 72.916449 55.894083 72.910279 55.96875 72.90625 z M 63.8125 75.46875 C 64.017157 75.468463 64.20976 75.48366 64.375 75.53125 C 64.846823 75.66714 65.719036 75.83059 65.625 76.3125 C 65.53795 76.75864 64.689737 76.30058 64.28125 76.5 C 64.004643 76.63501 63.927319 77.06719 63.625 77.125 C 63.136084 77.2185 62.513471 76.59375 62.21875 76.59375 C 62.386403 76.56662 62.89043 76.49238 62.9375 76.3125 C 62.991922 76.104543 62.539492 75.682188 62.3125 75.5 C 62.501964 75.626307 63.198528 75.469611 63.8125 75.46875 z M 66.84375 76.28125 C 67.097017 76.238611 67.382358 76.33521 67.5625 76.5 C 67.65798 76.58733 67.74089 76.7771 67.65625 76.875 C 67.407703 77.16241 66.729868 77.11505 66.5 76.8125 C 66.413419 76.69854 66.477419 76.4584 66.59375 76.375 C 66.659896 76.327593 66.759328 76.295463 66.84375 76.28125 z M 58.8125 76.46875 C 58.8125 76.46875 59.401138 76.4874 59.6875 76.5625 C 59.954894 76.63266 60.47328 76.60088 60.4375 76.875 C 60.391514 77.22733 59.744267 77.17203 59.40625 77.0625 C 59.141917 76.97684 58.8125 76.46875 58.8125 76.46875 z M 59.53125 84.34375 C 59.662822 84.333226 59.79145 84.383235 59.8125 84.59375 C 59.854603 85.01478 59.858911 85.59937 60.40625 86.0625 C 60.953585 86.52563 60.39671 86.01047 60.3125 85 C 60.228294 83.98952 60.364528 84.89933 61.375 84.5625 C 62.385472 84.22568 62.123691 84.55857 62.25 84.9375 C 62.376309 85.31642 64.036867 84.90233 64.5 85.28125 C 64.963133 85.66018 66.134925 85.06943 67.1875 85.40625 C 68.240075 85.74308 66.992527 86.45528 68.71875 86.75 C 70.444973 87.04472 68.956969 88.59637 70.09375 88.34375 C 71.230531 88.09113 73.539485 89.19705 73.75 89.28125 C 73.960516 89.36546 74.37631 89.27601 74.25 89.78125 C 74.123692 90.28648 74.429646 90.42964 75.1875 91.1875 C 75.945355 91.94535 75.245311 91.46913 73.6875 92.4375 C 72.129689 93.40584 73.621074 92.6823 74 93.1875 C 74.378928 93.6925 75.225677 93.34115 75.5625 93.59375 C 75.899325 93.84645 76.267778 92.85723 76.5625 92.5625 C 76.857221 92.26778 78.4375 93.1875 78.4375 93.1875 L 78.71875 93.9375 C 78.71875 93.9375 79.444425 93.36145 79.78125 93.65625 C 80.118073 93.95105 81.892779 93.58975 82.1875 93.96875 C 82.482222 94.34765 83.28125 94.9375 83.28125 94.9375 C 83.28089 94.9384 83.608583 94.7688 84.40625 95.125 C 85.527074 95.6255 84.4375 96.8125 84.4375 96.8125 C 84.131617 96.3298 81.770087 99.28555 81.59375 101.53125 C 81.50956 102.60345 80.194412 104.7409 79.21875 105.0625 C 78.253747 105.3805 76.490863 105.114 75.3125 106.1875 C 74.731058 106.7172 75.09375 107.625 75.09375 107.625 C 75.09375 107.625 73.071213 110.4076 71.53125 110.9375 C 70.758699 111.2033 69.09375 110.75 69.09375 110.75 C 69.09375 110.75 70.001407 111.7576 69.75 112.25 C 69.071623 113.5787 66.446501 112.1495 65.375 113.1875 C 64.866464 113.6802 65.382404 114.7562 64.875 115.25 C 64.113511 115.9906 62.737613 116.29825 61.75 115.90625 C 61.243436 115.70525 60.576316 115.0374 60.84375 114.5625 C 61.721448 113.0041 60.75103 111.82825 60.625 111.90625 C 59.869627 112.37105 61.484446 110.1497 61.625 109.1875 C 61.944122 107.0028 62.343698 104.4623 61.21875 102.5625 C 60.524424 101.3899 58.719288 101.3329 57.75 100.375 C 56.48741 99.1274 55.755334 97.42935 54.84375 95.90625 C 54.58893 95.48055 54.10357 95.1207 54.125 94.625 C 54.149038 94.0689 55.376067 93.67865 55.0625 93.21875 C 54.876411 92.94585 54.327177 93.6713 54.09375 93.4375 C 53.768891 93.1123 54.172298 92.50637 54.375 92.09375 C 54.87574 91.07445 56.391211 90.5862 56.59375 89.46875 C 56.729118 88.7219 55.701051 88.09455 55.8125 87.34375 C 55.899465 86.75789 56.439114 86.30724 56.875 85.90625 C 57.565859 85.2707 59.28125 84.4375 59.28125 84.4375 C 59.28125 84.4375 59.399678 84.354274 59.53125 84.34375 z "
       style="opacity:0.75000000000000000;fill:#ffffff;fill-opacity:0.47488588;stroke:none" />
    <path
       style="opacity:0.75;fill:#518687;fill-opacity:0.47488589;stroke:none"
       d="M 72.46875 1.59375 L 1.75 72.3125 L 72.46875 143.03125 L 143.15625 72.3125 L 72.46875 1.59375 z M 66.8125 31.53125 C 66.8125 31.53125 60.887162 33.38754 60.71875 34.1875 C 60.550338 34.98745 55.875 34.625 55.875 34.625 L 59.40625 32.25 L 66.8125 31.53125 z M 71.0625 31.59375 C 75.330588 31.592577 81.531251 32.380346 84.3125 34.875 C 85.073881 35.55793 86.322401 35.5433 86.96875 36.3125 C 87.168612 36.55034 87.460086 36.93347 87.28125 37.1875 C 86.917603 37.70403 85.971242 37.01009 85.375 37.21875 C 84.675562 37.46353 84.252535 38.22318 83.59375 38.5625 C 83.045205 38.84503 82.153536 38.59137 81.84375 39.125 C 81.583904 39.5726 82.1373 40.10988 82.1875 40.625 C 82.24333 41.19787 82.44691 41.89786 82.125 42.375 C 81.808591 42.84399 81.110887 43.1703 80.5625 43.03125 C 80.078084 42.90841 80.126058 42.01413 79.65625 41.84375 C 79.211176 41.68234 79.218368 42.24045 78.25 42.15625 C 77.281631 42.07205 77.210053 41.44814 76.625 41.21875 C 76.342947 41.10813 75.968172 41.24146 75.75 41.03125 C 75.561195 40.84934 75.695831 40.45409 75.53125 40.25 C 75.342097 40.01543 74.550339 39.97006 74.71875 39.84375 C 74.887165 39.71744 75.160967 39.19277 74.9375 39.03125 C 74.666184 38.83514 74.418196 39.67625 74.09375 39.59375 C 73.722501 39.49935 73.5566 38.94472 73.53125 38.5625 C 73.515598 38.326482 73.83623 37.832814 73.90625 37.6875 C 73.899447 37.693255 73.885526 37.676975 73.875 37.6875 C 73.664485 37.89802 73.299704 37.77836 73.125 37.59375 C 72.951102 37.40998 72.936775 37.04218 73.09375 36.84375 C 73.341413 36.5307 73.618456 36.7092 74.25 36.625 C 74.881541 36.54079 74.39671 36.25392 74.3125 35.875 C 74.228293 35.49607 74.38978 35.55688 73.96875 35.09375 C 73.547719 34.63061 73.810809 34.74176 72.96875 34.53125 C 72.12669 34.32073 72.285177 34.85591 71.90625 34.6875 C 71.527323 34.51909 72.039485 34.40887 72.25 34.15625 C 72.460515 33.90363 70.720059 32.97137 70.59375 32.71875 C 70.467441 32.46613 67.692736 32.59375 67.1875 32.59375 C 65.592566 32.064007 67.742876 31.594663 71.0625 31.59375 z M 57.25 32.9375 C 56.295873 33.4287 57.301581 33.91505 54.34375 34.40625 L 52.96875 34.53125 L 57.25 32.9375 z M 54.6875 34.96875 C 55.40163 34.940423 55.973026 35.21655 56.65625 35.25 C 55.882244 35.52928 55.367315 35.98085 53.96875 35.84375 L 53.9375 35.125 C 54.218286 35.03007 54.449457 34.978192 54.6875 34.96875 z M 52.25 35.28125 C 51.772833 35.97665 50.320917 36.62957 49.84375 36.8125 C 50.088082 36.36455 49.423786 35.73782 51.1875 35.59375 L 52.25 35.28125 z M 59.4375 35.46875 C 59.53108 35.468914 59.61941 35.478949 59.65625 35.5 C 59.950971 35.66841 59.17204 36.08607 59.34375 36.3125 C 59.556432 36.59296 60.153632 36.21875 60.40625 36.21875 C 60.658868 36.21875 61.53294 35.65494 62.375 35.78125 C 63.21706 35.90756 62.620344 36.30244 62.84375 36.4375 C 63.973299 37.12034 65.981293 37.03125 66.78125 37.03125 C 67.581207 37.03125 66.30296 37.57767 66.21875 38.125 C 66.134544 38.67234 69.921411 38.94312 70.46875 39.40625 C 71.016089 39.86938 69.168412 40.01647 69 40.4375 C 68.831588 40.85853 67.821061 39.16526 67.09375 39.28125 C 66.818652 39.32512 66.773015 39.56943 66.5625 39.90625 C 66.351985 40.24308 67.565499 40.5655 68.28125 41.28125 C 68.997001 41.997 68.28125 42.50262 68.28125 42.25 C 68.28125 41.99738 66.043412 41.35199 65.875 41.5625 C 65.706588 41.77302 67.646413 42.24071 67.34375 42.8125 C 66.867522 43.71218 65.333 42.45239 64.40625 42.03125 C 63.899501 41.80098 63.747001 40.75692 63.03125 41.09375 C 62.315499 41.43057 60.539943 42.00631 60.4375 41.15625 C 60.361732 40.52754 61.512543 40.67665 62.3125 40.71875 C 63.112457 40.76085 62.71875 40.34375 62.71875 40.34375 C 62.71875 40.34375 62.932264 39.61114 63.4375 38.9375 C 63.942736 38.26385 62.25954 38.11676 62.34375 37.90625 C 62.427956 37.69573 60.934828 36.9905 60.15625 37.0625 C 59.729622 37.10196 59.476771 37.60944 59.0625 37.71875 C 58.302101 37.91939 57.502772 37.59485 56.71875 37.65625 C 56.205623 37.69645 55.70165 37.9137 55.1875 37.9375 C 55.046607 37.944 54.888527 37.99785 54.78125 37.90625 C 54.571532 37.72724 54.899324 37.43058 54.5625 37.09375 C 54.225676 36.75693 56.4375 35.875 56.4375 35.875 C 56.4375 35.875 56.3033 36.26802 56.3125 36.46875 C 56.323294 36.70376 56.53125 36.77732 56.53125 37.15625 C 56.53125 37.53517 57.069426 37.34768 57.40625 36.96875 C 57.743074 36.58983 57.220059 36.88024 57.09375 36.375 C 56.98323 35.932924 58.782437 35.4676 59.4375 35.46875 z M 54.25 36.34375 C 53.806631 37.02313 53.367419 37.68215 52.15625 37.59375 L 52.0625 37.28125 C 52.619531 36.1951 53.488812 36.51119 54.25 36.34375 z M 51.0625 37.0625 L 51.28125 37.34375 C 51.24229 37.66591 51.484833 37.95117 50.9375 38.375 C 50.552164 38.53701 50.168202 38.68336 49.5625 38.625 C 49.249022 38.621 48.866422 38.83349 48.65625 38.3125 L 48.84375 37.71875 C 49.635962 37.59098 50.382132 37.41395 51.0625 37.0625 z M 47.9375 37.1875 C 47.641223 37.55395 47.371388 37.90219 46.96875 38.375 C 46.800667 38.52465 45.079335 38.93807 44.125 39.21875 L 44.96875 38.65625 L 47.9375 37.1875 z M 56.90625 37.90625 C 57.455909 37.849612 58.417109 38.016906 58.65625 38.375 C 58.895339 38.73302 58.21875 39.59375 58.21875 39.59375 C 57.712654 39.54612 56.564689 39.85343 55.28125 40.25 C 55.409209 40.25 56.953492 38.61183 56.59375 38.25 C 56.411587 38.066783 56.576454 37.940233 56.90625 37.90625 z M 55.0625 38.75 C 55.192754 38.742107 54.5 39.15167 54.5 39.59375 C 54.5 40.18319 55.533868 40.18488 55.28125 40.4375 C 55.028636 40.69012 54.9375 41.08852 54.9375 41.59375 C 54.9375 42.099 54.775252 41.93488 53.34375 42.1875 C 51.912248 42.44011 50.127618 45.40794 49.875 46.25 C 49.622382 47.09206 51.155322 46.32112 52.25 47.5 C 53.344678 48.67889 56.875 48.6875 56.875 48.6875 C 56.875 48.6875 57.039866 50.77078 58.21875 51.78125 C 59.39763 52.79172 59.131926 50.96706 59.46875 50.125 C 59.792943 49.314517 58.825603 48.962043 58.75 48.9375 C 58.81267 48.954923 59.045798 48.93467 59.90625 48.5 C 61.23976 47.82635 61.312143 46.83945 60.75 46.25 C 60.30741 45.78592 59.89147 45.23353 60.3125 44.8125 C 60.733526 44.39147 60.502618 44.72923 60.25 43.71875 C 59.997382 42.70829 60.058954 42.36022 61.40625 42.78125 C 62.753546 43.20228 63.84713 42.61715 65.53125 43.375 C 67.21537 44.13285 65.305574 44.46352 64.96875 44.96875 C 64.631926 45.47399 66.052028 45.65625 67.0625 45.65625 C 68.072968 45.65625 68.15625 44.21875 68.15625 44.21875 C 70.016534 43.88052 70.070253 45.22968 70.5 46.0625 C 71.019495 47.06924 69.84375 46.90625 69.84375 46.90625 C 70.479205 48.10538 71.738407 48.05314 72.78125 48.4375 L 71.34375 49.1875 C 71.34375 49.1875 72.357602 49.0842 73.03125 49 C 73.704898 48.91579 74.3125 49.6875 74.3125 49.6875 L 74.21875 50.78125 L 72.625 51.03125 L 70.84375 52.0625 C 70.84375 52.0625 69.581754 51.29248 66.71875 52.21875 C 64.464134 52.948188 64.373589 54.652053 64.46875 54.8125 C 64.487386 54.778237 64.520724 54.699335 64.53125 54.5625 C 64.615456 53.46782 67.65625 52.8125 67.65625 52.8125 C 67.65625 52.8125 68.831588 52.80988 69 53.0625 C 69.168412 53.31512 68.5 53.65625 68.5 53.65625 C 68.5 53.65625 67.14671 52.97305 67.0625 53.5625 C 66.978294 54.15194 68 53.71875 68 53.71875 C 68 53.71875 68.497382 54.3359 68.75 55.09375 C 69.002618 55.85161 69.758459 55.19973 70.25 55.34375 C 70.45514 55.40386 70.84375 55.59375 70.84375 55.59375 C 70.846997 55.693065 70.847358 55.832106 70.78125 55.90625 C 70.35079 56.38909 69.728373 55.948 68.90625 56.4375 C 68.756752 56.86152 68.690553 57.34415 68 57.28125 C 67.930971 57.31083 67.446541 56.87858 67.65625 56.5 C 67.785279 56.26706 68.83602 56.31572 68.90625 55.84375 C 68.92962 55.6867 68.718951 55.5271 68.5625 55.5 C 67.981048 55.39929 66.96875 56.25 66.96875 56.25 C 66.96875 56.25 65.532178 55.48429 64.4375 57 C 63.342822 58.51571 65.063744 58.09758 64.78125 58.53125 C 64.625012 58.77106 63.9375 58.6875 63.9375 58.6875 C 63.9375 58.6875 60.315118 59.97044 60.0625 60.8125 C 59.809882 61.65456 61.31595 62.996 60.65625 63.75 C 59.495567 65.0766 56.276014 65.85667 56.78125 67.625 C 57.286486 69.39332 56.795102 68.11883 57.46875 69.71875 C 58.142398 71.31866 57.377618 71.8342 57.125 71.75 C 56.872382 71.6658 56.70228 70.57036 56.28125 69.8125 C 55.860224 69.05465 55.78125 67.96875 55.78125 67.96875 C 55.78125 67.96875 53.760472 67.69966 52.75 67.53125 C 51.739528 67.36284 51.721368 67.55203 51.46875 68.5625 C 51.216132 69.57297 50.375 68.5625 50.375 68.5625 C 50.375 68.5625 47.35684 66.8739 46.09375 71 C 44.83066 75.12609 47.78125 76.375 47.78125 76.375 C 47.78125 76.375 49.433291 76.79742 50.0625 76.375 C 50.616431 76.00312 50.266432 74.91458 50.8125 74.53125 C 51.364337 74.14387 53.217319 73.87622 52.84375 74.4375 C 51.57856 76.33839 50.799606 77.25056 51.5625 78.40625 C 52.2149 79.39456 54.273062 77.89628 55.09375 78.75 C 55.795108 79.47959 54.86817 80.85737 55.28125 81.78125 C 55.55669 82.3973 56.71875 83.21875 56.71875 83.21875 C 56.71875 83.21875 57.765758 82.56982 58.3125 82.6875 C 59.012091 82.83809 59.90625 84.125 59.90625 84.125 L 59.3125 84.21875 C 59.3125 84.21875 58.831527 83.2065 58.375 83.1875 C 57.878847 83.16679 57.772284 84.14475 57.28125 84.21875 C 56.573635 84.32545 55.921606 83.70337 55.34375 83.28125 C 54.814621 82.89473 54.456274 82.31406 54 81.84375 C 53.419553 81.24545 52.978607 80.49873 52.25 80.09375 C 51.494226 79.67366 50.480131 79.90984 49.71875 79.5 C 49.071885 79.1518 48.826192 78.18785 48.125 77.96875 C 47.772618 77.85863 47.39402 78.22475 47.03125 78.15625 C 45.053875 77.7827 43.059131 76.7047 41.8125 75.125 C 41.267884 74.43488 41.391349 73.39575 41.03125 72.59375 C 40.22081 70.78875 39.609195 68.58968 37.9375 67.53125 C 37.722752 67.39525 37.17439 67.21523 37.15625 67.46875 C 37.046332 69.00526 39.785147 73.09375 39.03125 73.09375 C 38.048846 70.90439 37.718298 74.37712 36.0625 66.53125 C 35.113408 65.89539 34.225404 65.09065 33.71875 62.90625 C 33.689853 61.34487 33.235322 60.33823 34.46875 57.09375 C 35.084561 57.17625 35.15161 56.71617 35.21875 56.25 C 34.886341 55.69462 34.565819 55.10705 34.125 55.09375 L 33.71875 55 C 33.71852 54.24237 33.59894 52.87119 32.96875 52.09375 C 32.909467 52.02064 32.71875 51.96875 32.71875 51.96875 L 31.9375 52.46875 C 33.94128 49.53369 35.546357 46.37138 38.59375 44.0625 L 39.78125 43.125 L 42.46875 42.625 L 46.4375 41.1875 L 48.53125 40.84375 C 48.997087 41.309585 50.729328 40.19039 52.03125 39.21875 C 51.406738 39.793806 53.030026 38.7395 53.5 39.34375 C 54.089442 40.10161 53.499072 39.32728 54.59375 38.90625 C 54.867418 38.800992 55.019082 38.752631 55.0625 38.75 z M 87.0625 38.90625 C 87.811702 38.912519 89.068041 39.38597 89.84375 39.5 C 90.576903 39.60778 92.312731 40.66431 91.59375 40.84375 C 90.638954 41.08205 89.679884 41.08999 88.84375 40.6875 C 88.299198 40.42536 88.934868 40.32748 86.5 39.09375 C 86.599795 38.95773 86.812766 38.90416 87.0625 38.90625 z M 45.8125 39.28125 C 45.8125 39.28125 47.133235 39.96314 47.34375 39.5 C 47.554265 39.03687 48.474629 39.35182 48.59375 39.75 C 48.684767 40.05424 47.90625 40.18488 47.90625 40.4375 C 47.90625 40.69012 46.435552 40.46522 45.75 40.6875 C 44.847508 40.98012 43.575971 41.68357 43.28125 42.0625 C 42.986529 42.44142 41.59375 42.1875 41.59375 42.1875 C 41.59375 42.1875 42.297339 41.01778 41.75 41.3125 C 41.202661 41.60722 40.0625 42.5 40.0625 42.5 L 42.71875 40.09375 C 42.71875 40.09375 44.100676 39.84637 44.4375 39.59375 C 44.774324 39.34113 45.8125 39.28125 45.8125 39.28125 z M 57.6875 40.625 C 57.923094 40.645858 58.11875 40.788114 58.25 40.96875 C 58.442588 41.2338 58.09375 41.9375 58.09375 41.9375 C 58.028425 42.31312 57.13585 41.35891 57.09375 41.90625 C 57.051647 42.45358 54.9375 42.4375 54.9375 42.4375 C 54.9375 42.4375 55.278809 41.13127 55.8125 40.8125 C 56.173961 40.5966 56.630617 41.14932 57.09375 40.8125 C 57.209533 40.728293 57.323499 40.681339 57.4375 40.65625 C 57.523001 40.637434 57.608969 40.618047 57.6875 40.625 z M 99.90625 45.21875 C 100.07992 45.197698 100.25 45.21875 100.25 45.21875 C 100.25 45.21875 103.56119 49.65102 103.6875 50.15625 C 103.81381 50.66149 103.21744 50.32466 103.34375 50.15625 C 103.47006 49.98784 101.875 48.04472 101.875 47.75 C 101.875 47.45528 101.25393 47.88455 100.875 47.96875 C 100.49607 48.05295 99.48915 45.80557 99.53125 45.46875 C 99.552302 45.30034 99.732576 45.239802 99.90625 45.21875 z M 96.75 45.625 C 96.849995 45.619737 97.007581 45.62435 97.28125 45.6875 C 97.828593 45.81381 97.24869 46.01647 97.375 46.4375 C 97.501308 46.85853 97.600677 46.35067 97.9375 46.6875 C 98.274326 47.02432 97.875 47.28125 97.875 47.28125 C 97.875 47.28125 99.682267 49.54772 100.1875 49.96875 C 100.69273 50.38978 100.28125 50.75 100.28125 50.75 C 100.28125 50.75 100.244 50.93881 98.8125 50.8125 C 97.380997 50.68619 98.30296 50.90064 98.21875 50.4375 C 98.134545 49.97437 98.308573 50.46051 98.6875 50.25 C 99.066426 50.03948 98.14671 49.94405 98.0625 49.3125 C 97.978294 48.68095 98.059882 49.08814 98.3125 48.625 C 98.565119 48.16187 97.972677 48.26609 97.59375 47.71875 C 97.214824 47.17141 97.680575 47.46444 97.34375 46.875 C 97.006927 46.28556 96.855912 46.7921 96.6875 46.75 C 96.51909 46.7079 96.625 45.65625 96.625 45.65625 C 96.625 45.65625 96.650005 45.630263 96.75 45.625 z M 96.09375 47.25 C 96.183219 47.234211 96.371072 47.280595 96.75 47.34375 C 97.507852 47.47006 97.366765 47.92272 97.15625 48.34375 C 96.945731 48.76478 97.304265 48.80727 97.09375 49.3125 C 96.883235 49.81774 96.276943 49.45097 95.6875 49.15625 C 95.098059 48.86153 95.561192 48.80558 95.6875 48.46875 C 95.81381 48.13193 95.40625 47.71875 95.40625 47.71875 C 95.40625 47.71875 95.9579 47.72137 96 47.46875 C 96.021051 47.34244 96.004281 47.265789 96.09375 47.25 z M 101.96875 48.75 C 102.22137 48.79211 102.5 50.12238 102.5 50.375 C 102.5 50.62762 103.81157 51.36022 104.90625 51.78125 C 106.00093 52.20228 109.63585 62.61284 109.59375 62.78125 C 109.55165 62.94966 108.36676 59.82205 108.15625 59.90625 C 107.94573 59.99045 108.64801 61.93881 108.4375 61.8125 C 108.22699 61.68619 107.70228 59.87724 107.28125 58.65625 C 106.86022 57.43526 106.79865 58.39502 106.125 57.46875 C 105.45136 56.54249 105.79734 56.32859 105.25 55.78125 C 104.70266 55.23392 105.05295 55.79902 104.96875 56.09375 C 104.88455 56.38847 107.44143 59.63455 107.0625 59.71875 C 106.68357 59.80296 104.52432 56.16841 104.1875 56 C 103.85067 55.83159 103.94012 56.24738 103.6875 56.5 C 103.43488 56.75261 103.31511 56.44012 103.0625 56.1875 C 102.80988 55.93488 102.47005 56.00824 102.34375 56.21875 C 102.21744 56.42927 102.5 56.96875 102.5 56.96875 C 102.5 56.96875 101.76347 57.35892 101.46875 57.90625 C 101.17403 58.45359 101.41449 57.97306 101.625 58.5625 C 101.83552 59.15194 101.23484 59.36022 100.6875 59.78125 C 100.14016 60.20228 100.23353 59.58158 99.8125 59.75 C 99.39147 59.91841 99.59375 60.1875 99.59375 60.1875 C 99.59375 60.1875 99.497002 60.16542 98.78125 59.28125 C 98.065499 58.39709 98.065118 59.15063 97.8125 58.6875 C 97.559879 58.22437 97.549029 58.11938 97.84375 57.65625 C 98.138472 57.19311 97.09375 56.2015 97.09375 55.03125 C 97.09375 54.84272 99.425718 54.86415 100.5625 55.375 C 101.62469 55.85234 99.769086 53.57467 99.9375 53.40625 C 100.10591 53.23784 99.07597 52.38024 98.78125 51.875 C 98.486529 51.36976 99.117146 51.88455 99.875 51.96875 C 100.63285 52.05296 99.343382 51.58935 99.46875 51.40625 C 99.672602 51.10854 99.815495 51.61415 100.53125 51.65625 C 101.247 51.69835 100.65363 51.25131 100.90625 51.125 C 101.15887 50.99869 101.46875 50.6875 101.46875 50.6875 L 101.53125 50.3125 C 101.53125 50.3125 102.2908 50.49177 102.375 50.28125 C 102.4592 50.07074 101.96875 49.4375 101.96875 49.4375 C 101.96875 49.4375 101.71613 48.7079 101.96875 48.75 z M 74.65625 50.9375 C 74.69879 50.947835 74.716926 51.009689 74.6875 51.15625 C 74.508707 52.04678 74.984674 53.54657 75.59375 52.9375 C 75.59375 52.9375 76.650634 52.89709 76.1875 53.78125 C 75.724367 54.66541 76.0625 54.125 76.0625 54.125 C 76.0625 54.125 77.245693 54.20395 76.65625 54.625 C 76.066808 55.04601 75.875 54.3125 75.875 54.3125 C 75.875 54.3125 75.494383 54.75 75.03125 54.75 C 74.568117 54.75 75.3125 54.125 75.3125 54.125 C 75.3125 54.125 72.604604 54.44143 72.5625 54.0625 C 72.525662 53.730928 74.358473 50.865153 74.65625 50.9375 z M 71.625 54.5625 C 71.674727 54.551906 71.736634 54.5524 71.78125 54.5625 C 72.039509 54.62099 72.293882 55.00751 72.1875 55.25 C 72.003932 55.66843 70.84375 55.5 70.84375 55.5 L 70.84375 55.15625 C 70.84375 55.15625 71.276911 54.636658 71.625 54.5625 z M 104.40625 57.0625 L 104.625 57.6875 L 104.375 57.59375 L 104.40625 57.0625 z M 104.53125 58.15625 L 104.90625 58.15625 L 105.09375 59.25 L 104.65625 59.28125 L 104.53125 58.15625 z M 106.8125 59.875 L 107.1875 60.25 L 106.90625 60.96875 L 106.21875 60.34375 L 107.03125 60.4375 L 106.8125 59.875 z M 99.59375 60.25 C 99.59375 60.25 99.325038 60.71875 100.125 60.71875 C 100.92495 60.71875 101.53556 60.60592 102.125 60.4375 C 102.71444 60.26909 105.45659 60.14016 105.625 60.6875 C 105.79341 61.23484 106.17927 61.59113 105.96875 61.84375 C 105.75824 62.09636 105.17142 61.7326 105.71875 62.40625 C 106.26609 63.07989 107.53125 63.58028 107.53125 63.875 C 107.53125 64.16972 107.19181 63.90925 107.78125 64.625 C 108.37069 65.34076 108.52995 65.97399 108.65625 65.46875 C 108.78256 64.96352 108.26778 64.48222 108.5625 64.1875 C 108.85722 63.89278 109.16579 64.17272 109.25 64.59375 C 109.3342 65.01478 110.4375 66.15625 110.4375 66.15625 C 112.83645 85.63469 104.90173 96.33495 103.8125 97.53125 C 103.8125 97.53125 104.58158 96.33775 104.75 94.90625 C 104.91841 93.47475 103.86583 93.20842 104.75 91.1875 C 105.63416 89.16655 106.14277 88.90156 106.4375 87.34375 C 106.73222 85.78594 105.70789 84.50654 105.75 83.875 C 105.7921 83.24345 106.55557 81.71706 106.21875 80.875 C 105.88193 80.03294 105.9562 79.42272 105.15625 79.84375 C 104.35629 80.26478 105.53741 78.53686 103.9375 79 C 102.33759 79.46313 102.80819 80.50262 102.21875 80.25 C 101.6293 79.99738 101.92496 80.00131 101.125 79.875 C 100.32504 79.74869 99.47006 79.99738 99.34375 80.25 C 99.217441 80.50262 96.658868 79.00093 96.40625 77.90625 C 96.153632 76.81157 94.762161 75.55296 94.59375 75.46875 C 94.425338 75.38455 94.21875 73.9375 94.21875 73.9375 C 94.21875 73.9375 95.225294 70.52001 94.59375 69.59375 C 93.962205 68.66748 97.65625 64.46875 97.65625 64.46875 C 97.65625 64.46875 98.167101 63.83121 98.125 63.03125 C 98.0829 62.23129 98.254309 62.18712 98.84375 61.21875 C 99.433193 60.25038 99.59375 60.25 99.59375 60.25 z M 55.96875 72.90625 C 56.491419 72.878046 57.612538 73.21087 58.3125 73.46875 C 59.112457 73.76348 61.5 75.16448 61.5 75.375 C 61.5 75.58551 59.73353 75.5421 59.3125 75.5 C 58.89147 75.45789 59.349367 75.36677 59.8125 75.15625 C 60.275633 74.94574 59.195052 74.47805 58.78125 74.28125 C 58.174749 73.99282 57.707516 74.15887 56.78125 73.90625 C 55.854984 73.65364 56.45921 73.65887 56.375 73.40625 C 56.290794 73.15363 54.65625 73.9375 54.65625 73.9375 C 54.487838 73.76909 55.402323 73.10592 55.78125 72.9375 C 55.828616 72.916449 55.894083 72.910279 55.96875 72.90625 z M 63.8125 75.46875 C 64.017157 75.468463 64.20976 75.48366 64.375 75.53125 C 64.846823 75.66714 65.719036 75.83059 65.625 76.3125 C 65.53795 76.75864 64.689737 76.30058 64.28125 76.5 C 64.004643 76.63501 63.927319 77.06719 63.625 77.125 C 63.136084 77.2185 62.513471 76.59375 62.21875 76.59375 C 62.386403 76.56662 62.89043 76.49238 62.9375 76.3125 C 62.991922 76.104543 62.539492 75.682188 62.3125 75.5 C 62.501964 75.626307 63.198528 75.469611 63.8125 75.46875 z M 66.84375 76.28125 C 67.097017 76.238611 67.382358 76.33521 67.5625 76.5 C 67.65798 76.58733 67.74089 76.7771 67.65625 76.875 C 67.407703 77.16241 66.729868 77.11505 66.5 76.8125 C 66.413419 76.69854 66.477419 76.4584 66.59375 76.375 C 66.659896 76.327593 66.759328 76.295463 66.84375 76.28125 z M 58.8125 76.46875 C 58.8125 76.46875 59.401138 76.4874 59.6875 76.5625 C 59.954894 76.63266 60.47328 76.60088 60.4375 76.875 C 60.391514 77.22733 59.744267 77.17203 59.40625 77.0625 C 59.141917 76.97684 58.8125 76.46875 58.8125 76.46875 z M 59.53125 84.34375 C 59.662822 84.333226 59.79145 84.383235 59.8125 84.59375 C 59.854603 85.01478 59.858911 85.59937 60.40625 86.0625 C 60.953585 86.52563 60.39671 86.01047 60.3125 85 C 60.228294 83.98952 60.364528 84.89933 61.375 84.5625 C 62.385472 84.22568 62.123691 84.55857 62.25 84.9375 C 62.376309 85.31642 64.036867 84.90233 64.5 85.28125 C 64.963133 85.66018 66.134925 85.06943 67.1875 85.40625 C 68.240075 85.74308 66.992527 86.45528 68.71875 86.75 C 70.444973 87.04472 68.956969 88.59637 70.09375 88.34375 C 71.230531 88.09113 73.539485 89.19705 73.75 89.28125 C 73.960516 89.36546 74.37631 89.27601 74.25 89.78125 C 74.123692 90.28648 74.429646 90.42964 75.1875 91.1875 C 75.945355 91.94535 75.245311 91.46913 73.6875 92.4375 C 72.129689 93.40584 73.621074 92.6823 74 93.1875 C 74.378928 93.6925 75.225677 93.34115 75.5625 93.59375 C 75.899325 93.84645 76.267778 92.85723 76.5625 92.5625 C 76.857221 92.26778 78.4375 93.1875 78.4375 93.1875 L 78.71875 93.9375 C 78.71875 93.9375 79.444425 93.36145 79.78125 93.65625 C 80.118073 93.95105 81.892779 93.58975 82.1875 93.96875 C 82.482222 94.34765 83.28125 94.9375 83.28125 94.9375 C 83.28089 94.9384 83.608583 94.7688 84.40625 95.125 C 85.527074 95.6255 84.4375 96.8125 84.4375 96.8125 C 84.131617 96.3298 81.770087 99.28555 81.59375 101.53125 C 81.50956 102.60345 80.194412 104.7409 79.21875 105.0625 C 78.253747 105.3805 76.490863 105.114 75.3125 106.1875 C 74.731058 106.7172 75.09375 107.625 75.09375 107.625 C 75.09375 107.625 73.071213 110.4076 71.53125 110.9375 C 70.758699 111.2033 69.09375 110.75 69.09375 110.75 C 69.09375 110.75 70.001407 111.7576 69.75 112.25 C 69.071623 113.5787 66.446501 112.1495 65.375 113.1875 C 64.866464 113.6802 65.382404 114.7562 64.875 115.25 C 64.113511 115.9906 62.737613 116.29825 61.75 115.90625 C 61.243436 115.70525 60.576316 115.0374 60.84375 114.5625 C 61.721448 113.0041 60.75103 111.82825 60.625 111.90625 C 59.869627 112.37105 61.484446 110.1497 61.625 109.1875 C 61.944122 107.0028 62.343698 104.4623 61.21875 102.5625 C 60.524424 101.3899 58.719288 101.3329 57.75 100.375 C 56.48741 99.1274 55.755334 97.42935 54.84375 95.90625 C 54.58893 95.48055 54.10357 95.1207 54.125 94.625 C 54.149038 94.0689 55.376067 93.67865 55.0625 93.21875 C 54.876411 92.94585 54.327177 93.6713 54.09375 93.4375 C 53.768891 93.1123 54.172298 92.50637 54.375 92.09375 C 54.87574 91.07445 56.391211 90.5862 56.59375 89.46875 C 56.729118 88.7219 55.701051 88.09455 55.8125 87.34375 C 55.899465 86.75789 56.439114 86.30724 56.875 85.90625 C 57.565859 85.2707 59.28125 84.4375 59.28125 84.4375 C 59.28125 84.4375 59.399678 84.354274 59.53125 84.34375 z "
       transform="translate(0,907.36218)"
       id="rect2985" />
  </g>
</svg>
