<?xml version="1.0" encoding="UTF-8" standalone="no"?>
<!-- Created with Inkscape (http://www.inkscape.org/) -->

<svg
   xmlns:dc="http://purl.org/dc/elements/1.1/"
   xmlns:cc="http://creativecommons.org/ns#"
   xmlns:rdf="http://www.w3.org/1999/02/22-rdf-syntax-ns#"
   xmlns:svg="http://www.w3.org/2000/svg"
   xmlns="http://www.w3.org/2000/svg"
   xmlns:sodipodi="http://sodipodi.sourceforge.net/DTD/sodipodi-0.dtd"
   xmlns:inkscape="http://www.inkscape.org/namespaces/inkscape"
   width="145"
   height="145"
   id="svg2"
   version="1.1"
   inkscape:version="0.48.3.1 r9886"
   sodipodi:docname="email2.svg">
  <defs
     id="defs4" />
  <sodipodi:namedview
     id="base"
     pagecolor="#ffffff"
     bordercolor="#666666"
     borderopacity="1.0"
     inkscape:pageopacity="0.0"
     inkscape:pageshadow="2"
     inkscape:zoom="3.959798"
     inkscape:cx="2.7513993"
     inkscape:cy="77.760525"
     inkscape:document-units="px"
     inkscape:current-layer="layer1"
     showgrid="false"
     inkscape:window-width="1215"
     inkscape:window-height="1000"
     inkscape:window-x="65"
     inkscape:window-y="24"
     inkscape:window-maximized="1" />
  <metadata
     id="metadata7">
    <rdf:RDF>
      <cc:Work
         rdf:about="">
        <dc:format>image/svg+xml</dc:format>
        <dc:type
           rdf:resource="http://purl.org/dc/dcmitype/StillImage" />
        <dc:title />
      </cc:Work>
    </rdf:RDF>
  </metadata>
  <g
     inkscape:label="Layer 1"
     inkscape:groupmode="layer"
     id="layer1"
     transform="translate(0,-907.36218)">
    <path
       id="path4887"
       transform="translate(0,907.36218)"
       d="M 71.96875 1.59375 L 1.25 72.28125 L 71.96875 143 L 142.65625 72.28125 L 71.96875 1.59375 z M 69 42.59375 C 79.95193 42.61556 92.240425 48.24887 97.6875 58.21875 C 100.08569 62.60816 101.33439 68.13949 101.125 73.5625 C 100.91561 78.98551 99.235499 84.45502 95.03125 87.96875 C 93.466901 89.27617 91.631336 89.52325 89.96875 89.53125 C 88.306164 89.5392 86.671644 89.263 85.1875 88.90625 C 83.259906 88.4429 82.623631 88.12098 81.65625 87.75 C 81.61564 87.7772 81.57141 87.81755 81.53125 87.84375 C 80.777413 88.33506 79.968898 88.65056 79.09375 88.9375 C 77.343454 89.51138 75.29389 89.87739 73.09375 90 C 68.69347 90.24523 63.684992 89.8965 60.40625 86.5 C 57.168474 83.14593 56.060505 78.32738 56.28125 73.6875 C 56.501995 69.04762 58.049501 64.41918 61.15625 61.15625 C 64.273882 57.8819 69.104985 57.00932 73.46875 56.78125 C 75.650632 56.66722 77.721678 56.78082 79.5 57.21875 C 80.389161 57.43772 81.201019 57.7124 82.03125 58.28125 C 82.861481 58.8501 83.82888 59.96625 83.90625 61.40625 C 84.003443 63.21521 83.89268 68.59381 83.8125 74.03125 C 83.74798 78.40694 83.71452 81.06972 83.6875 82.53125 C 84.526806 82.84609 85.004011 83.10915 86.5 83.46875 C 87.711772 83.76003 88.981635 83.9425 89.9375 83.9375 C 90.893365 83.93293 91.41115 83.67825 91.4375 83.65625 C 93.970604 81.53919 95.362333 77.71866 95.53125 73.34375 C 95.700167 68.96884 94.593002 64.19105 92.78125 60.875 C 88.693605 53.39335 77.90308 48.23655 68.96875 48.21875 C 61.404965 48.20369 52.272073 52.63214 48.6875 58.90625 C 43.928689 67.23565 44.132161 79.17954 49.46875 88 C 54.805339 96.8205 64.85001 102.82265 81.09375 99.71875 L 82.125 105.21875 C 64.07153 108.66845 51.118881 101.5362 44.6875 90.90625 C 38.256119 80.27629 37.912901 66.45114 43.8125 56.125 C 48.746787 47.48847 59.391225 42.57465 69 42.59375 z M 73.78125 62.375 C 70.25372 62.55936 66.205898 63.93041 65.1875 65 C 63.357189 66.92232 62.041937 70.45986 61.875 73.96875 C 61.708063 77.47764 62.702686 80.79663 64.4375 82.59375 C 65.426668 83.61845 69.229515 84.60419 72.78125 84.40625 C 74.557118 84.30728 76.261053 83.99024 77.375 83.625 C 77.741834 83.50472 77.887603 83.41432 78.09375 83.3125 C 78.11186 82.34395 78.14781 78.7798 78.21875 73.96875 C 78.29219 68.98878 78.33651 64.14521 78.3125 62.71875 C 78.22706 62.69115 78.261433 62.68215 78.15625 62.65625 C 77.203986 62.4217 75.545015 62.2828 73.78125 62.375 z "
       style="opacity:0.75000000000000000;fill:#ffffff;fill-opacity:0.47488588;stroke:none" />
    <path
       style="opacity:0.75;fill:#518687;fill-opacity:0.47488589;stroke:none"
       d="M 71.96875 1.59375 L 1.25 72.28125 L 71.96875 143 L 142.65625 72.28125 L 71.96875 1.59375 z M 69 42.59375 C 79.95193 42.61556 92.240425 48.24887 97.6875 58.21875 C 100.08569 62.60816 101.33439 68.13949 101.125 73.5625 C 100.91561 78.98551 99.235499 84.45502 95.03125 87.96875 C 93.466901 89.27617 91.631336 89.52325 89.96875 89.53125 C 88.306164 89.5392 86.671644 89.263 85.1875 88.90625 C 83.259906 88.4429 82.623631 88.12098 81.65625 87.75 C 81.61564 87.7772 81.57141 87.81755 81.53125 87.84375 C 80.777413 88.33506 79.968898 88.65056 79.09375 88.9375 C 77.343454 89.51138 75.29389 89.87739 73.09375 90 C 68.69347 90.24523 63.684992 89.8965 60.40625 86.5 C 57.168474 83.14593 56.060505 78.32738 56.28125 73.6875 C 56.501995 69.04762 58.049501 64.41918 61.15625 61.15625 C 64.273882 57.8819 69.104985 57.00932 73.46875 56.78125 C 75.650632 56.66722 77.721678 56.78082 79.5 57.21875 C 80.389161 57.43772 81.201019 57.7124 82.03125 58.28125 C 82.861481 58.8501 83.82888 59.96625 83.90625 61.40625 C 84.003443 63.21521 83.89268 68.59381 83.8125 74.03125 C 83.74798 78.40694 83.71452 81.06972 83.6875 82.53125 C 84.526806 82.84609 85.004011 83.10915 86.5 83.46875 C 87.711772 83.76003 88.981635 83.9425 89.9375 83.9375 C 90.893365 83.93293 91.41115 83.67825 91.4375 83.65625 C 93.970604 81.53919 95.362333 77.71866 95.53125 73.34375 C 95.700167 68.96884 94.593002 64.19105 92.78125 60.875 C 88.693605 53.39335 77.90308 48.23655 68.96875 48.21875 C 61.404965 48.20369 52.272073 52.63214 48.6875 58.90625 C 43.928689 67.23565 44.132161 79.17954 49.46875 88 C 54.805339 96.8205 64.85001 102.82265 81.09375 99.71875 L 82.125 105.21875 C 64.07153 108.66845 51.118881 101.5362 44.6875 90.90625 C 38.256119 80.27629 37.912901 66.45114 43.8125 56.125 C 48.746787 47.48847 59.391225 42.57465 69 42.59375 z M 73.78125 62.375 C 70.25372 62.55936 66.205898 63.93041 65.1875 65 C 63.357189 66.92232 62.041937 70.45986 61.875 73.96875 C 61.708063 77.47764 62.702686 80.79663 64.4375 82.59375 C 65.426668 83.61845 69.229515 84.60419 72.78125 84.40625 C 74.557118 84.30728 76.261053 83.99024 77.375 83.625 C 77.741834 83.50472 77.887603 83.41432 78.09375 83.3125 C 78.11186 82.34395 78.14781 78.7798 78.21875 73.96875 C 78.29219 68.98878 78.33651 64.14521 78.3125 62.71875 C 78.22706 62.69115 78.261433 62.68215 78.15625 62.65625 C 77.203986 62.4217 75.545015 62.2828 73.78125 62.375 z "
       transform="translate(0,907.36218)"
       id="rect2985" />
  </g>
</svg>
