<?xml version="1.0" encoding="UTF-8" standalone="no"?>
<!-- Created with Inkscape (http://www.inkscape.org/) -->

<svg
   xmlns:dc="http://purl.org/dc/elements/1.1/"
   xmlns:cc="http://creativecommons.org/ns#"
   xmlns:rdf="http://www.w3.org/1999/02/22-rdf-syntax-ns#"
   xmlns:svg="http://www.w3.org/2000/svg"
   xmlns="http://www.w3.org/2000/svg"
   xmlns:sodipodi="http://sodipodi.sourceforge.net/DTD/sodipodi-0.dtd"
   xmlns:inkscape="http://www.inkscape.org/namespaces/inkscape"
   width="145"
   height="145"
   id="svg3001"
   version="1.1"
   inkscape:version="0.48.4 r9939"
   sodipodi:docname="New document 4">
  <defs
     id="defs3003" />
  <sodipodi:namedview
     id="base"
     pagecolor="#ffffff"
     bordercolor="#666666"
     borderopacity="1.0"
     inkscape:pageopacity="0.0"
     inkscape:pageshadow="2"
     inkscape:zoom="2.8"
     inkscape:cx="102.10206"
     inkscape:cy="80.414953"
     inkscape:document-units="px"
     inkscape:current-layer="layer1"
     showgrid="false"
     inkscape:window-width="1440"
     inkscape:window-height="838"
     inkscape:window-x="-8"
     inkscape:window-y="-8"
     inkscape:window-maximized="1" />
  <metadata
     id="metadata3006">
    <rdf:RDF>
      <cc:Work
         rdf:about="">
        <dc:format>image/svg+xml</dc:format>
        <dc:type
           rdf:resource="http://purl.org/dc/dcmitype/StillImage" />
        <dc:title></dc:title>
      </cc:Work>
    </rdf:RDF>
  </metadata>
  <g
     inkscape:label="Layer 1"
     inkscape:groupmode="layer"
     id="layer1"
     transform="translate(0,-907.36218)">
    <g
       id="g4935"
       transform="matrix(0.38694127,0,0,0.38694127,-60.371807,704.19112)">
      <path
         sodipodi:nodetypes="cccccccccccccccccccccccccccccccccccsssccccccccccccccccccccccccsccscccsscccccc"
         inkscape:connector-curvature="0"
         id="path4355"
         d="m 196.78571,833.07647 -8.21428,-1.07143 c -0.62829,-4.37626 4.28685,7.03786 -6.42857,-26.07143 l -4.28572,7.85714 c -4.4806,-7.25202 -4.74205,-21.6766 -6.07143,-34.28571 l -6.36729,4.28571 c 1.09236,-9.56569 -2.47597,-0.57487 3.86729,-27.14285 l -6.42857,-0.41842 c 0.29201,-4.16346 5.48992,-10.61635 10.71429,-17.08158 l -4.19906,-1.59446 c -0.63314,-3.98162 7.80238,-11.00114 12.0562,-16.61983 l -4.58158,-0.0396 c 3.22939,-7.4714 7.94597,-10.977 12.08158,-16.03182 l -3.71936,-0.48341 c 2.46947,-6.92944 9.38234,-10.03884 13.65808,-14.55991 l -3.65808,-1.32026 c 3.62067,-4.30734 9.59551,-9.79177 14.43365,-14.70785 l -3.40369,-0.67096 c 0.64369,-5.01933 9.82849,-11.78572 10.73594,-12.88066 l -2.98526,-1.55298 5.65301,-4.53825 c 0.78929,-5.60121 -1.61896,-5.87318 -5.35715,-3.92858 l -50.67281,40.94516 c -2.15709,-5.55624 -1.95884,-10.158 -0.42028,-13.19448 l -4.97833,2.96361 c -0.58722,-3.7876 -0.17252,-8.26884 1.42857,-13.57143 l -4.24424,0.73595 c 1.56496,-3.81675 2.56321,-7.63349 6.02995,-11.45023 -0.51513,-1.15154 -3.09781,-0.23552 -5,0 3.8016,-6.55514 5.71374,-7.88179 7.4152,-10.75576 0.22012,-3.4818 -2.17711,-1.74424 -3.48663,-2.45853 2.84563,-3.45238 5.55392,-6.90476 10.35715,-10.35714 1.90441,-3.02451 0.47418,-4.31995 -2.14286,-5 l -5.35714,0 c 44.86334,-8.12981 89.27335,-21.19857 134.28571,-33.21429 23.31503,-1.64226 45.22847,-1.86938 67.85714,-2.14286 1.17466,-0.0142 8.12471,1.95376 9.11984,5.08294 1.32105,4.15403 8.22885,4.32123 12.89675,4.60139 16.07668,0.96489 17.33998,14.69969 17.5,17.85715 -14.81055,-5.11154 -22.54424,-1.42996 -36.86865,1.05162 51.68039,21.45022 107.75074,41.1916 161.63778,61.76405 -10.85221,5.04938 -22.03348,6.80814 -33.21429,8.57143 l 7.87881,5.31381 c -7.75392,5.83918 -24.63635,3.81253 -36.72444,5.31754 l 10.31753,9.91705 c -10.57478,1.07126 -20.06546,-3.27797 -30.04333,-5.19126 l 1.07143,4.64286 c -10.08072,-2.44522 -20.79738,-3.35643 -29.28571,-9.64286 l -1.78572,2.85714 c -7.84452,-2.61138 -14.55806,-7.20197 -21.07143,-12.14286 l -2.5,4.28572 c -5.73174,-3.86188 -11.44186,-7.6589 -17.5,-12.5 l -2.14285,4.64286 c -5.82402,-1.68064 -11.49214,-6.68873 -16.03182,-10.29588 -1.08408,0.81268 -1.21019,0.93914 -2.24375,2.81753 -3.5042,-2.96993 -6.98685,-5.65938 -10.653,-10.73595 l -2.5,2.85714 c -4.79791,-1.26485 -8.79252,-4.46685 -12.85715,-7.5 l -0.96682,3.88896 c -4.7619,-0.9698 -9.27127,-7.33918 -14.03318,-10.31753 l -1.78571,3.21429 c -4.58917,-2.02381 -9.29576,-4.04762 -13.57143,-6.07143 -3.28409,8.10671 -0.026,13.58351 6.78571,15.71428 36.9475,11.55759 27.21121,14.94071 28.92858,16.07143 -9.02594,-2.61819 -14.90965,-7.44444 -35.71429,-1.78571 0.24276,-2.28665 0.53195,-3.52192 2.3954,-6.13271 2.16322,-3.03079 -7.49809,-1.791 -11.32397,-1.72443 -2.07711,-4.50249 -5.49719,-8.46779 -6.07143,-13.57143 l -2.5,0.35714 c 1.90476,8.83815 2.3824,16.90237 5.71429,24.64286 4.25457,9.88402 14.06598,7.80746 21.07142,11.07143 8.52226,3.97068 8.75562,8.48383 10,11.78571 -15.54806,-8.43147 -25.27229,-2.97532 -36.78571,-1.78571 2.7467,-2.59355 0.79047,-4.66455 8.92857,-7.85715 -6.60544,-4.61297 -11.85269,-4.04318 -17.5,-5 -0.71554,-4.00472 0.23067,-12.25615 -3.21428,-9.28571 z"
         style="fill:#020083;fill-opacity:1;stroke:none" />
      <path
         sodipodi:nodetypes="cccc"
         inkscape:connector-curvature="0"
         id="path4357"
         d="m 241.94686,732.5723 c -10.4047,25.37942 -23.41209,46.8548 -35.11813,70.2822 -5.02238,10.26149 -20.47945,-12.34214 -12.6269,-19.44543 15.91501,-16.94559 31.04967,-35.712 47.74503,-50.83677 z"
         style="fill:#ffffff;stroke:none" />
      <path
         sodipodi:nodetypes="ccccc"
         inkscape:connector-curvature="0"
         id="path4359"
         d="m 186.37314,767.7517 c -4.6339,4.54083 -0.52567,13.54101 2.52539,12.62691 18.21432,-17.00423 33.77438,-34.00847 50.25509,-51.0127 1.68304,-2.39263 0.32929,-2.18231 -1.2627,-1.76777 -17.11518,13.25055 -33.76737,25.4208 -51.51778,40.15356 z"
         style="fill:#ffffff;stroke:none" />
      <path
         sodipodi:nodetypes="cccc"
         inkscape:connector-curvature="0"
         id="path4361"
         d="m 185.06975,761.00714 c -5.55331,2.53045 -0.53301,-13.88645 4.33385,-17.4991 l 47.22463,-20.45559 c -18.5586,15.96967 -25.60561,22.99229 -51.55848,37.95469 z"
         style="fill:#ffffff;stroke:none" />
      <path
         sodipodi:nodetypes="ccccc"
         inkscape:connector-curvature="0"
         id="path4363"
         d="m 236.88077,713.70854 c 0.92218,0.89762 -0.24831,3.19036 -0.37246,4.78554 -15.40445,6.48219 -29.21729,12.68098 -45.58948,18.19543 -0.20677,-3.51541 2.52356,-10.43882 9.34391,-13.8896 z"
         style="fill:#ffffff;stroke:none" />
      <path
         sodipodi:nodetypes="ccccc"
         inkscape:connector-curvature="0"
         id="path4365"
         d="m 237.99553,708.33127 c 1.69783,-2.09218 3.60028,-5.84962 0.40047,-6.9971 -9.17555,1.17851 -20.91494,1.08778 -27.52666,3.53554 -2.99167,0.65959 -8.98635,4.99094 -8.83883,11.86929 11.92293,-2.7669 19.23142,-3.01683 35.96502,-8.40773 z"
         style="fill:#ffffff;stroke:none" />
      <path
         sodipodi:nodetypes="ccccc"
         inkscape:connector-curvature="0"
         id="path4367"
         d="m 242.61518,695.9569 c 1.64316,-1.01256 5.15185,-3.5641 3.35697,-8.00725 l -23.23351,-0.25254 c -10.50529,3.95948 -8.49597,7.35011 -9.09138,10.85914 9.90273,-0.74307 20.78934,-0.9942 28.96792,-2.59935 z"
         style="fill:#ffffff;stroke:none" />
      <path
         sodipodi:nodetypes="ccccc"
         inkscape:connector-curvature="0"
         id="path4369"
         d="m 253.80083,675.32274 c -0.67062,2.6955 -1.49694,5.29369 -4.04061,6.81853 -9.20884,0.37001 -17.72604,0.0484 -25.50635,-1.01015 -1.45295,-2.27214 -0.51351,-4.87656 6.56599,-8.33376 z"
         style="fill:#ffffff;stroke:none" />
      <path
         sodipodi:nodetypes="ccccc"
         inkscape:connector-curvature="0"
         id="path4371"
         d="m 237.42917,661.67036 c -1.84983,0.69134 -4.84061,0.64259 -6.06091,7.28028 l 24.20033,0.0586 c 4.69018,-1.06916 4.94097,-4.80678 4.47172,-6.93845 z"
         style="fill:#ffffff;stroke:none" />
      <path
         sodipodi:nodetypes="ccccc"
         inkscape:connector-curvature="0"
         id="path4373"
         d="m 267.28995,648.86489 c 1.15624,1.56067 -1.63762,5.6808 -3.89267,8.02257 -4.57198,-0.35092 -21.00316,1.67612 -23.73859,-1.01015 -2.32462,-3.15946 5.18276,-6.56839 7.05575,-6.93582 z"
         style="fill:#ffffff;stroke:none" />
      <path
         sodipodi:nodetypes="ccccc"
         inkscape:connector-curvature="0"
         id="path4375"
         d="m 251.78052,637.70988 c -5.64148,3.10582 -6.21465,4.70123 -5.3033,5.54052 l 22.98097,-0.25254 c 1.48653,-0.59977 2.17013,0.98444 5.02013,-7.11439 z"
         style="fill:#ffffff;stroke:none" />
      <path
         sodipodi:nodetypes="ccccc"
         inkscape:connector-curvature="0"
         id="path4377"
         d="m 281.07495,623.04735 c 1.03478,5.67671 -3.67433,6.72833 -5.55584,7.82868 l -21.97082,1.51523 c -3.2328,-2.75792 3.66586,-5.71677 6.06091,-8.5863 z"
         style="fill:#ffffff;stroke:none" />
      <path
         sodipodi:nodetypes="ccccc"
         inkscape:connector-curvature="0"
         id="path4379"
         d="m 286.63079,609.41029 c 1.04394,1.2342 0.98221,3.22855 -1.76777,7.07107 -9.77413,1.81451 -16.66752,2.18866 -25.00128,3.28299 -0.0357,-1.34512 -3.10362,-1.41354 5.3033,-6.31345 z"
         style="fill:#ffffff;stroke:none" />
      <path
         sodipodi:nodetypes="ccccc"
         inkscape:connector-curvature="0"
         id="path4381"
         d="m 272.48865,605.62222 c -3.13495,1.39082 -2.59571,2.0818 -0.75762,2.52538 l 17.93021,-3.53553 c 2.3405,-0.62769 5.74208,-2.62422 0.75762,-2.77792 z"
         style="fill:#ffffff;stroke:none" />
      <path
         sodipodi:nodetypes="ccccc"
         inkscape:connector-curvature="0"
         id="path4383"
         d="m 209.55357,622.09432 0.26786,2.05358 c -12.37794,5.57792 -24.00974,9.17478 -30.53572,9.19642 -1.13191,-0.96938 1.05448,-3.6955 3.92858,-6.78571 z"
         style="fill:#ffffff;stroke:none" />
      <path
         sodipodi:nodetypes="ccccc"
         inkscape:connector-curvature="0"
         id="path4385"
         d="m 209.28571,628.88004 c 0.81057,0.93243 1.92621,1.77333 0.44643,3.39286 l -33.57143,9.82142 c -1.58237,-0.50346 -1.81926,-1.67965 1.33929,-4.55357 z"
         style="fill:#ffffff;stroke:none" />
      <path
         sodipodi:nodetypes="ccccc"
         inkscape:connector-curvature="0"
         id="path4387"
         d="m 173.75,648.70147 c -2.31122,2.1403 -2.09344,3.44746 -0.625,4.64285 12.48707,-4.89129 26.08373,-9.16277 37.5,-14.91071 0.62598,-2.4117 -1.49338,-2.07805 -3.66071,-1.69643 z"
         style="fill:#ffffff;stroke:none" />
      <path
         sodipodi:nodetypes="ccccc"
         inkscape:connector-curvature="0"
         id="path4389"
         d="m 172.32143,659.95147 c -2.25974,1.26419 -0.90237,4.13598 -1.25,6.25 14.14634,-5.8461 26.21478,-15.43245 39.28571,-23.21429 l -0.89285,-1.07143 c -12.18057,5.21037 -24.75103,11.98031 -37.14286,18.03572 z"
         style="fill:#ffffff;stroke:none" />
      <path
         sodipodi:nodetypes="cccc"
         inkscape:connector-curvature="0"
         id="path4391"
         d="m 171.33929,672.09432 c -0.37702,2.55431 -1.67774,5.92363 1.78571,5.08929 14.24274,-8.66864 25.3727,-19.20495 37.41071,-29.19643 -13.02991,7.82232 -25.94914,14.98057 -39.19642,24.10714 z"
         style="fill:#ffffff;stroke:none" />
      <path
         sodipodi:nodetypes="csscscccc"
         inkscape:connector-curvature="0"
         id="path4393"
         d="m 216.69643,620.21932 c -0.90793,8.20205 -3.06076,16.90365 0.44643,21.96429 2.38812,3.44589 6.19365,1.80263 8.48214,-1.07143 1.55633,-1.95456 3.1788,-3.20541 5.89286,-5.08928 -2.05241,-1.65681 -1.33742,-3.366 0.80357,-5.35715 2.21633,-2.06122 6.63079,-4.20836 6.42857,-6.78571 l -4.375,0.0893 c 2.67498,-2.31271 4.30628,-4.9733 6.33929,-7.5 -2.86183,-1.32206 -15.93103,2.45956 -24.01786,3.75 z"
         style="fill:#ffffff;stroke:none" />
      <path
         inkscape:connector-curvature="0"
         id="path4395"
         d="m 298.50008,601.07653 6.06091,10.6066 -58.08377,113.8947 -2.0203,-20.70812 z"
         style="fill:#ffffff;stroke:none" />
      <path
         sodipodi:nodetypes="cccccc"
         inkscape:connector-curvature="0"
         id="path4397"
         d="m 303.2983,599.05623 63.63961,-0.75762 4.29315,5.55584 c -3.81809,-0.1696 -6.31177,-1.39872 -8.46003,-2.90418 -23.19379,8.41998 -39.55519,12.26732 -51.64405,10.73286 -4.20334,-2.81441 -6.29766,-7.47421 -7.82868,-12.6269 z"
         style="fill:#ffffff;stroke:none" />
      <path
         sodipodi:nodetypes="ccscccc"
         inkscape:connector-curvature="0"
         id="path4399"
         d="m 308.6016,617.74405 c 13.28669,-2.18676 25.9793,-3.68044 41.16372,-8.08122 2.56566,-0.26647 4.54094,-0.4122 6.56599,1.01015 4.69875,3.30031 10.12875,-1.38408 15.15229,-2.52538 25.42364,-4.26004 20.38456,3.1573 27.77919,5.80838 -29.37271,-0.83932 -64.74218,9.16083 -95.71195,15.40482 -1.58283,-4.68885 1.30522,-8.25999 5.05076,-11.61675 z"
         style="fill:#ffffff;stroke:none" />
      <path
         sodipodi:nodetypes="ccsc"
         inkscape:connector-curvature="0"
         id="path4401"
         d="m 357.41072,608.07647 5,0.0893 c 0.58945,-0.58945 -1.17426,-3.09962 -3.125,-2.58928 -1.85397,0.48502 -2.66307,2.27482 -1.875,2.49998 z"
         style="fill:#ffffff;stroke:none" />
      <path
         sodipodi:nodetypes="cccccc"
         inkscape:connector-curvature="0"
         id="path4403"
         d="m 342.14286,626.82647 c 0.88411,-0.7582 7.48223,-1.99257 13.92857,-3.21429 15.9726,5.79403 31.23967,10.88253 46.78571,16.25 -0.68956,2.02381 12.52955,4.04762 -5.89285,6.07143 l -18.57143,-5 c -14.42678,-3.02849 -24.99656,-8.81198 -36.25,-14.10714 z"
         style="fill:#ffffff;stroke:none" />
      <path
         sodipodi:nodetypes="cccc"
         inkscape:connector-curvature="0"
         id="path4405"
         d="m 413.75,645.21932 c 30.0005,10.91386 59.08532,19.69114 90.35714,33.57143 -5.26807,4.06196 -11.22342,6.40572 -18.39285,5.71429 C 459.43665,669.14666 410.58556,650.53285 413.75,645.21932 z"
         style="fill:#ffffff;stroke:none" />
      <path
         sodipodi:nodetypes="cccc"
         inkscape:connector-curvature="0"
         id="path4407"
         d="m 412.32143,651.6479 c 24.15745,10.3236 43.73205,23.70244 65.35714,35.71428 -4.42599,3.57341 -10.147,6.15066 -20.71428,5 -15.8179,-13.85251 -33.26357,-28.19335 -44.64286,-40.71428 z"
         style="fill:#ffffff;stroke:none" />
      <path
         sodipodi:nodetypes="cccc"
         inkscape:connector-curvature="0"
         id="path4409"
         d="m 409.10714,653.61218 c 15.86948,13.15221 29.09214,27.36315 42.67858,41.42857 -4.24197,1.75059 -9.05855,0.0534 -13.75,-0.89285 -10.84749,-13.33982 -21.3636,-26.72697 -28.92858,-40.53572 z"
         style="fill:#ffffff;stroke:none" />
      <path
         sodipodi:nodetypes="cccc"
         inkscape:connector-curvature="0"
         id="path4411"
         d="m 402.67857,654.1479 c 11.92695,12.69102 20.1975,26.60083 29.46429,40.17857 -4.25093,1.64038 -10.52624,-2.11759 -16.07143,-3.92857 -4.97571,-12.21119 -10.24345,-24.49539 -13.39286,-36.25 z"
         style="fill:#ffffff;stroke:none" />
      <path
         sodipodi:nodetypes="ccccc"
         inkscape:connector-curvature="0"
         id="path4413"
         d="m 389.82143,651.11218 7.5,0.35714 12.85714,36.42858 c -3.44195,1.80553 -8.05301,0.43774 -14.82143,-6.78572 -2.61688,-6.14176 -3.76546,-19.62506 -5.53571,-30 z"
         style="fill:#ffffff;stroke:none" />
      <path
         sodipodi:nodetypes="ccccc"
         inkscape:connector-curvature="0"
         id="path4415"
         d="m 373.39286,646.11218 11.07143,3.75 c 3.70044,14.44908 3.26658,29.07227 3.57143,28.92857 -8.19026,3.59491 -10.65483,-3.80942 -12.5,-7.32143 z"
         style="fill:#ffffff;stroke:none" />
      <path
         sodipodi:nodetypes="ccccc"
         inkscape:connector-curvature="0"
         id="path4417"
         d="m 358.92857,641.11218 c 2.91667,-0.27075 5.83333,0.28266 8.75,2.85714 2.3917,9.16667 2.42886,18.33333 2.5,27.5 -2.95889,-0.67105 -5.77092,-0.97492 -9.64285,-3.92857 -0.69906,-8.77685 -3.02043,-17.22925 -1.60715,-26.42857 z"
         style="fill:#ffffff;stroke:none" />
      <path
         sodipodi:nodetypes="ccccc"
         inkscape:connector-curvature="0"
         id="path4419"
         d="m 344.10714,634.50504 c 2.57758,0.75039 4.91488,1.02024 8.39286,3.57143 2.75337,10.21652 2.70592,19.03069 3.75,28.39285 -11.80927,-0.87762 -9.38212,-5.82279 -12.14286,-9.28571 z"
         style="fill:#ffffff;stroke:none" />
      <path
         sodipodi:nodetypes="ccccc"
         inkscape:connector-curvature="0"
         id="path4421"
         d="m 328.92857,630.04075 c 4.64041,0.51045 8.71493,-2.53762 11.25001,6.42858 l 0.35714,23.03571 c -7.29883,0.64526 -10.4486,-4.87371 -11.60715,-11.78572 z"
         style="fill:#ffffff;stroke:none" />
      <path
         sodipodi:nodetypes="ccccc"
         inkscape:connector-curvature="0"
         id="path4423"
         d="m 313.21429,631.82647 c 3.28587,-1.79699 7.15981,-1.24168 10.89285,-1.25 1.11772,6.56967 2.07611,13.4049 1.78572,22.32143 -3.89602,0.44273 -7.81628,1.17628 -11.25,-3.92858 -0.94085,-5.48196 -3.1115,-10.34901 -1.42857,-17.14285 z"
         style="fill:#ffffff;stroke:none" />
      <path
         sodipodi:nodetypes="ccccc"
         inkscape:connector-curvature="0"
         id="path4425"
         d="m 301.60714,634.86218 c 1.57984,-1.57001 3.36529,-2.52319 6.25,-0.17857 3.70953,10.90239 0.81488,9.33021 0.71429,13.03571 -2.99966,0.96327 -5.45223,0.28526 -7.5,-1.60714 z"
         style="fill:#ffffff;stroke:none" />
    </g>
  </g>
</svg>
