<?xml version="1.0" encoding="UTF-8" standalone="no"?>
<!-- Created with Inkscape (http://www.inkscape.org/) -->

<svg
   xmlns:dc="http://purl.org/dc/elements/1.1/"
   xmlns:cc="http://creativecommons.org/ns#"
   xmlns:rdf="http://www.w3.org/1999/02/22-rdf-syntax-ns#"
   xmlns:svg="http://www.w3.org/2000/svg"
   xmlns="http://www.w3.org/2000/svg"
   xmlns:sodipodi="http://sodipodi.sourceforge.net/DTD/sodipodi-0.dtd"
   xmlns:inkscape="http://www.inkscape.org/namespaces/inkscape"
   width="145"
   height="145"
   id="svg3001"
   version="1.1"
   inkscape:version="0.48.4 r9939"
   sodipodi:docname="enac.svg">
  <defs
     id="defs3003" />
  <sodipodi:namedview
     id="base"
     pagecolor="#ffffff"
     bordercolor="#666666"
     borderopacity="1.0"
     inkscape:pageopacity="0.0"
     inkscape:pageshadow="2"
     inkscape:zoom="2.8"
     inkscape:cx="46.387774"
     inkscape:cy="51.843524"
     inkscape:document-units="px"
     inkscape:current-layer="layer1"
     showgrid="false"
     inkscape:window-width="1440"
     inkscape:window-height="838"
     inkscape:window-x="-8"
     inkscape:window-y="-8"
     inkscape:window-maximized="1" />
  <metadata
     id="metadata3006">
    <rdf:RDF>
      <cc:Work
         rdf:about="">
        <dc:format>image/svg+xml</dc:format>
        <dc:type
           rdf:resource="http://purl.org/dc/dcmitype/StillImage" />
        <dc:title />
      </cc:Work>
    </rdf:RDF>
  </metadata>
  <g
     inkscape:label="Layer 1"
     inkscape:groupmode="layer"
     id="layer1"
     transform="translate(0,-907.36218)">
    <path
       style="fill:#020083;fill-opacity:0.58823532;stroke:none"
       d="m 15.772706,1026.5428 -3.178444,-0.4146 c -0.243112,-1.6933 1.658759,2.7232 -2.487479,-10.0881 l -1.6583224,3.0402 c -1.733729,-2.8061 -1.8348948,-8.3875 -2.3492868,-13.2665 l -2.4637673,1.6583 c 0.4226792,-3.7014 -0.958055,-0.2224 1.4964141,-10.50268 l -2.487479,-0.1619 c 0.1129907,-1.61102 2.1242766,-4.10791 4.145801,-6.60957 L 5.165353,989.58098 c -0.244988,-1.54065 3.0190628,-4.25679 4.6650413,-6.43089 l -1.7728024,-0.0153 c 1.2495843,-2.89099 3.0746241,-4.24745 4.6748621,-6.20337 l -1.439174,-0.18705 c 0.95554,-2.68129 3.630414,-3.88444 5.284875,-5.63383 l -1.415462,-0.51086 c 1.400986,-1.66669 3.712898,-3.78884 5.584974,-5.69108 l -1.317028,-0.25962 c 0.249071,-1.94219 3.803049,-4.56038 4.154179,-4.98406 l -1.155121,-0.60091 2.187383,-1.75604 c 0.305409,-2.16734 -0.626442,-2.27257 -2.072902,-1.52013 L 2.9367763,971.63119 c -0.8346671,-2.14994 -0.757956,-3.93055 -0.1626237,-5.10549 l -1.9263213,1.14674 c -0.22721965,-1.46558 -0.0667551,-3.19956 0.5527727,-5.25135 l -1.64227162,0.28477 c 0.60554761,-1.47686 0.99181173,-2.95371 2.33323652,-4.43056 -0.1993251,-0.44558 -1.19867055,-0.0911 -1.93470636,0 1.47099596,-2.53646 2.21088186,-3.04979 2.86924686,-4.16185 0.085174,-1.34725 -0.8424137,-0.67492 -1.349121,-0.95131 1.1010917,-1.33587 2.1490409,-2.67173 4.0076088,-4.0076 0.7368948,-1.17031 0.1834798,-1.67157 -0.829161,-1.93471 l -2.0728985,0 c 17.3594773,-3.14576 34.5435433,-8.2026 51.9606833,-12.85198 9.021547,-0.63546 17.500761,-0.72334 26.256728,-0.82916 0.454524,-0.005 3.143785,0.75599 3.528842,1.9668 0.511169,1.60737 3.184082,1.67206 4.990285,1.78047 6.220731,0.37335 6.709554,5.68791 6.771472,6.90967 -5.730813,-1.97787 -8.723297,-0.55331 -14.266002,0.40691 19.997274,8.29998 41.693204,15.93873 62.544324,23.89906 -4.19916,1.95381 -8.52566,2.63435 -12.85198,3.31664 l 3.04864,2.05613 c -3.00031,2.25942 -9.53282,1.47523 -14.2102,2.05758 l 3.99228,3.83731 c -4.09182,0.41452 -7.76416,-1.26838 -11.62501,-2.00871 l 0.41458,1.79652 c -3.90064,-0.94616 -8.04736,-1.29875 -11.33185,-3.73122 l -0.69096,1.10554 c -3.035373,-1.01045 -5.633119,-2.78674 -8.15341,-4.69857 l -0.967354,1.65832 c -2.217846,-1.49432 -4.427327,-2.96355 -6.771472,-4.83677 l -0.829157,1.79652 c -2.253554,-0.65031 -4.446783,-2.58815 -6.203373,-3.9839 -0.419475,0.31446 -0.468272,0.36339 -0.868199,1.09022 -1.35592,-1.14919 -2.703501,-2.18985 -4.122086,-4.15419 l -0.967353,1.10555 c -1.856509,-0.48942 -3.402189,-1.72841 -4.974962,-2.90206 l -0.374102,1.5048 c -1.842576,-0.37526 -3.587437,-2.83983 -5.430017,-3.99228 l -0.690965,1.24374 c -1.775739,-0.78309 -3.596913,-1.56619 -5.251346,-2.34929 -1.27075,3.13683 -0.01006,5.25603 2.625671,6.08051 14.296513,4.47211 10.52914,5.78118 11.193662,6.2187 -3.492509,-1.01309 -5.769159,-2.88056 -13.819333,-0.69097 0.09393,-0.8848 0.205833,-1.36277 0.926879,-2.373 0.837039,-1.17273 -2.90132,-0.69301 -4.381711,-0.66725 -0.80372,-1.7422 -2.12709,-3.27654 -2.349287,-5.25135 l -0.967353,0.1382 c 0.73703,3.41984 0.921849,6.54022 2.211094,9.53534 1.646269,3.82453 5.442709,3.02102 8.153402,4.28399 3.297615,1.53642 3.387911,3.28274 3.869413,4.56038 -6.016186,-3.26249 -9.778892,-1.15128 -14.233909,-0.69097 1.062811,-1.00355 0.305865,-1.8049 3.454832,-3.04025 -2.555917,-1.78495 -4.586295,-1.56448 -6.771472,-1.93471 -0.276872,-1.54959 0.08926,-4.74241 -1.243738,-3.59302 z"
       id="path4355"
       inkscape:connector-curvature="0"
       sodipodi:nodetypes="cccccccccccccccccccccccccccccccccccsssccccccccccccccccccccccccsccscccsscccccc" />
    <path
       style="fill:#ffffff;stroke:none"
       d="m 33.247418,987.65358 c -4.026008,9.82034 -9.059104,18.13002 -13.588654,27.19512 -1.943366,3.9706 -7.924344,-4.7757 -4.885868,-7.5243 6.158174,-6.5569 12.014398,-13.81843 18.474522,-19.67082 z"
       id="path4357"
       inkscape:connector-curvature="0"
       sodipodi:nodetypes="cccc" />
    <path
       style="fill:#ffffff;stroke:none"
       d="m 11.743652,1001.2659 c -1.7930467,1.7571 -0.203403,5.2396 0.977178,4.8859 7.047872,-6.57963 13.068702,-13.15927 19.445768,-19.73891 0.651238,-0.92581 0.127416,-0.84442 -0.48859,-0.68402 -6.62257,5.12718 -13.065989,9.83635 -19.934356,15.53703 z"
       id="path4359"
       inkscape:connector-curvature="0"
       sodipodi:nodetypes="ccccc" />
    <path
       style="fill:#ffffff;stroke:none"
       d="m 11.239317,998.65619 c -2.1488047,0.97913 -0.206243,-5.37324 1.676946,-6.77112 l 18.273158,-7.91512 c -7.181088,6.17933 -9.907867,8.89667 -19.950104,14.68624 z"
       id="path4361"
       inkscape:connector-curvature="0"
       sodipodi:nodetypes="cccc" />
    <path
       style="fill:#ffffff;stroke:none"
       d="m 31.287139,980.35441 c 0.356829,0.34733 -0.09608,1.23448 -0.14412,1.85172 -5.960618,2.50823 -11.305375,4.9068 -17.640451,7.04056 -0.08001,-1.36025 0.976469,-4.03921 3.615544,-5.37445 z"
       id="path4363"
       inkscape:connector-curvature="0"
       sodipodi:nodetypes="ccccc" />
    <path
       style="fill:#ffffff;stroke:none"
       d="m 31.718486,978.27372 c 0.65696,-0.80955 1.393097,-2.26346 0.154958,-2.70747 -3.550399,0.45602 -8.092853,0.42091 -10.651201,1.36805 -1.1576,0.25522 -3.477189,1.9312 -3.420108,4.59272 4.613474,-1.07063 7.44143,-1.16734 13.916351,-3.2533 z"
       id="path4365"
       inkscape:connector-curvature="0"
       sodipodi:nodetypes="ccccc" />
    <path
       style="fill:#ffffff;stroke:none"
       d="m 33.506019,973.48557 c 0.635806,-0.3918 1.993463,-1.3791 1.29895,-3.09834 l -8.990004,-0.0977 c -4.06493,1.53209 -3.287441,2.84406 -3.51783,4.20185 3.831775,-0.28752 8.044254,-0.38469 11.208884,-1.00579 z"
       id="path4367"
       inkscape:connector-curvature="0"
       sodipodi:nodetypes="ccccc" />
    <path
       style="fill:#ffffff;stroke:none"
       d="m 37.834208,965.50136 c -0.25949,1.043 -0.579227,2.04835 -1.563478,2.63837 -3.563281,0.14317 -6.858937,0.0187 -9.86946,-0.39087 -0.562206,-0.87918 -0.198698,-1.88694 2.540653,-3.22468 z"
       id="path4369"
       inkscape:connector-curvature="0"
       sodipodi:nodetypes="ccccc" />
    <path
       style="fill:#ffffff;stroke:none"
       d="m 31.499338,960.21869 c -0.715776,0.26751 -1.873032,0.24864 -2.345217,2.81704 l 9.364107,0.0227 c 1.814824,-0.4137 1.911865,-1.85994 1.730293,-2.68477 z"
       id="path4371"
       inkscape:connector-curvature="0"
       sodipodi:nodetypes="ccccc" />
    <path
       style="fill:#ffffff;stroke:none"
       d="m 43.053706,955.26372 c 0.447397,0.60389 -0.633663,2.19814 -1.506235,3.10427 -1.769088,-0.13579 -8.126989,0.64856 -9.18544,-0.39087 -0.899492,-1.22253 2.005424,-2.54158 2.730161,-2.68376 z"
       id="path4373"
       inkscape:connector-curvature="0"
       sodipodi:nodetypes="ccccc" />
    <path
       style="fill:#ffffff;stroke:none"
       d="m 37.052467,950.94739 c -2.182921,1.20177 -2.404704,1.8191 -2.052065,2.14386 l 8.892285,-0.0977 c 0.5752,-0.23208 0.839713,0.38092 1.942496,-2.75285 z"
       id="path4375"
       inkscape:connector-curvature="0"
       sodipodi:nodetypes="ccccc" />
    <path
       style="fill:#ffffff;stroke:none"
       d="m 48.387691,945.27385 c 0.400399,2.19656 -1.42175,2.60347 -2.149784,3.02924 l -8.501417,0.58631 c -1.250903,-1.06716 1.418473,-2.21206 2.345217,-3.3224 z"
       id="path4377"
       inkscape:connector-curvature="0"
       sodipodi:nodetypes="ccccc" />
    <path
       style="fill:#ffffff;stroke:none"
       d="m 50.537475,939.99711 c 0.403943,0.47756 0.380057,1.24926 -0.684023,2.73609 -3.782015,0.70211 -6.449352,0.84688 -9.674027,1.27032 -0.01381,-0.52048 -1.200919,-0.54695 2.052065,-2.44293 z"
       id="path4379"
       inkscape:connector-curvature="0"
       sodipodi:nodetypes="ccccc" />
    <path
       style="fill:#ffffff;stroke:none"
       d="m 45.065297,938.53135 c -1.213041,0.53817 -1.004387,0.80554 -0.293154,0.97717 l 6.937938,-1.36804 c 0.905636,-0.24288 2.221848,-1.01542 0.293155,-1.07489 z"
       id="path4381"
       inkscape:connector-curvature="0"
       sodipodi:nodetypes="ccccc" />
    <path
       style="fill:#ffffff;stroke:none"
       d="m 20.713118,944.90509 0.103646,0.79461 c -4.789536,2.15833 -9.29036,3.5501 -11.8155307,3.55848 -0.4379827,-0.3751 0.4080219,-1.42995 1.5201297,-2.62568 z"
       id="path4383"
       inkscape:connector-curvature="0"
       sodipodi:nodetypes="ccccc" />
    <path
       style="fill:#ffffff;stroke:none"
       d="m 20.609471,947.53076 c 0.313643,0.3608 0.745331,0.68618 0.172743,1.31284 l -12.9901721,3.80031 c -0.6122843,-0.19481 -0.7039468,-0.64992 0.5182265,-1.76196 z"
       id="path4385"
       inkscape:connector-curvature="0"
       sodipodi:nodetypes="ccccc" />
    <path
       style="fill:#ffffff;stroke:none"
       d="m 6.8592387,955.20049 c -0.8943064,0.82817 -0.8100384,1.33397 -0.2418383,1.79651 4.8317626,-1.89264 10.0928716,-3.54545 14.5102976,-5.76957 0.242217,-0.93318 -0.57785,-0.80408 -1.41648,-0.65642 z"
       id="path4387"
       inkscape:connector-curvature="0"
       sodipodi:nodetypes="ccccc" />
    <path
       style="fill:#ffffff;stroke:none"
       d="m 6.306466,959.55358 c -0.8743867,0.48917 -0.3491642,1.60038 -0.4836766,2.41838 5.4738026,-2.26209 10.1435806,-5.97145 15.2012626,-8.98256 l -0.345481,-0.41458 c -4.713165,2.0161 -9.577195,4.63567 -14.372105,6.97876 z"
       id="path4389"
       inkscape:connector-curvature="0"
       sodipodi:nodetypes="ccccc" />
    <path
       style="fill:#ffffff;stroke:none"
       d="m 5.9264355,964.25215 c -0.1458846,0.98837 -0.6491869,2.2921 0.6909649,1.96926 5.5111036,-3.35426 9.8177446,-7.43119 14.4757476,-11.29731 -5.04181,3.02678 -10.040793,5.7966 -15.1667125,9.32805 z"
       id="path4391"
       inkscape:connector-curvature="0"
       sodipodi:nodetypes="cccc" />
    <path
       style="fill:#ffffff;stroke:none"
       d="m 23.476985,944.17957 c -0.351316,3.17371 -1.184335,6.54072 0.172742,8.49889 0.924062,1.33336 2.396579,0.69751 3.28209,-0.41458 0.602208,-0.7563 1.230009,-1.2403 2.280191,-1.96925 -0.794162,-0.64109 -0.517503,-1.30245 0.310934,-2.0729 0.85759,-0.79757 2.565726,-1.62839 2.487479,-2.62567 l -1.692868,0.0346 c 1.03506,-0.89488 1.666278,-1.92438 2.452933,-2.90206 -1.10736,-0.51156 -6.164373,0.9517 -9.293501,1.45103 z"
       id="path4393"
       inkscape:connector-curvature="0"
       sodipodi:nodetypes="csscscccc" />
    <path
       style="fill:#ffffff;stroke:none"
       d="m 55.130193,936.77244 2.345216,4.10413 -22.475007,44.07056 -0.781738,-8.01283 z"
       id="path4395"
       inkscape:connector-curvature="0" />
    <path
       style="fill:#ffffff;stroke:none"
       d="m 56.986822,935.9907 24.624792,-0.29316 1.661197,2.14979 c -1.477377,-0.0656 -2.442284,-0.54122 -3.273535,-1.12375 -8.974634,3.25804 -15.305535,4.74673 -19.983214,4.15299 -1.626446,-1.08901 -2.436825,-2.89208 -3.02924,-4.88587 z"
       id="path4397"
       inkscape:connector-curvature="0"
       sodipodi:nodetypes="cccccc" />
    <path
       style="fill:#ffffff;stroke:none"
       d="m 59.038888,943.22179 c 5.141169,-0.84615 10.052463,-1.42412 15.927942,-3.12696 0.99276,-0.10311 1.757077,-0.1595 2.540653,0.39087 1.81814,1.27702 3.919231,-0.53556 5.863046,-0.97718 9.837456,-1.64838 7.887628,1.22169 10.748915,2.24751 -11.365514,-0.32477 -25.051421,3.5447 -37.034903,5.96076 -0.612463,-1.81431 0.505043,-3.19613 1.954347,-4.495 z"
       id="path4399"
       inkscape:connector-curvature="0"
       sodipodi:nodetypes="ccscccc" />
    <path
       style="fill:#ffffff;stroke:none"
       d="m 77.925151,939.481 1.934706,0.0346 c 0.228083,-0.22809 -0.454369,-1.19938 -1.209191,-1.0019 -0.717378,0.18767 -1.030452,0.88022 -0.725515,0.96734 z"
       id="path4401"
       inkscape:connector-curvature="0"
       sodipodi:nodetypes="ccsc" />
    <path
       style="fill:#ffffff;stroke:none"
       d="m 72.017386,946.73615 c 0.342098,-0.29338 2.895183,-0.77101 5.389538,-1.24374 6.180458,2.24195 12.087918,4.2109 18.103322,6.28779 -0.266819,0.7831 4.848204,1.5662 -2.280186,2.34929 l -7.186053,-1.9347 c -5.582317,-1.17185 -9.672201,-3.40972 -14.026621,-5.45864 z"
       id="path4403"
       inkscape:connector-curvature="0"
       sodipodi:nodetypes="cccccc" />
    <path
       style="fill:#ffffff;stroke:none"
       d="m 99.725143,953.8531 c 11.608437,4.22303 22.862547,7.61932 34.962907,12.99017 -2.03843,1.57174 -4.3428,2.47864 -7.11695,2.2111 -10.16791,-5.94279 -29.070409,-13.14524 -27.845957,-15.20127 z"
       id="path4405"
       inkscape:connector-curvature="0"
       sodipodi:nodetypes="cccc" />
    <path
       style="fill:#ffffff;stroke:none"
       d="m 99.172371,956.34059 c 9.347519,3.99462 16.921739,9.17145 25.289379,13.81932 -1.7126,1.3827 -3.9263,2.37995 -8.01521,1.93471 -6.1206,-5.36011 -12.87105,-10.90917 -17.274169,-15.75403 z"
       id="path4407"
       inkscape:connector-curvature="0"
       sodipodi:nodetypes="cccc" />
    <path
       style="fill:#ffffff;stroke:none"
       d="m 97.928629,957.10065 c 6.140561,5.08913 11.256951,10.58793 16.514101,16.03042 -1.64139,0.67738 -3.50512,0.0207 -5.32044,-0.34548 -4.19734,-5.16173 -8.26646,-10.34177 -11.193661,-15.68494 z"
       id="path4409"
       inkscape:connector-curvature="0"
       sodipodi:nodetypes="cccc" />
    <path
       style="fill:#ffffff;stroke:none"
       d="m 95.44115,957.30794 c 4.61503,4.91068 7.81525,10.29296 11.40095,15.54675 -1.64486,0.63473 -4.07304,-0.81939 -6.2187,-1.52013 -1.925307,-4.72501 -3.963613,-9.47828 -5.18225,-14.02662 z"
       id="path4411"
       inkscape:connector-curvature="0"
       sodipodi:nodetypes="cccc" />
    <path
       style="fill:#ffffff;stroke:none"
       d="m 90.466192,956.13329 2.90206,0.1382 4.974958,14.09572 c -1.331833,0.69863 -3.116042,0.16938 -5.735023,-2.62568 -1.012579,-2.3765 -1.457012,-7.59374 -2.141995,-11.60824 z"
       id="path4413"
       inkscape:connector-curvature="0"
       sodipodi:nodetypes="ccccc" />
    <path
       style="fill:#ffffff;stroke:none"
       d="m 84.1093,954.19859 4.283994,1.45103 c 1.431853,5.59094 1.263974,11.24926 1.381933,11.19365 -3.169149,1.39102 -4.122793,-1.47402 -4.836766,-2.83296 z"
       id="path4415"
       inkscape:connector-curvature="0"
       sodipodi:nodetypes="ccccc" />
    <path
       style="fill:#ffffff;stroke:none"
       d="m 78.51247,952.26388 c 1.12858,-0.10476 2.257156,0.10937 3.385736,1.10555 0.925447,3.54696 0.939826,7.09392 0.967353,10.64088 -1.144917,-0.25966 -2.233007,-0.37724 -3.731217,-1.52012 -0.270495,-3.39613 -1.168729,-6.66671 -0.621872,-10.22631 z"
       id="path4417"
       inkscape:connector-curvature="0"
       sodipodi:nodetypes="ccccc" />
    <path
       style="fill:#ffffff;stroke:none"
       d="m 72.777447,949.70731 c 0.997372,0.29035 1.90177,0.39477 3.247544,1.38193 1.065392,3.95319 1.047032,7.36376 1.451029,10.98637 -4.569493,-0.33959 -3.630329,-2.25308 -4.698573,-3.59303 z"
       id="path4419"
       inkscape:connector-curvature="0"
       sodipodi:nodetypes="ccccc" />
    <path
       style="fill:#ffffff;stroke:none"
       d="m 66.904232,947.97989 c 1.795566,0.19751 3.372166,-0.98191 4.353093,2.48748 l 0.138192,8.91347 c -2.824219,0.24968 -4.042995,-1.88584 -4.491285,-4.56038 z"
       id="path4421"
       inkscape:connector-curvature="0"
       sodipodi:nodetypes="ccccc" />
    <path
       style="fill:#ffffff;stroke:none"
       d="m 60.823728,948.67086 c 1.271439,-0.69533 2.770426,-0.48046 4.214893,-0.48368 0.432492,2.54208 0.803333,5.18691 0.690969,8.63708 -1.507531,0.17131 -3.024441,0.45515 -4.353089,-1.52013 -0.364054,-2.12119 -1.203968,-4.00446 -0.552773,-6.63327 z"
       id="path4423"
       inkscape:connector-curvature="0"
       sodipodi:nodetypes="ccccc" />
    <path
       style="fill:#ffffff;stroke:none"
       d="m 56.332443,949.8455 c 0.611305,-0.6075 1.302169,-0.97633 2.418383,-0.0691 1.43537,4.21859 0.31531,3.61025 0.276388,5.04406 -1.160692,0.37273 -2.109693,0.11038 -2.90206,-0.62187 z"
       id="path4425"
       inkscape:connector-curvature="0"
       sodipodi:nodetypes="ccccc" />
  </g>
</svg>
