<?xml version="1.0" encoding="UTF-8" standalone="no"?>
<!-- Created with Inkscape (http://www.inkscape.org/) -->

<svg
   xmlns:dc="http://purl.org/dc/elements/1.1/"
   xmlns:cc="http://creativecommons.org/ns#"
   xmlns:rdf="http://www.w3.org/1999/02/22-rdf-syntax-ns#"
   xmlns:svg="http://www.w3.org/2000/svg"
   xmlns="http://www.w3.org/2000/svg"
   xmlns:sodipodi="http://sodipodi.sourceforge.net/DTD/sodipodi-0.dtd"
   xmlns:inkscape="http://www.inkscape.org/namespaces/inkscape"
   width="145"
   height="145"
   id="svg2"
   version="1.1"
   inkscape:version="0.48.4 r9939"
   sodipodi:docname="engsoc.svg">
  <defs
     id="defs4" />
  <sodipodi:namedview
     id="base"
     pagecolor="#ffffff"
     bordercolor="#666666"
     borderopacity="1.0"
     inkscape:pageopacity="0.0"
     inkscape:pageshadow="2"
     inkscape:zoom="3.959798"
     inkscape:cx="14.365787"
     inkscape:cy="77.289195"
     inkscape:document-units="px"
     inkscape:current-layer="layer1"
     showgrid="false"
     inkscape:window-width="1440"
     inkscape:window-height="838"
     inkscape:window-x="-8"
     inkscape:window-y="-8"
     inkscape:window-maximized="1" />
  <metadata
     id="metadata7">
    <rdf:RDF>
      <cc:Work
         rdf:about="">
        <dc:format>image/svg+xml</dc:format>
        <dc:type
           rdf:resource="http://purl.org/dc/dcmitype/StillImage" />
        <dc:title />
      </cc:Work>
    </rdf:RDF>
  </metadata>
  <g
     inkscape:label="Layer 1"
     inkscape:groupmode="layer"
     id="layer1"
     transform="translate(0,-907.36218)">
    <path
       style="fill:#888888;fill-opacity:1;stroke:#888888;stroke-width:1.10917294000000010px;stroke-linecap:butt;stroke-linejoin:miter;stroke-opacity:0.98823529000000021"
       d="m 53.193606,919.95844 11.487861,-1.78259 c -0.232646,-3.42999 12.619546,-14.67692 21.589261,0.59418 l 5.3478,0.19807 0.594194,-1.78259 6.536201,0 -0.396142,11.09172 -7.328449,-0.39613 c 0,0 0.264082,-1.65056 0.198055,-2.3768 l -4.753593,0.79227 c -1.367267,2.98179 -3.056826,4.67439 -4.951671,5.54587 l 3.565203,11.09172 -7.526524,0 -0.396142,5.14973 9.309134,0 -11.289796,81.80151 c 34.635912,-4.6848 47.669302,-26.0344 45.357242,-59.22192 l 9.30914,0.19808 0.19807,1.98066 9.90332,3.76327 0,13.66659 -11.2898,3.16907 c -0.85358,13.45345 -4.16542,25.48875 -18.61825,31.09645 l 0.59419,13.0723 -12.280129,7.1306 -8.318784,-8.1209 -7.130408,1.9807 -5.347787,10.6956 -14.656935,-0.198 -4.357464,-11.488 -7.526531,-2.1786 -8.516864,7.3285 -11.685929,-6.5363 2.772932,-10.8936 -7.130397,-6.9324 -10.497529,1.1884 -6.7342645,-11.2898 6.7342645,-6.5362 -0.396134,-6.53616 9.30913,-0.19807 c 9.114691,28.23793 36.274765,35.99123 43.970781,35.25583 l -7.328462,-81.60341 9.309135,0.19807 0.594194,-4.95166 -7.922662,-0.39614 3.961329,-12.28013 c -2.689482,-2.43847 -3.033991,-4.58778 -3.763263,-6.53618 z"
       id="path4064"
       inkscape:connector-curvature="0"
       sodipodi:nodetypes="cccccccccccccccccccccccccccccccccccccccccccccccc" />
    <path
       style="fill:#ffffff;fill-opacity:0.6894977;stroke:#888888;stroke-width:1.10917294px;stroke-linecap:butt;stroke-linejoin:miter;stroke-opacity:0.98823529"
       d="m 10.41122,962.14663 40.801718,0.39614 c 0,0 70.426392,36.39381 76.651782,42.78233 6.22536,6.3886 -5.89343,19.2155 -11.28981,14.855 -5.39638,-4.3604 -101.013959,-54.46828 -101.013959,-54.46828 l -0.198066,23.17379 -5.7439325,0 z"
       id="path4058"
       inkscape:connector-curvature="0"
       sodipodi:nodetypes="cczzcccc" />
    <path
       style="fill:none;stroke:#888888;stroke-width:1.10917294px;stroke-linecap:butt;stroke-linejoin:miter;stroke-opacity:0.98823529"
       d="M 51.014872,961.7505 27.048814,948.08389 26.65268,943.3303 c -3.045614,-0.75518 -10.039868,3.8832 -16.24146,20.00472 0.06647,3.88128 2.702842,3.13677 5.347799,2.3768 9.519488,-10.84153 12.456858,-17.60842 10.893661,-21.58925"
       id="path4060"
       inkscape:connector-curvature="0"
       sodipodi:nodetypes="cccccc" />
    <path
       style="fill:#f5dd92;fill-opacity:1;stroke:#f5dd92;stroke-width:1.10917294000000010px;stroke-linecap:butt;stroke-linejoin:miter;stroke-opacity:1"
       d="m 137.56997,952.63937 -28.52158,-0.19808 -25.946714,19.41052 11.289795,0 -35.652003,24.36221 14.85501,-0.59418 -34.661667,22.57966 64.569719,-27.33325 -25.352523,-0.19811 41.593983,-22.18345 -21.19312,-0.59418 z"
       id="path4062"
       inkscape:connector-curvature="0" />
  </g>
</svg>
