<?xml version="1.0" encoding="UTF-8" standalone="no"?>
<!-- Created with Inkscape (http://www.inkscape.org/) -->

<svg
   xmlns:dc="http://purl.org/dc/elements/1.1/"
   xmlns:cc="http://creativecommons.org/ns#"
   xmlns:rdf="http://www.w3.org/1999/02/22-rdf-syntax-ns#"
   xmlns:svg="http://www.w3.org/2000/svg"
   xmlns="http://www.w3.org/2000/svg"
   xmlns:sodipodi="http://sodipodi.sourceforge.net/DTD/sodipodi-0.dtd"
   xmlns:inkscape="http://www.inkscape.org/namespaces/inkscape"
   width="145"
   height="145"
   id="svg2"
   version="1.1"
   inkscape:version="0.48.3.1 r9886"
   sodipodi:docname="foward.svg">
  <defs
     id="defs4" />
  <sodipodi:namedview
     id="base"
     pagecolor="#ffffff"
     bordercolor="#666666"
     borderopacity="1.0"
     inkscape:pageopacity="0.0"
     inkscape:pageshadow="2"
     inkscape:zoom="3.959798"
     inkscape:cx="94.186133"
     inkscape:cy="88.290973"
     inkscape:document-units="px"
     inkscape:current-layer="layer1"
     showgrid="false"
     inkscape:window-width="1215"
     inkscape:window-height="1000"
     inkscape:window-x="65"
     inkscape:window-y="24"
     inkscape:window-maximized="1" />
  <metadata
     id="metadata7">
    <rdf:RDF>
      <cc:Work
         rdf:about="">
        <dc:format>image/svg+xml</dc:format>
        <dc:type
           rdf:resource="http://purl.org/dc/dcmitype/StillImage" />
        <dc:title></dc:title>
      </cc:Work>
    </rdf:RDF>
  </metadata>
  <g
     inkscape:label="Layer 1"
     inkscape:groupmode="layer"
     id="layer1"
     transform="translate(0,-907.36218)">
    <path
       style="opacity:0.75;fill:#518687;fill-opacity:0.47488589;stroke:none"
       d="M 72.78125 2.375 L 2.0625 73.09375 L 72.78125 143.8125 L 143.46875 73.09375 L 72.78125 2.375 z M 98.09375 45.46875 L 102.25 45.46875 C 102.51388 45.46875 102.71875 45.673452 102.71875 45.9375 L 102.71875 97.40625 C 102.71875 97.670298 102.51388 97.90625 102.25 97.90625 L 98.09375 97.90625 C 97.829874 97.90625 97.625 97.670298 97.625 97.40625 L 97.625 73.125 C 97.591363 73.234467 97.556528 73.310744 97.5 73.375 L 74.5 95.65625 C 74.284234 96.04485 72.297743 96.5216 72.4375 95.375 L 72.40625 47.9375 C 72.32702 47.39198 73.584911 46.93489 74.28125 47.5625 L 97.46875 71.5625 C 97.543831 71.620038 97.582873 71.752995 97.625 71.90625 L 97.625 45.9375 C 97.625 45.673452 97.829874 45.46875 98.09375 45.46875 z M 48.03125 47.28125 C 48.351032 47.265147 48.676373 47.327146 48.9375 47.5625 L 72.09375 71.5625 C 72.394047 71.79265 72.471611 73.01652 72.15625 73.375 L 49.15625 95.65625 C 48.940485 96.04485 46.953994 96.5216 47.09375 95.375 L 47.0625 47.9375 C 47.012981 47.59655 47.498281 47.308088 48.03125 47.28125 z "
       transform="translate(0,907.36218)"
       id="rect2985" />
  </g>
</svg>
