<?xml version="1.0" encoding="UTF-8" standalone="no"?>
<!-- Created with Inkscape (http://www.inkscape.org/) -->

<svg
   xmlns:dc="http://purl.org/dc/elements/1.1/"
   xmlns:cc="http://creativecommons.org/ns#"
   xmlns:rdf="http://www.w3.org/1999/02/22-rdf-syntax-ns#"
   xmlns:svg="http://www.w3.org/2000/svg"
   xmlns="http://www.w3.org/2000/svg"
   xmlns:xlink="http://www.w3.org/1999/xlink"
   xmlns:sodipodi="http://sodipodi.sourceforge.net/DTD/sodipodi-0.dtd"
   xmlns:inkscape="http://www.inkscape.org/namespaces/inkscape"
   width="145"
   height="145"
   id="svg2"
   version="1.1"
   inkscape:version="0.48.4 r9939"
   sodipodi:docname="kinect2.svg">
  <defs
     id="defs4">
    <linearGradient
       id="linearGradient3793">
      <stop
         style="stop-color:#518687;stop-opacity:0;"
         offset="0"
         id="stop3795" />
      <stop
         style="stop-color:#e1e000;stop-opacity:0;"
         offset="1"
         id="stop3797" />
    </linearGradient>
    <radialGradient
       inkscape:collect="always"
       xlink:href="#linearGradient3793"
       id="radialGradient3799"
       cx="71.973365"
       cy="979.63119"
       fx="71.973365"
       fy="979.63119"
       r="70.703125"
       gradientTransform="translate(0,2.0090558e-4)"
       gradientUnits="userSpaceOnUse" />
  </defs>
  <sodipodi:namedview
     id="base"
     pagecolor="#ffffff"
     bordercolor="#666666"
     borderopacity="1.0"
     inkscape:pageopacity="0.0"
     inkscape:pageshadow="2"
     inkscape:zoom="3.959798"
     inkscape:cx="33.185264"
     inkscape:cy="64.854606"
     inkscape:document-units="px"
     inkscape:current-layer="layer1"
     showgrid="false"
     inkscape:window-width="1920"
     inkscape:window-height="1018"
     inkscape:window-x="-8"
     inkscape:window-y="-8"
     inkscape:window-maximized="1" />
  <metadata
     id="metadata7">
    <rdf:RDF>
      <cc:Work
         rdf:about="">
        <dc:format>image/svg+xml</dc:format>
        <dc:type
           rdf:resource="http://purl.org/dc/dcmitype/StillImage" />
        <dc:title />
      </cc:Work>
    </rdf:RDF>
  </metadata>
  <g
     inkscape:label="Layer 1"
     inkscape:groupmode="layer"
     id="layer1"
     transform="translate(0,-907.36218)">
    <path
       id="path4375"
       transform="translate(0,907.36218)"
       d="M 71.96875 1.59375 L 1.25 72.28125 L 71.96875 143 L 142.65625 72.28125 L 71.96875 1.59375 z M 29.15625 66.90625 L 116.28125 67.03125 C 119.02225 67.03125 118.96115 67.04696 119.03125 69.75 L 119 77.8125 C 119 80.56065 118.98445 80.51635 116.25 80.53125 L 75.28125 80.34375 L 75.1875 84.0625 C 75.165526 85.09725 75.604882 85.89058 76.375 86.6875 C 77.145118 87.48442 78.213355 88.21731 79.3125 88.9375 C 80.411645 89.65769 81.527405 90.36519 82.34375 91.25 C 83.160095 92.13481 83.668403 93.3165 83.3125 94.625 L 83.1875 95.15625 L 82.625 95.15625 L 60.25 95.15625 L 59.6875 95.15625 L 59.5625 94.59375 C 59.244916 93.23235 59.960937 92.04486 60.96875 91.15625 C 61.976563 90.26764 63.313018 89.55011 64.65625 88.8125 C 65.999482 88.07489 67.349479 87.32244 68.3125 86.53125 C 69.275521 85.74006 69.79985 84.97093 69.8125 84.09375 L 69.875 80.5625 L 29.03125 80.59375 C 26.30246 80.59375 26.32464 80.59291 26.3125 77.875 L 26.4375 69.59375 C 26.4375 66.8608 26.423797 66.89455 29.15625 66.90625 z M 27.875 68.34375 L 27.75 79.15625 L 70.3125 79.125 C 71.449804 79.125 71.365616 79.19596 71.28125 80.375 L 71.25 84.125 C 71.229037 85.579 70.343154 86.73243 69.21875 87.65625 C 68.094296 88.58007 66.684697 89.32615 65.34375 90.0625 C 64.002803 90.79885 62.72216 91.53059 61.90625 92.25 C 61.313266 92.7728 61.09854 93.22615 61.03125 93.71875 L 81.9375 93.71875 C 81.935142 93.19295 81.749365 92.7261 81.28125 92.21875 C 80.657097 91.54225 79.632228 90.87764 78.53125 90.15625 C 77.430272 89.43486 76.244496 88.65193 75.3125 87.6875 C 74.380504 86.72307 73.6872 85.51713 73.71875 84.03125 L 73.8125 80.03125 C 73.846341 78.84238 73.844271 78.83365 75.09375 78.90625 L 117.53125 79.0625 L 117.5625 68.46875 L 27.875 68.34375 z "
       style="opacity:0.75000000000000000;fill:#ffffff;fill-opacity:0.47488588;stroke:none" />
    <path
       style="opacity:0.75;fill:#518687;fill-opacity:0.47488589;stroke:none"
       d="M 71.96875 1.59375 L 1.25 72.28125 L 71.96875 143 L 142.65625 72.28125 L 71.96875 1.59375 z M 29.15625 66.90625 L 116.28125 67.03125 C 119.02225 67.03125 118.96115 67.04696 119.03125 69.75 L 119 77.8125 C 119 80.56065 118.98445 80.51635 116.25 80.53125 L 75.28125 80.34375 L 75.1875 84.0625 C 75.165526 85.09725 75.604882 85.89058 76.375 86.6875 C 77.145118 87.48442 78.213355 88.21731 79.3125 88.9375 C 80.411645 89.65769 81.527405 90.36519 82.34375 91.25 C 83.160095 92.13481 83.668403 93.3165 83.3125 94.625 L 83.1875 95.15625 L 82.625 95.15625 L 60.25 95.15625 L 59.6875 95.15625 L 59.5625 94.59375 C 59.244916 93.23235 59.960937 92.04486 60.96875 91.15625 C 61.976563 90.26764 63.313018 89.55011 64.65625 88.8125 C 65.999482 88.07489 67.349479 87.32244 68.3125 86.53125 C 69.275521 85.74006 69.79985 84.97093 69.8125 84.09375 L 69.875 80.5625 L 29.03125 80.59375 C 26.30246 80.59375 26.32464 80.59291 26.3125 77.875 L 26.4375 69.59375 C 26.4375 66.8608 26.423797 66.89455 29.15625 66.90625 z M 27.875 68.34375 L 27.75 79.15625 L 70.3125 79.125 C 71.449804 79.125 71.365616 79.19596 71.28125 80.375 L 71.25 84.125 C 71.229037 85.579 70.343154 86.73243 69.21875 87.65625 C 68.094296 88.58007 66.684697 89.32615 65.34375 90.0625 C 64.002803 90.79885 62.72216 91.53059 61.90625 92.25 C 61.313266 92.7728 61.09854 93.22615 61.03125 93.71875 L 81.9375 93.71875 C 81.935142 93.19295 81.749365 92.7261 81.28125 92.21875 C 80.657097 91.54225 79.632228 90.87764 78.53125 90.15625 C 77.430272 89.43486 76.244496 88.65193 75.3125 87.6875 C 74.380504 86.72307 73.6872 85.51713 73.71875 84.03125 L 73.8125 80.03125 C 73.846341 78.84238 73.844271 78.83365 75.09375 78.90625 L 117.53125 79.0625 L 117.5625 68.46875 L 27.875 68.34375 z "
       transform="translate(0,907.36218)"
       id="rect2985" />
    <path
       inkscape:connector-curvature="0"
       style="opacity:0.75000000000000000;fill:url(#radialGradient3799);fill-opacity:1;stroke:none"
       d="m 71.988991,908.92808 -70.71875,70.6875 70.71875,70.71872 70.687499,-70.71872 -70.687499,-70.6875 z m -42.8125,65.3125 87.124999,0.125 c 2.741,0 2.6799,0.0157 2.75,2.71875 l -0.0312,8.0625 c 0,2.74815 -0.0156,2.70385 -2.75,2.71875 l -40.968799,-0.1875 -0.0937,3.71875 c -0.022,1.03475 0.41738,1.82808 1.1875,2.625 0.77012,0.79692 1.83836,1.52981 2.9375,2.25 1.09915,0.72019 2.21491,1.42769 3.03125,2.3125 0.81635,0.88481 1.32466,2.06647 0.96875,3.37497 l -0.125,0.5313 -0.5625,0 -22.375,0 -0.5625,0 -0.125,-0.5625 c -0.31758,-1.3614 0.39844,-2.54891 1.40625,-3.43752 1.00782,-0.88861 2.34427,-1.60614 3.6875,-2.34375 1.34323,-0.73761 2.69323,-1.49006 3.65625,-2.28125 0.96302,-0.79119 1.48735,-1.56032 1.5,-2.4375 l 0.0625,-3.53125 -40.84375,0.0312 c -2.72879,0 -2.70661,-8.4e-4 -2.71875,-2.71875 l 0.125,-8.28125 c 0,-2.73295 -0.0137,-2.6992 2.71875,-2.6875 z m -1.28125,1.4375 -0.125,10.8125 42.5625,-0.0312 c 1.13731,0 1.05312,0.071 0.96875,1.25 l -0.0312,3.74995 c -0.021,1.454 -0.90684,2.60743 -2.03125,3.53125 -1.12445,0.92382 -2.53405,1.6699 -3.875,2.40625 -1.34094,0.73635 -2.62159,1.46809 -3.4375,2.1875 -0.59298,0.52277 -0.80771,0.97617 -0.875,1.46877 l 20.90625,0 c -0.002,-0.5258 -0.18813,-0.9927 -0.65625,-1.50002 -0.62415,-0.6765 -1.64902,-1.34111 -2.75,-2.0625 -1.10098,-0.72139 -2.28675,-1.50432 -3.21875,-2.46875 -0.93199,-0.96443 -1.6253,-2.17037 -1.59375,-3.65625 l 0.0937,-4 c 0.0338,-1.18887 0.0318,-1.1976 1.28125,-1.125 l 42.437499,0.15625 0.0312,-10.59375 -89.687499,-0.125 z"
       id="rect2985-5" />
  </g>
</svg>
