<?xml version="1.0" encoding="UTF-8" standalone="no"?>
<!-- Created with Inkscape (http://www.inkscape.org/) -->

<svg
   xmlns:dc="http://purl.org/dc/elements/1.1/"
   xmlns:cc="http://creativecommons.org/ns#"
   xmlns:rdf="http://www.w3.org/1999/02/22-rdf-syntax-ns#"
   xmlns:svg="http://www.w3.org/2000/svg"
   xmlns="http://www.w3.org/2000/svg"
   xmlns:sodipodi="http://sodipodi.sourceforge.net/DTD/sodipodi-0.dtd"
   xmlns:inkscape="http://www.inkscape.org/namespaces/inkscape"
   width="145"
   height="145"
   id="svg2"
   version="1.1"
   inkscape:version="0.48.3.1 r9886"
   sodipodi:docname="linkedin2.svg">
  <defs
     id="defs4" />
  <sodipodi:namedview
     id="base"
     pagecolor="#ffffff"
     bordercolor="#666666"
     borderopacity="1.0"
     inkscape:pageopacity="0.0"
     inkscape:pageshadow="2"
     inkscape:zoom="5.6"
     inkscape:cx="46.906333"
     inkscape:cy="79.846209"
     inkscape:document-units="px"
     inkscape:current-layer="layer1"
     showgrid="false"
     inkscape:window-width="1215"
     inkscape:window-height="1000"
     inkscape:window-x="65"
     inkscape:window-y="24"
     inkscape:window-maximized="1" />
  <metadata
     id="metadata7">
    <rdf:RDF>
      <cc:Work
         rdf:about="">
        <dc:format>image/svg+xml</dc:format>
        <dc:type
           rdf:resource="http://purl.org/dc/dcmitype/StillImage" />
        <dc:title />
      </cc:Work>
    </rdf:RDF>
  </metadata>
  <g
     inkscape:label="Layer 1"
     inkscape:groupmode="layer"
     id="layer1"
     transform="translate(0,-907.36218)">
    <path
       id="path3861"
       transform="translate(0,907.36218)"
       d="M 71.96875 1.59375 L 1.25 72.28125 L 71.96875 143 L 142.65625 72.28125 L 71.96875 1.59375 z M 52.84375 44.4375 L 53.21875 49.09375 L 48.21875 49.46875 L 47.875 44.8125 L 52.84375 44.4375 z M 84.375 57.4375 C 85.02789 57.406824 85.689278 57.414285 86.375 57.5 C 91.020914 58.08074 94.486398 59.53951 96.78125 61.875 C 99.076102 64.21049 99.9787 67.2895 100 70.3125 C 100.03439 75.19485 99.833555 81.98053 99.71875 87.5 C 99.66135 90.25974 99.62302 92.7069 99.65625 94.375 C 99.67286 95.2092 99.71471 95.86635 99.75 96.15625 C 99.76765 96.30115 99.80788 96.40475 99.71875 96.15625 L 94.65625 96.125 C 94.61991 94.3003 94.66089 90.1878 94.71875 87.40625 C 94.834463 81.84315 95.03311 75.0755 95 70.375 C 94.985074 68.25698 94.486268 66.69622 93.21875 65.40625 C 91.951232 64.11628 89.675516 62.95944 85.75 62.46875 C 82.664353 62.08304 79.482539 64.13317 76.96875 66.6875 C 74.712945 68.97969 73.376315 71.12359 73.09375 71.59375 L 72.84375 96.09375 L 67.84375 96.03125 L 68.21875 59.28125 L 68.21875 59.25 L 70.71875 59.28125 L 73.21875 59.28125 L 73.21875 59.3125 L 73.21875 63.40625 C 73.295293 63.32673 73.3281 63.2669 73.40625 63.1875 C 76.050435 60.500664 79.804772 57.652232 84.375 57.4375 z M 47.84375 60.34375 L 52.84375 60.34375 L 52.84375 96.40625 L 47.84375 96.40625 L 47.84375 60.34375 z "
       style="opacity:0.75000000000000000;fill:#ffffff;fill-opacity:0.47488588;stroke:none" />
    <path
       style="opacity:0.75;fill:#518687;fill-opacity:0.47488589;stroke:none"
       d="M 71.96875 1.59375 L 1.25 72.28125 L 71.96875 143 L 142.65625 72.28125 L 71.96875 1.59375 z M 52.84375 44.4375 L 53.21875 49.09375 L 48.21875 49.46875 L 47.875 44.8125 L 52.84375 44.4375 z M 84.375 57.4375 C 85.02789 57.406824 85.689278 57.414285 86.375 57.5 C 91.020914 58.08074 94.486398 59.53951 96.78125 61.875 C 99.076102 64.21049 99.9787 67.2895 100 70.3125 C 100.03439 75.19485 99.833555 81.98053 99.71875 87.5 C 99.66135 90.25974 99.62302 92.7069 99.65625 94.375 C 99.67286 95.2092 99.71471 95.86635 99.75 96.15625 C 99.76765 96.30115 99.80788 96.40475 99.71875 96.15625 L 94.65625 96.125 C 94.61991 94.3003 94.66089 90.1878 94.71875 87.40625 C 94.834463 81.84315 95.03311 75.0755 95 70.375 C 94.985074 68.25698 94.486268 66.69622 93.21875 65.40625 C 91.951232 64.11628 89.675516 62.95944 85.75 62.46875 C 82.664353 62.08304 79.482539 64.13317 76.96875 66.6875 C 74.712945 68.97969 73.376315 71.12359 73.09375 71.59375 L 72.84375 96.09375 L 67.84375 96.03125 L 68.21875 59.28125 L 68.21875 59.25 L 70.71875 59.28125 L 73.21875 59.28125 L 73.21875 59.3125 L 73.21875 63.40625 C 73.295293 63.32673 73.3281 63.2669 73.40625 63.1875 C 76.050435 60.500664 79.804772 57.652232 84.375 57.4375 z M 47.84375 60.34375 L 52.84375 60.34375 L 52.84375 96.40625 L 47.84375 96.40625 L 47.84375 60.34375 z "
       transform="translate(0,907.36218)"
       id="rect2985" />
  </g>
</svg>
