<?xml version="1.0" encoding="UTF-8" standalone="no"?>
<!-- Created with Inkscape (http://www.inkscape.org/) -->

<svg
   xmlns:dc="http://purl.org/dc/elements/1.1/"
   xmlns:cc="http://creativecommons.org/ns#"
   xmlns:rdf="http://www.w3.org/1999/02/22-rdf-syntax-ns#"
   xmlns:svg="http://www.w3.org/2000/svg"
   xmlns="http://www.w3.org/2000/svg"
   xmlns:sodipodi="http://sodipodi.sourceforge.net/DTD/sodipodi-0.dtd"
   xmlns:inkscape="http://www.inkscape.org/namespaces/inkscape"
   width="145"
   height="145"
   id="svg3009"
   version="1.1"
   inkscape:version="0.48.4 r9939"
   sodipodi:docname="nexj.svg">
  <defs
     id="defs3011" />
  <sodipodi:namedview
     id="base"
     pagecolor="#ffffff"
     bordercolor="#666666"
     borderopacity="1.0"
     inkscape:pageopacity="0.0"
     inkscape:pageshadow="2"
     inkscape:zoom="5.6"
     inkscape:cx="76.839916"
     inkscape:cy="82.872732"
     inkscape:document-units="px"
     inkscape:current-layer="layer1"
     showgrid="false"
     inkscape:window-width="1440"
     inkscape:window-height="838"
     inkscape:window-x="-8"
     inkscape:window-y="-8"
     inkscape:window-maximized="1" />
  <metadata
     id="metadata3014">
    <rdf:RDF>
      <cc:Work
         rdf:about="">
        <dc:format>image/svg+xml</dc:format>
        <dc:type
           rdf:resource="http://purl.org/dc/dcmitype/StillImage" />
        <dc:title />
      </cc:Work>
    </rdf:RDF>
  </metadata>
  <g
     inkscape:label="Layer 1"
     inkscape:groupmode="layer"
     id="layer1"
     transform="translate(0,-907.36218)">
    <path
       style="fill:#231f20;fill-opacity:0.58823532;stroke:none"
       d="m 4.2887802,997.20336 8.4399438,-0.0844 0.506398,-34.26617 c 15.208866,-0.50274 18.70481,0.73553 18.39908,16.37349 l -0.3376,17.38629 7.933551,0 -0.168802,-28.02062 c -0.02269,-3.7626 -3.446643,-12.13888 -18.39908,-11.98473 l -16.3734955,0.16881 z"
       id="path4973"
       inkscape:connector-curvature="0"
       sodipodi:nodetypes="ccccccsscc" />
    <path
       style="fill:#231f20;fill-opacity:0.58823532;stroke:none"
       d="m 77.041109,956.60722 0,6.75196 c -12.22035,0.18575 -22.898613,-1.0392 -23.80065,9.28394 l 23.969447,0 0.168798,6.07676 -23.800645,0 c -1.2736,12.90427 12.470337,12.07627 23.294247,11.64713 l 0,6.24556 c -11.183691,0.1065 -24.358403,1.70638 -30.552599,-9.28394 -2.775536,-4.92462 -3.648483,-14.5253 1.519188,-22.61906 5.154328,-8.07286 17.092858,-8.16095 29.202214,-8.10235 z"
       id="path4975"
       inkscape:connector-curvature="0"
       sodipodi:nodetypes="ccccccccssc" />
    <path
       style="fill:#208bcb;fill-opacity:0.58823532;stroke:none"
       d="m 82.780268,956.26963 9.959136,0 10.803126,14.5167 10.63433,-14.0103 9.45275,0 -15.02311,19.58067 15.5295,20.59347 -9.79033,-0.16881 -11.30953,-15.0231 -11.140728,14.68551 -9.621541,0.1688 15.6983,-20.25587 z"
       id="path4977"
       inkscape:connector-curvature="0" />
    <path
       sodipodi:type="arc"
       style="fill:#208bcb;fill-opacity:0.58823532;stroke:none"
       id="path5491"
       sodipodi:cx="408.92856"
       sodipodi:cy="304.68362"
       sodipodi:rx="10.892858"
       sodipodi:ry="10.357142"
       d="m 419.82142,304.68362 a 10.892858,10.357142 0 1 1 -21.78572,0 10.892858,10.357142 0 1 1 21.78572,0 z"
       transform="matrix(0.47263694,0,0,0.47263694,-89.901013,807.11653)" />
    <path
       style="fill:#231f20;fill-opacity:0.58823532;stroke:none"
       d="m 118.98897,1003.9682 8.23576,-0.1194 c 2.72508,-0.039 3.93885,-1.1513 3.93885,-3.342 l 0,-43.80473 7.99704,0 0,45.95313 c 0,6.1075 -4.59283,9.4294 -9.42935,9.4294 l -10.7423,0 z"
       id="path5493"
       inkscape:connector-curvature="0"
       sodipodi:nodetypes="cssccsscc" />
  </g>
</svg>
