<?xml version="1.0" encoding="UTF-8" standalone="no"?>
<!-- Created with Inkscape (http://www.inkscape.org/) -->

<svg
   xmlns:dc="http://purl.org/dc/elements/1.1/"
   xmlns:cc="http://creativecommons.org/ns#"
   xmlns:rdf="http://www.w3.org/1999/02/22-rdf-syntax-ns#"
   xmlns:svg="http://www.w3.org/2000/svg"
   xmlns="http://www.w3.org/2000/svg"
   xmlns:sodipodi="http://sodipodi.sourceforge.net/DTD/sodipodi-0.dtd"
   xmlns:inkscape="http://www.inkscape.org/namespaces/inkscape"
   width="145"
   height="145"
   id="svg3009"
   version="1.1"
   inkscape:version="0.48.4 r9939"
   sodipodi:docname="New document 5">
  <defs
     id="defs3011" />
  <sodipodi:namedview
     id="base"
     pagecolor="#ffffff"
     bordercolor="#666666"
     borderopacity="1.0"
     inkscape:pageopacity="0.0"
     inkscape:pageshadow="2"
     inkscape:zoom="1.979899"
     inkscape:cx="165.54374"
     inkscape:cy="87.665227"
     inkscape:document-units="px"
     inkscape:current-layer="layer1"
     showgrid="false"
     inkscape:window-width="1440"
     inkscape:window-height="838"
     inkscape:window-x="-8"
     inkscape:window-y="-8"
     inkscape:window-maximized="1" />
  <metadata
     id="metadata3014">
    <rdf:RDF>
      <cc:Work
         rdf:about="">
        <dc:format>image/svg+xml</dc:format>
        <dc:type
           rdf:resource="http://purl.org/dc/dcmitype/StillImage" />
        <dc:title></dc:title>
      </cc:Work>
    </rdf:RDF>
  </metadata>
  <g
     inkscape:label="Layer 1"
     inkscape:groupmode="layer"
     id="layer1"
     transform="translate(0,-907.36218)">
    <g
       id="g5495"
       transform="matrix(0.47263694,0,0,0.47263694,-91.082605,805.93494)">
      <path
         sodipodi:nodetypes="ccccccsscc"
         inkscape:connector-curvature="0"
         id="path4973"
         d="m 201.78572,404.68361 17.85714,-0.17857 1.07143,-72.5 c 32.17875,-1.06369 39.57543,1.55623 38.92857,34.64286 l -0.71429,36.78571 16.78572,0 -0.35715,-59.28571 c -0.048,-7.96087 -7.29237,-25.6833 -38.92857,-25.35715 l -34.64286,0.35715 z"
         style="fill:#231f20;fill-opacity:1;stroke:none" />
      <path
         sodipodi:nodetypes="ccccccccssc"
         inkscape:connector-curvature="0"
         id="path4975"
         d="m 355.71429,318.79075 0,14.28572 c -25.85568,0.39301 -48.44863,-2.19873 -50.35715,19.64285 l 50.71429,0 0.35714,12.85715 -50.35714,0 c -2.69467,27.30271 26.3846,25.55083 49.28571,24.64285 l 0,13.21429 c -23.66233,0.22534 -51.53724,3.61035 -64.64285,-19.64286 -5.87245,-10.41945 -7.71942,-30.73245 3.21428,-47.85714 10.90547,-17.08047 36.16488,-17.26685 61.78572,-17.14286 z"
         style="fill:#231f20;fill-opacity:1;stroke:none" />
      <path
         inkscape:connector-curvature="0"
         id="path4977"
         d="m 367.85714,318.07647 21.07143,0 22.85714,30.71428 22.5,-29.64285 20.00001,0 -31.78572,41.42857 32.85714,43.57143 -20.71428,-0.35715 -23.92857,-31.78571 -23.57143,31.07143 -20.35715,0.35714 L 400,360.57647 z"
         style="fill:#208bcb;fill-opacity:1;stroke:none" />
      <path
         transform="translate(2.5,2.5)"
         d="m 419.82142,304.68362 c 0,5.7201 -4.8769,10.35715 -10.89286,10.35715 -6.01596,0 -10.89286,-4.63705 -10.89286,-10.35715 0,-5.72009 4.8769,-10.35714 10.89286,-10.35714 6.01596,0 10.89286,4.63705 10.89286,10.35714 z"
         sodipodi:ry="10.357142"
         sodipodi:rx="10.892858"
         sodipodi:cy="304.68362"
         sodipodi:cx="408.92856"
         id="path5491"
         style="fill:#208bcb;fill-opacity:1;stroke:none"
         sodipodi:type="arc" />
      <path
         sodipodi:nodetypes="cssccsscc"
         inkscape:connector-curvature="0"
         id="path5493"
         d="m 444.46712,418.99654 17.42513,-0.25254 c 5.76568,-0.0836 8.33376,-2.43597 8.33376,-7.07107 l 0,-92.6815 16.92006,0 0,97.22719 c 0,12.92212 -9.71747,19.95051 -19.95052,19.95051 l -22.72843,0 z"
         style="fill:#231f20;fill-opacity:1;stroke:none" />
    </g>
  </g>
</svg>
