<?xml version="1.0" encoding="UTF-8" standalone="no"?>
<!-- Created with Inkscape (http://www.inkscape.org/) -->

<svg
   xmlns:dc="http://purl.org/dc/elements/1.1/"
   xmlns:cc="http://creativecommons.org/ns#"
   xmlns:rdf="http://www.w3.org/1999/02/22-rdf-syntax-ns#"
   xmlns:svg="http://www.w3.org/2000/svg"
   xmlns="http://www.w3.org/2000/svg"
   xmlns:sodipodi="http://sodipodi.sourceforge.net/DTD/sodipodi-0.dtd"
   xmlns:inkscape="http://www.inkscape.org/namespaces/inkscape"
   width="145"
   height="145"
   id="svg2"
   version="1.1"
   inkscape:version="0.48.4 r9939"
   sodipodi:docname="plane.svg">
  <defs
     id="defs4" />
  <sodipodi:namedview
     id="base"
     pagecolor="#ffffff"
     bordercolor="#666666"
     borderopacity="1.0"
     inkscape:pageopacity="0.0"
     inkscape:pageshadow="2"
     inkscape:zoom="3.959798"
     inkscape:cx="58.745486"
     inkscape:cy="104.99861"
     inkscape:document-units="px"
     inkscape:current-layer="layer1"
     showgrid="false"
     inkscape:window-width="1920"
     inkscape:window-height="1018"
     inkscape:window-x="-8"
     inkscape:window-y="-8"
     inkscape:window-maximized="1" />
  <metadata
     id="metadata7">
    <rdf:RDF>
      <cc:Work
         rdf:about="">
        <dc:format>image/svg+xml</dc:format>
        <dc:type
           rdf:resource="http://purl.org/dc/dcmitype/StillImage" />
        <dc:title />
      </cc:Work>
    </rdf:RDF>
  </metadata>
  <g
     inkscape:label="Layer 1"
     inkscape:groupmode="layer"
     id="layer1"
     transform="translate(0,-907.36218)">
    <path
       style="opacity:0.75;fill:#518687;fill-opacity:0.47488589;stroke:none"
       d="M 72.0625 0.59375 L 1.34375 71.3125 L 72.0625 142 L 142.78125 71.3125 L 72.0625 0.59375 z M 32.5625 44.03125 L 47.875 46.40625 L 48.03125 46.4375 L 48.125 46.59375 L 54.4375 60.28125 L 76.53125 60.625 C 82.768596 57.09901 88.292515 57.00276 92.3125 57.84375 C 94.32954 58.26562 95.962414 58.91989 97.125 59.5 C 97.706293 59.79006 98.166525 60.0685 98.5 60.28125 C 98.814451 60.48186 98.980757 60.58432 99.09375 60.6875 C 99.10059 60.6937 99.1186 60.71275 99.125 60.71875 C 105.63107 65.52711 109.1527 71.27044 110.4375 73.46875 L 110.4375 73.5 L 110.46875 73.5 C 111.21864 75.14202 110.882 76.7462 109.96875 78.125 C 109.0555 79.5038 107.58995 80.70055 105.9375 81.71875 C 102.6326 83.75516 98.677909 85.06028 97.1875 85.34375 L 97.15625 85.34375 C 89.842355 85.7881 85.813496 86.05211 82.84375 85.875 C 80.096031 85.71113 78.190815 85.09492 75.53125 84 C 75.658926 84.40083 75.869741 84.98205 76.0625 86.125 C 76.18723 86.86455 76.26594 87.66712 76.21875 88.40625 C 76.171557 89.14538 76.000003 89.84037 75.5625 90.34375 C 74.617471 91.43107 73.290492 91.874 71.84375 91.9375 C 71.506684 91.95229 71.129943 91.80275 70.78125 91.78125 L 70.875 91.875 L 70 91.78125 C 69.231922 91.69562 68.721171 91.53759 68.125 91.40625 C 67.840878 91.33955 67.562898 91.35695 67.28125 91.28125 L 66.9375 91.15625 C 66.388774 90.99744 66.002485 90.84464 65.59375 90.6875 L 64.75 90.40625 L 64.75 90.375 C 64.74269 90.372 64.72605 90.378 64.71875 90.375 L 64.8125 90.09375 L 64.65625 90.21875 L 64.53125 90.3125 L 64.375 90.28125 L 64.3125 90.25 L 54.125 96 L 54 96.0625 L 53.875 96.03125 L 42.125 92.5625 L 41.53125 92.375 L 42 91.96875 L 58.34375 78.0625 L 47.6875 72.5 L 42.3125 76.15625 L 42.21875 76.25 L 42.09375 76.21875 C 40.030124 76.00113 38.945764 75.50431 37.4375 75.15625 L 36.84375 75.03125 L 37.25 74.59375 L 42.4375 69.125 L 37.3125 47.875 L 32.4375 44.6875 L 32.3125 44.625 L 32.5625 44.03125 z M 33.96875 44.9375 L 37.78125 47.40625 L 37.875 47.46875 L 37.90625 47.59375 L 43.03125 68.8125 L 50.78125 68.90625 L 51.59375 68.9375 L 51 69.5 L 48.3125 72.0625 L 58.90625 77.625 L 62.4375 74.90625 L 62.5 74.84375 L 62.59375 74.84375 C 65.632211 74.62247 68.148316 74.61408 70.21875 74.75 C 72.289184 74.88592 73.922539 75.17417 75.25 75.59375 C 77.904923 76.43291 79.293625 77.79987 80.21875 79.28125 L 80.375 79.53125 L 80.125 79.71875 L 75.03125 83.125 L 75.1875 83.1875 C 78.194776 84.4591 80.01069 85.04606 82.90625 85.21875 C 85.795441 85.39106 89.778509 85.13005 97.0625 84.6875 C 97.06779 84.6865 97.08835 84.6885 97.09375 84.6875 C 98.435716 84.4279 102.36568 83.12606 105.5625 81.15625 C 107.16731 80.1674 108.61114 78.99761 109.4375 77.75 C 110.26386 76.50239 110.49997 75.21817 109.84375 73.78125 C 109.14973 72.59474 107.76826 70.38231 105.6875 67.875 C 103.56778 69.0957 100.62603 70.69245 97.78125 71.34375 C 96.121295 71.7238 93.664531 71.8105 91.59375 71.8125 C 89.522969 71.8148 87.84375 71.71875 87.84375 71.71875 L 87.53125 71.71875 L 87.53125 71.40625 L 87.53125 68.5625 L 87.53125 68.1875 L 87.90625 68.21875 C 87.90625 68.21875 89.578233 68.39605 91.65625 68.46875 C 93.734267 68.54141 96.220314 68.49113 97.75 68.09375 C 99.720793 67.58177 101.87614 66.22184 103.21875 65.125 C 101.90731 63.80595 100.44019 62.48777 98.71875 61.21875 L 98.6875 61.21875 L 98.6875 61.1875 C 98.694072 61.19377 98.470052 61.04395 98.15625 60.84375 C 97.842448 60.64355 97.403386 60.373 96.84375 60.09375 C 95.724477 59.53525 94.139496 58.90827 92.1875 58.5 C 88.283508 57.68346 82.904346 57.76769 76.78125 61.25 L 76.71875 61.28125 L 76.625 61.28125 L 54.21875 60.9375 L 54 60.9375 L 53.90625 60.75 L 47.5625 47.03125 L 33.96875 44.9375 z M 103.46875 65.78125 C 102.0607 66.90407 99.990594 68.21664 97.9375 68.75 C 96.2539 69.1874 93.759287 69.1985 91.65625 69.125 C 89.760309 69.05871 88.509166 68.93545 88.21875 68.90625 L 88.21875 71.0625 C 88.466738 71.0751 89.716262 71.15825 91.59375 71.15625 C 93.644957 71.15407 96.116656 71.03998 97.65625 70.6875 C 100.22381 70.09967 102.9273 68.68132 105 67.5 L 103.46875 65.78125 z M 66.125 66.46875 C 66.533487 66.4682 66.925984 66.5965 67.21875 66.875 C 67.5917 67.22977 67.80083 67.74666 67.84375 68.28125 C 67.886666 68.81584 67.781904 69.40476 67.34375 69.75 C 66.943974 70.065 66.41495 70.02814 65.96875 69.875 C 65.52255 69.72186 65.098458 69.45888 64.84375 69.09375 C 64.61967 68.77252 64.54855 68.36669 64.5625 67.96875 C 64.576447 67.57081 64.694848 67.16048 65 66.875 C 65.304323 66.59029 65.716522 66.4693 66.125 66.46875 z M 66.125 67.125 C 65.859872 67.12535 65.566071 67.22346 65.4375 67.34375 C 65.3088 67.46416 65.22815 67.69935 65.21875 67.96875 C 65.209308 68.23815 65.29042 68.5527 65.40625 68.71875 C 65.552199 68.92797 65.87138 69.1415 66.1875 69.25 C 66.50362 69.35855 66.755963 69.33717 66.90625 69.21875 C 67.08971 69.07419 67.21914 68.73784 67.1875 68.34375 C 67.155863 67.94966 66.981703 67.53443 66.78125 67.34375 C 66.6445 67.2137 66.390119 67.12465 66.125 67.125 z M 72.375 67.46875 C 72.479436 67.457447 72.581382 67.460575 72.6875 67.46875 C 73.095874 67.50013 73.500639 67.63755 73.78125 67.9375 C 74.077392 68.25404 74.21225 68.68983 74.21875 69.125 C 74.22524 69.56017 74.093505 70.043 73.75 70.34375 C 73.418744 70.63375 72.969081 70.66015 72.5625 70.59375 C 72.155919 70.52735 71.767357 70.36788 71.5 70.0625 C 71.23586 69.7608 71.10015 69.33733 71.09375 68.9375 C 71.087351 68.53767 71.221371 68.13366 71.53125 67.84375 C 71.760305 67.629475 72.061693 67.502659 72.375 67.46875 z M 77.875 67.75 L 78.25 67.8125 C 78.45444 67.8403 78.655607 67.92556 78.8125 68.03125 C 79.202216 68.29361 79.41675 68.73123 79.5 69.1875 C 79.583248 69.64377 79.544435 70.14603 79.28125 70.53125 C 79.041286 70.88248 78.627834 71.07485 78.21875 71.15625 C 77.809666 71.23764 77.382544 71.19263 77.03125 70.9375 C 76.649025 70.6599 76.45699 70.20619 76.40625 69.75 C 76.355515 69.29381 76.423087 68.80686 76.6875 68.4375 C 76.919323 68.11367 77.307194 67.92935 77.6875 67.84375 C 77.748618 67.82995 77.81106 67.85175 77.875 67.84375 L 77.875 67.75 z M 72.625 68.125 C 72.370203 68.10539 72.097197 68.19233 71.96875 68.3125 C 71.84574 68.42759 71.77705 68.67509 71.78125 68.9375 C 71.78545 69.19991 71.873645 69.48068 72 69.625 C 72.126594 69.76959 72.414435 69.89295 72.6875 69.9375 C 72.960565 69.98215 73.193792 69.94768 73.3125 69.84375 C 73.44475 69.72797 73.53575 69.45463 73.53125 69.15625 C 73.5268 68.85787 73.417102 68.55146 73.28125 68.40625 C 73.155967 68.27234 72.895896 68.1458 72.625 68.125 z M 83.1875 68.125 C 83.265339 68.127875 83.339959 68.1499 83.40625 68.15625 C 83.726339 68.18705 84.055393 68.29237 84.3125 68.53125 C 84.660786 68.85485 84.90321 69.31478 85 69.8125 C 85.096794 70.31022 85.037828 70.87167 84.65625 71.25 C 84.288072 71.61505 83.767107 71.68245 83.28125 71.59375 C 82.795393 71.50504 82.312549 71.27281 82.03125 70.875 C 81.76203 70.49427 81.73338 70.01429 81.8125 69.5625 C 81.89162 69.11071 82.106344 68.65423 82.46875 68.375 C 82.607234 68.26832 82.755346 68.19195 82.9375 68.15625 C 83.028601 68.1384 83.109661 68.122125 83.1875 68.125 z M 78.1875 68.46875 C 78.092037 68.45575 77.943699 68.4704 77.8125 68.5 C 77.56257 68.55624 77.34755 68.70748 77.25 68.84375 C 77.12064 69.02445 77.02663 69.36496 77.0625 69.6875 C 77.09837 70.01004 77.241124 70.28632 77.40625 70.40625 C 77.544104 70.50595 77.819755 70.5545 78.09375 70.5 C 78.367745 70.44549 78.617679 70.30419 78.71875 70.15625 C 78.84045 69.97816 78.90273 69.63578 78.84375 69.3125 C 78.784767 68.98922 78.613719 68.68113 78.4375 68.5625 C 78.359697 68.5101 78.28311 68.48175 78.1875 68.46875 z M 83.0625 68.8125 C 82.998646 68.825 82.89375 68.86775 82.84375 68.90625 C 82.665739 69.04341 82.52487 69.33577 82.46875 69.65625 C 82.412627 69.97673 82.469081 70.29245 82.59375 70.46875 C 82.728829 70.65978 83.061733 70.8746 83.40625 70.9375 C 83.750767 71.0004 84.074804 70.92397 84.21875 70.78125 C 84.377 70.62435 84.41456 70.30161 84.34375 69.9375 C 84.27294 69.57339 84.083624 69.19383 83.875 69 C 83.783473 68.91496 83.553627 68.8327 83.34375 68.8125 C 83.211349 68.7998 83.12631 68.8 83.0625 68.8125 z M 43.0625 69.46875 L 38.15625 74.625 C 39.396983 74.95474 40.410541 75.34389 42.0625 75.53125 L 47.5 71.84375 L 47.65625 71.71875 L 47.6875 71.71875 L 49.9375 69.59375 L 43.0625 69.46875 z M 66.8125 75.34375 C 65.571045 75.358656 64.215698 75.39227 62.71875 75.5 L 59.21875 78.21875 L 59.15625 78.28125 L 58.90625 78.46875 L 42.9375 92.09375 L 53.9375 95.34375 L 64.125 89.59375 L 64.25 89.53125 L 64.375 89.59375 L 64.40625 89.59375 L 64.34375 89.5 L 67.90625 87.09375 L 69.03125 86.3125 L 69.0625 86.28125 L 69.09375 86.3125 L 79.4375 79.375 C 78.581116 78.09876 77.424335 76.96527 75.0625 76.21875 C 73.176588 75.622687 70.536866 75.299031 66.8125 75.34375 z M 74.65625 83.375 L 72.21875 85 C 72.323539 84.971046 72.419805 84.946984 72.53125 84.9375 C 72.908408 84.90537 73.317872 84.9879 73.625 85.25 C 74.065934 85.62622 74.28477 86.21581 74.34375 86.8125 C 74.402726 87.40919 74.303465 88.02993 73.90625 88.46875 C 73.570172 88.84002 73.057393 88.96878 72.5625 88.96875 C 72.067607 88.96872 71.554937 88.83978 71.21875 88.46875 C 70.83054 88.04031 70.73894 87.43979 70.8125 86.875 C 70.871531 86.421764 71.043146 85.979491 71.3125 85.625 L 69.34375 86.9375 C 68.762821 87.56295 68.680476 88.220466 68.875 88.9375 C 69.0659 89.64117 69.601002 90.36412 70.15625 91 C 70.707436 91.06458 71.303871 91.2723 71.8125 91.25 C 73.145126 91.19153 74.261092 90.82832 75.0625 89.90625 C 75.351363 89.57389 75.52038 89.00351 75.5625 88.34375 C 75.604625 87.68399 75.525615 86.92651 75.40625 86.21875 C 75.16752 84.80322 74.75 83.59375 74.75 83.59375 L 74.65625 83.375 z M 72.59375 85.59375 C 72.351223 85.61441 72.100865 85.7168 71.96875 85.84375 C 71.723447 86.07947 71.52485 86.50675 71.46875 86.9375 C 71.412648 87.36825 71.51327 87.77323 71.71875 88 C 71.873032 88.17027 72.208812 88.31247 72.5625 88.3125 C 72.916188 88.31253 73.252124 88.17027 73.40625 88 C 73.62134 87.76239 73.73308 87.33615 73.6875 86.875 C 73.64192 86.41385 73.440645 85.966 73.1875 85.75 C 73.072662 85.65205 72.841036 85.57265 72.59375 85.59375 z M 68.1875 87.71875 L 67.65625 88.0625 L 65.15625 89.84375 L 65.75 90.0625 C 66.156283 90.22072 66.553897 90.3734 67.09375 90.53125 C 67.303376 90.5925 67.639303 90.6299 67.875 90.6875 C 68.368154 90.8118 68.824857 90.789 69.3125 90.875 C 68.886232 90.31229 68.396833 89.78143 68.21875 89.125 C 68.09584 88.671941 68.083292 88.182071 68.1875 87.71875 z "
       transform="translate(0,907.36218)"
       id="rect2985" />
  </g>
</svg>
