<?xml version="1.0" encoding="UTF-8" standalone="no"?>
<!-- Created with Inkscape (http://www.inkscape.org/) -->

<svg
   xmlns:dc="http://purl.org/dc/elements/1.1/"
   xmlns:cc="http://creativecommons.org/ns#"
   xmlns:rdf="http://www.w3.org/1999/02/22-rdf-syntax-ns#"
   xmlns:svg="http://www.w3.org/2000/svg"
   xmlns="http://www.w3.org/2000/svg"
   xmlns:sodipodi="http://sodipodi.sourceforge.net/DTD/sodipodi-0.dtd"
   xmlns:inkscape="http://www.inkscape.org/namespaces/inkscape"
   width="145"
   height="145"
   id="svg2"
   version="1.1"
   inkscape:version="0.48.3.1 r9886"
   sodipodi:docname="foward2.svg">
  <defs
     id="defs4" />
  <sodipodi:namedview
     id="base"
     pagecolor="#ffffff"
     bordercolor="#666666"
     borderopacity="1.0"
     inkscape:pageopacity="0.0"
     inkscape:pageshadow="2"
     inkscape:zoom="3.959798"
     inkscape:cx="94.186133"
     inkscape:cy="88.290973"
     inkscape:document-units="px"
     inkscape:current-layer="layer1"
     showgrid="false"
     inkscape:window-width="1215"
     inkscape:window-height="1000"
     inkscape:window-x="65"
     inkscape:window-y="24"
     inkscape:window-maximized="1" />
  <metadata
     id="metadata7">
    <rdf:RDF>
      <cc:Work
         rdf:about="">
        <dc:format>image/svg+xml</dc:format>
        <dc:type
           rdf:resource="http://purl.org/dc/dcmitype/StillImage" />
        <dc:title></dc:title>
      </cc:Work>
    </rdf:RDF>
  </metadata>
  <g
     inkscape:label="Layer 1"
     inkscape:groupmode="layer"
     id="layer1"
     transform="translate(0,-907.36218)">
    <path
       style="opacity:0.75;fill:#518687;fill-opacity:0.47488589;stroke:none"
       d="M 72.75,909.73718 143.46875,980.45593 72.75,1051.1747 2.0625,980.45593 72.75,909.73718 z m -25.3125,43.09375 -4.15625,0 c -0.26388,0 -0.46875,0.2047 -0.46875,0.46875 l 0,51.46872 c 0,0.2641 0.20487,0.5 0.46875,0.5 l 4.15625,0 c 0.263876,0 0.46875,-0.2359 0.46875,-0.5 l 0,-24.28122 c 0.03364,0.10947 0.06847,0.18574 0.125,0.25 l 23,22.28122 c 0.215766,0.3886 2.202257,0.8654 2.0625,-0.2812 L 73.125,955.29968 c 0.07923,-0.54552 -1.178661,-1.00261 -1.875,-0.375 l -23.1875,24 c -0.07508,0.0575 -0.114123,0.1905 -0.15625,0.34375 l 0,-25.96875 c 0,-0.26405 -0.204874,-0.46875 -0.46875,-0.46875 z m 50.0625,1.8125 c -0.319782,-0.0161 -0.645123,0.0459 -0.90625,0.28125 l -23.15625,24 c -0.300297,0.23015 -0.377861,1.45402 -0.0625,1.8125 l 23,22.28122 c 0.215765,0.3886 2.202256,0.8654 2.0625,-0.2812 l 0.03125,-47.43752 c 0.04952,-0.34095 -0.435781,-0.62941 -0.96875,-0.65625 z"
       id="rect2985"
       inkscape:connector-curvature="0" />
  </g>
</svg>
