<?xml version="1.0" encoding="UTF-8" standalone="no"?>
<!-- Created with Inkscape (http://www.inkscape.org/) -->

<svg
   xmlns:dc="http://purl.org/dc/elements/1.1/"
   xmlns:cc="http://creativecommons.org/ns#"
   xmlns:rdf="http://www.w3.org/1999/02/22-rdf-syntax-ns#"
   xmlns:svg="http://www.w3.org/2000/svg"
   xmlns="http://www.w3.org/2000/svg"
   xmlns:sodipodi="http://sodipodi.sourceforge.net/DTD/sodipodi-0.dtd"
   xmlns:inkscape="http://www.inkscape.org/namespaces/inkscape"
   width="145"
   height="145"
   id="svg2"
   version="1.1"
   inkscape:version="0.48.3.1 r9886"
   sodipodi:docname="www2.svg">
  <defs
     id="defs4" />
  <sodipodi:namedview
     id="base"
     pagecolor="#ffffff"
     bordercolor="#666666"
     borderopacity="1.0"
     inkscape:pageopacity="0.0"
     inkscape:pageshadow="2"
     inkscape:zoom="5.6"
     inkscape:cx="49.421366"
     inkscape:cy="68.292193"
     inkscape:document-units="px"
     inkscape:current-layer="layer1"
     showgrid="false"
     inkscape:window-width="1215"
     inkscape:window-height="1000"
     inkscape:window-x="65"
     inkscape:window-y="24"
     inkscape:window-maximized="1" />
  <metadata
     id="metadata7">
    <rdf:RDF>
      <cc:Work
         rdf:about="">
        <dc:format>image/svg+xml</dc:format>
        <dc:type
           rdf:resource="http://purl.org/dc/dcmitype/StillImage" />
        <dc:title />
      </cc:Work>
    </rdf:RDF>
  </metadata>
  <g
     inkscape:label="Layer 1"
     inkscape:groupmode="layer"
     id="layer1"
     transform="translate(0,-907.36218)">
    <path
       id="path3091"
       transform="translate(0,907.36218)"
       d="M 72.78125 2.375 L 2.0625 73.09375 L 72.78125 143.8125 L 143.46875 73.09375 L 72.78125 2.375 z M 40.96875 50.1875 L 105.03125 50.96875 C 105.56526 51.15846 105.67575 51.14717 105.71875 51.84375 L 105.9375 94.9375 C 105.88276 96.3742 105.13694 95.88225 104.59375 95.90625 L 40.96875 95.25 C 40.113079 95.0252 39.98791 94.4994 40.03125 93.875 L 39.59375 51.28125 C 39.585439 50.45428 40.294136 50.33155 40.96875 50.1875 z M 60.625 52.875 L 58.65625 54.8125 L 59.625 54.84375 L 59.5625 56.5 L 61.53125 56.5625 L 61.59375 54.78125 L 62.34375 54.78125 L 60.625 52.875 z M 47.8125 53.09375 L 47.71875 54.59375 L 46.09375 54.375 L 46.125 55.40625 L 47.59375 55.34375 L 47.59375 56.625 L 49 54.78125 L 47.8125 53.09375 z M 52.59375 53.09375 L 52.5625 53.59375 C 51.818281 53.61652 50.730162 53.70519 50.59375 55.09375 C 50.678973 57.68438 53.017023 56.31641 53.34375 55.4375 L 52.375 55.46875 C 51.336392 56.95667 50.931209 54.23885 52.4375 54.21875 L 52.5 54.78125 L 53.53125 53.9375 L 52.59375 53.09375 z M 43.25 53.25 L 41.5 55.125 L 43.25 56.3125 L 43.3125 55.34375 L 44.78125 55.28125 L 44.8125 54.3125 L 43.34375 54.375 L 43.25 53.25 z M 55.8125 53.9375 L 55.15625 54.5 L 55.71875 55.125 L 54.96875 55.875 L 55.5 56.28125 L 56.34375 55.5 L 57.09375 56.40625 L 57.75 55.875 L 56.90625 55.21875 L 57.6875 54.65625 L 57.125 53.9375 L 56.46875 54.59375 L 55.8125 53.9375 z M 102.78125 53.9375 L 64.03125 54.34375 L 64 56.1875 L 102.75 56.34375 L 102.78125 53.9375 z M 41.75 58.6875 L 42.0625 91.96875 L 103.875 92.28125 L 103.59375 58.90625 L 41.75 58.6875 z M 78.15625 78.09375 L 83.84375 82.21875 L 81.78125 82.8125 L 83.625 86.46875 L 82.40625 87.1875 L 80.59375 83.40625 L 79.40625 85.5625 L 78.15625 78.09375 z "
       style="opacity:0.75000000000000000;fill:#ffffff;fill-opacity:0.47488588;stroke:none" />
    <path
       style="opacity:0.75;fill:#518687;fill-opacity:0.47488589;stroke:none"
       d="M 72.78125 2.375 L 2.0625 73.09375 L 72.78125 143.8125 L 143.46875 73.09375 L 72.78125 2.375 z M 40.96875 50.1875 L 105.03125 50.96875 C 105.56526 51.15846 105.67575 51.14717 105.71875 51.84375 L 105.9375 94.9375 C 105.88276 96.3742 105.13694 95.88225 104.59375 95.90625 L 40.96875 95.25 C 40.113079 95.0252 39.98791 94.4994 40.03125 93.875 L 39.59375 51.28125 C 39.585439 50.45428 40.294136 50.33155 40.96875 50.1875 z M 60.625 52.875 L 58.65625 54.8125 L 59.625 54.84375 L 59.5625 56.5 L 61.53125 56.5625 L 61.59375 54.78125 L 62.34375 54.78125 L 60.625 52.875 z M 47.8125 53.09375 L 47.71875 54.59375 L 46.09375 54.375 L 46.125 55.40625 L 47.59375 55.34375 L 47.59375 56.625 L 49 54.78125 L 47.8125 53.09375 z M 52.59375 53.09375 L 52.5625 53.59375 C 51.818281 53.61652 50.730162 53.70519 50.59375 55.09375 C 50.678973 57.68438 53.017023 56.31641 53.34375 55.4375 L 52.375 55.46875 C 51.336392 56.95667 50.931209 54.23885 52.4375 54.21875 L 52.5 54.78125 L 53.53125 53.9375 L 52.59375 53.09375 z M 43.25 53.25 L 41.5 55.125 L 43.25 56.3125 L 43.3125 55.34375 L 44.78125 55.28125 L 44.8125 54.3125 L 43.34375 54.375 L 43.25 53.25 z M 55.8125 53.9375 L 55.15625 54.5 L 55.71875 55.125 L 54.96875 55.875 L 55.5 56.28125 L 56.34375 55.5 L 57.09375 56.40625 L 57.75 55.875 L 56.90625 55.21875 L 57.6875 54.65625 L 57.125 53.9375 L 56.46875 54.59375 L 55.8125 53.9375 z M 102.78125 53.9375 L 64.03125 54.34375 L 64 56.1875 L 102.75 56.34375 L 102.78125 53.9375 z M 41.75 58.6875 L 42.0625 91.96875 L 103.875 92.28125 L 103.59375 58.90625 L 41.75 58.6875 z M 78.15625 78.09375 L 83.84375 82.21875 L 81.78125 82.8125 L 83.625 86.46875 L 82.40625 87.1875 L 80.59375 83.40625 L 79.40625 85.5625 L 78.15625 78.09375 z "
       transform="translate(0,907.36218)"
       id="rect2985" />
  </g>
</svg>
