<?xml version="1.0" encoding="UTF-8" standalone="no"?>
<!-- Created with Inkscape (http://www.inkscape.org/) -->

<svg
   xmlns:dc="http://purl.org/dc/elements/1.1/"
   xmlns:cc="http://creativecommons.org/ns#"
   xmlns:rdf="http://www.w3.org/1999/02/22-rdf-syntax-ns#"
   xmlns:svg="http://www.w3.org/2000/svg"
   xmlns="http://www.w3.org/2000/svg"
   xmlns:sodipodi="http://sodipodi.sourceforge.net/DTD/sodipodi-0.dtd"
   xmlns:inkscape="http://www.inkscape.org/namespaces/inkscape"
   width="145"
   height="145"
   id="svg2"
   version="1.1"
   inkscape:version="0.48.3.1 r9886"
   sodipodi:docname="kinect2.svg">
  <defs
     id="defs4" />
  <sodipodi:namedview
     id="base"
     pagecolor="#ffffff"
     bordercolor="#666666"
     borderopacity="1.0"
     inkscape:pageopacity="0.0"
     inkscape:pageshadow="2"
     inkscape:zoom="3.959798"
     inkscape:cx="29.64973"
     inkscape:cy="49.44978"
     inkscape:document-units="px"
     inkscape:current-layer="layer1"
     showgrid="false"
     inkscape:window-width="1215"
     inkscape:window-height="1000"
     inkscape:window-x="65"
     inkscape:window-y="24"
     inkscape:window-maximized="1" />
  <metadata
     id="metadata7">
    <rdf:RDF>
      <cc:Work
         rdf:about="">
        <dc:format>image/svg+xml</dc:format>
        <dc:type
           rdf:resource="http://purl.org/dc/dcmitype/StillImage" />
        <dc:title />
      </cc:Work>
    </rdf:RDF>
  </metadata>
  <g
     inkscape:label="Layer 1"
     inkscape:groupmode="layer"
     id="layer1"
     transform="translate(0,-907.36218)">
    <path
       id="path4375"
       transform="translate(0,907.36218)"
       d="M 71.96875 1.59375 L 1.25 72.28125 L 71.96875 143 L 142.65625 72.28125 L 71.96875 1.59375 z M 29.15625 66.90625 L 116.28125 67.03125 C 119.02225 67.03125 118.96115 67.04696 119.03125 69.75 L 119 77.8125 C 119 80.56065 118.98445 80.51635 116.25 80.53125 L 75.28125 80.34375 L 75.1875 84.0625 C 75.165526 85.09725 75.604882 85.89058 76.375 86.6875 C 77.145118 87.48442 78.213355 88.21731 79.3125 88.9375 C 80.411645 89.65769 81.527405 90.36519 82.34375 91.25 C 83.160095 92.13481 83.668403 93.3165 83.3125 94.625 L 83.1875 95.15625 L 82.625 95.15625 L 60.25 95.15625 L 59.6875 95.15625 L 59.5625 94.59375 C 59.244916 93.23235 59.960937 92.04486 60.96875 91.15625 C 61.976563 90.26764 63.313018 89.55011 64.65625 88.8125 C 65.999482 88.07489 67.349479 87.32244 68.3125 86.53125 C 69.275521 85.74006 69.79985 84.97093 69.8125 84.09375 L 69.875 80.5625 L 29.03125 80.59375 C 26.30246 80.59375 26.32464 80.59291 26.3125 77.875 L 26.4375 69.59375 C 26.4375 66.8608 26.423797 66.89455 29.15625 66.90625 z M 27.875 68.34375 L 27.75 79.15625 L 70.3125 79.125 C 71.449804 79.125 71.365616 79.19596 71.28125 80.375 L 71.25 84.125 C 71.229037 85.579 70.343154 86.73243 69.21875 87.65625 C 68.094296 88.58007 66.684697 89.32615 65.34375 90.0625 C 64.002803 90.79885 62.72216 91.53059 61.90625 92.25 C 61.313266 92.7728 61.09854 93.22615 61.03125 93.71875 L 81.9375 93.71875 C 81.935142 93.19295 81.749365 92.7261 81.28125 92.21875 C 80.657097 91.54225 79.632228 90.87764 78.53125 90.15625 C 77.430272 89.43486 76.244496 88.65193 75.3125 87.6875 C 74.380504 86.72307 73.6872 85.51713 73.71875 84.03125 L 73.8125 80.03125 C 73.846341 78.84238 73.844271 78.83365 75.09375 78.90625 L 117.53125 79.0625 L 117.5625 68.46875 L 27.875 68.34375 z "
       style="opacity:0.75000000000000000;fill:#ffffff;fill-opacity:0.47488588;stroke:none" />
    <path
       style="opacity:0.75;fill:#518687;fill-opacity:0.47488589;stroke:none"
       d="M 71.96875 1.59375 L 1.25 72.28125 L 71.96875 143 L 142.65625 72.28125 L 71.96875 1.59375 z M 29.15625 66.90625 L 116.28125 67.03125 C 119.02225 67.03125 118.96115 67.04696 119.03125 69.75 L 119 77.8125 C 119 80.56065 118.98445 80.51635 116.25 80.53125 L 75.28125 80.34375 L 75.1875 84.0625 C 75.165526 85.09725 75.604882 85.89058 76.375 86.6875 C 77.145118 87.48442 78.213355 88.21731 79.3125 88.9375 C 80.411645 89.65769 81.527405 90.36519 82.34375 91.25 C 83.160095 92.13481 83.668403 93.3165 83.3125 94.625 L 83.1875 95.15625 L 82.625 95.15625 L 60.25 95.15625 L 59.6875 95.15625 L 59.5625 94.59375 C 59.244916 93.23235 59.960937 92.04486 60.96875 91.15625 C 61.976563 90.26764 63.313018 89.55011 64.65625 88.8125 C 65.999482 88.07489 67.349479 87.32244 68.3125 86.53125 C 69.275521 85.74006 69.79985 84.97093 69.8125 84.09375 L 69.875 80.5625 L 29.03125 80.59375 C 26.30246 80.59375 26.32464 80.59291 26.3125 77.875 L 26.4375 69.59375 C 26.4375 66.8608 26.423797 66.89455 29.15625 66.90625 z M 27.875 68.34375 L 27.75 79.15625 L 70.3125 79.125 C 71.449804 79.125 71.365616 79.19596 71.28125 80.375 L 71.25 84.125 C 71.229037 85.579 70.343154 86.73243 69.21875 87.65625 C 68.094296 88.58007 66.684697 89.32615 65.34375 90.0625 C 64.002803 90.79885 62.72216 91.53059 61.90625 92.25 C 61.313266 92.7728 61.09854 93.22615 61.03125 93.71875 L 81.9375 93.71875 C 81.935142 93.19295 81.749365 92.7261 81.28125 92.21875 C 80.657097 91.54225 79.632228 90.87764 78.53125 90.15625 C 77.430272 89.43486 76.244496 88.65193 75.3125 87.6875 C 74.380504 86.72307 73.6872 85.51713 73.71875 84.03125 L 73.8125 80.03125 C 73.846341 78.84238 73.844271 78.83365 75.09375 78.90625 L 117.53125 79.0625 L 117.5625 68.46875 L 27.875 68.34375 z "
       transform="translate(0,907.36218)"
       id="rect2985" />
  </g>
</svg>
